<svg width="135" height="47" viewBox="0 0 135 47" fill="none" xmlns="http://www.w3.org/2000/svg">
<rect x="43" width="46.5087" height="46.5087" rx="23.2543" fill="#FF6B00"/>
<path d="M10.1906 12.2089C11.4595 12.2089 12.582 12.3944 13.5581 12.7653C14.5538 13.1362 15.4908 13.6926 16.3693 14.4344L14.0852 17.1578C13.4801 16.6892 12.8846 16.3378 12.299 16.1036C11.7133 15.8693 11.0886 15.7522 10.4248 15.7522C9.05828 15.7522 7.9748 16.3281 7.17439 17.4799C6.39351 18.6317 6.00306 20.4082 6.00306 22.8094C6.00306 25.1716 6.39351 26.9286 7.17439 28.0804C7.9748 29.2127 9.0778 29.7788 10.4834 29.7788C11.2252 29.7788 11.8988 29.6422 12.5039 29.3689C13.1091 29.076 13.7631 28.6661 14.4659 28.139L16.6036 30.8916C15.8422 31.653 14.9149 32.2777 13.8217 32.7657C12.748 33.2538 11.5571 33.4978 10.2491 33.4978C8.37501 33.4978 6.74491 33.0878 5.35883 32.2679C3.97276 31.448 2.88928 30.2376 2.10839 28.6368C1.34703 27.0165 0.966347 25.074 0.966347 22.8094C0.966347 20.6034 1.35679 18.7 2.13768 17.0992C2.93809 15.4984 4.03133 14.288 5.4174 13.4681C6.82299 12.6286 8.41405 12.2089 10.1906 12.2089ZM26.7496 17.0114C27.3157 17.0114 27.833 17.0797 28.3016 17.2163L27.5695 21.6967C26.9838 21.56 26.5153 21.4917 26.1639 21.4917C25.2463 21.4917 24.5435 21.8138 24.0555 22.458C23.587 23.0827 23.216 24.0296 22.9427 25.2985V33H18.316V17.4506H22.3571L22.7377 20.4668C23.0891 19.3931 23.6162 18.5536 24.319 17.9484C25.0414 17.3237 25.8515 17.0114 26.7496 17.0114ZM42.7409 24.9178C42.7409 25.5621 42.7117 26.1184 42.6531 26.587H33.0189C33.1751 27.895 33.546 28.8125 34.1317 29.3396C34.7173 29.8667 35.5275 30.1302 36.5622 30.1302C37.1869 30.1302 37.7921 30.0229 38.3777 29.8081C38.9634 29.5739 39.5979 29.2225 40.2812 28.7539L42.1846 31.3309C40.369 32.7755 38.3485 33.4978 36.1229 33.4978C33.6046 33.4978 31.6719 32.756 30.3249 31.2723C28.9778 29.7886 28.3043 27.7973 28.3043 25.2985C28.3043 23.7172 28.5874 22.3019 29.1535 21.0524C29.7197 19.7835 30.5494 18.7879 31.6426 18.0655C32.7358 17.3237 34.0438 16.9528 35.5666 16.9528C37.8116 16.9528 39.5686 17.6556 40.8375 19.0612C42.1065 20.4668 42.7409 22.419 42.7409 24.9178ZM38.202 23.6001C38.163 21.2184 37.3235 20.0275 35.6837 20.0275C34.8833 20.0275 34.2586 20.3204 33.8096 20.906C33.3801 21.4917 33.1165 22.458 33.0189 23.8051H38.202V23.6001ZM51.0796 12.7067C54.2617 12.7067 56.8093 13.429 58.7225 14.8737C60.6552 16.2988 61.6215 18.9245 61.6215 22.7509C61.6215 26.5186 60.6845 29.1737 58.8103 30.7159C56.9362 32.2386 54.5057 33 51.5188 33H45.4279V12.7067H51.0796ZM50.2304 16.1914V29.5153H51.8117C53.3929 29.5153 54.5936 29.0272 55.4135 28.0511C56.2334 27.0555 56.6434 25.2887 56.6434 22.7509C56.6434 21.0134 56.4384 19.6664 56.0284 18.7098C55.6185 17.7532 55.0621 17.0992 54.3593 16.7478C53.6565 16.3769 52.7878 16.1914 51.7531 16.1914H50.2304ZM77.9723 24.9178C77.9723 25.5621 77.9431 26.1184 77.8845 26.587H68.2503C68.4065 27.895 68.7774 28.8125 69.3631 29.3396C69.9487 29.8667 70.7589 30.1302 71.7936 30.1302C72.4183 30.1302 73.0235 30.0229 73.6091 29.8081C74.1948 29.5739 74.8293 29.2225 75.5125 28.7539L77.416 31.3309C75.6004 32.7755 73.5799 33.4978 71.3543 33.4978C68.836 33.4978 66.9033 32.756 65.5562 31.2723C64.2092 29.7886 63.5357 27.7973 63.5357 25.2985C63.5357 23.7172 63.8188 22.3019 64.3849 21.0524C64.9511 19.7835 65.7808 18.7879 66.874 18.0655C67.9672 17.3237 69.2752 16.9528 70.7979 16.9528C73.043 16.9528 74.8 17.6556 76.0689 19.0612C77.3379 20.4668 77.9723 22.419 77.9723 24.9178ZM73.4334 23.6001C73.3944 21.2184 72.5549 20.0275 70.9151 20.0275C70.1147 20.0275 69.49 20.3204 69.041 20.906C68.6115 21.4917 68.3479 22.458 68.2503 23.8051H73.4334V23.6001ZM86.0474 16.9528C87.1602 16.9528 88.2046 17.1187 89.1807 17.4506C90.1568 17.7825 91.0158 18.251 91.7577 18.8562L90.0592 21.4624C88.7903 20.662 87.5116 20.2618 86.2231 20.2618C85.6179 20.2618 85.1494 20.3692 84.8175 20.5839C84.5052 20.7791 84.349 21.0622 84.349 21.4331C84.349 21.726 84.4173 21.97 84.554 22.1652C84.7102 22.3409 85.0127 22.5264 85.4618 22.7216C85.9108 22.9168 86.6038 23.1511 87.5409 23.4244C89.1612 23.8929 90.3618 24.5079 91.1427 25.2692C91.9431 26.0111 92.3433 27.0457 92.3433 28.3732C92.3433 29.4274 92.0407 30.345 91.4355 31.1259C90.8304 31.8872 90.0007 32.4729 88.9465 32.8829C87.8923 33.2928 86.7209 33.4978 85.4325 33.4978C84.1245 33.4978 82.9044 33.2928 81.7721 32.8829C80.6593 32.4729 79.7125 31.9068 78.9316 31.1844L81.1864 28.6661C82.4944 29.6812 83.8707 30.1888 85.3153 30.1888C86.0181 30.1888 86.5648 30.0619 86.9552 29.8081C87.3652 29.5543 87.5702 29.1932 87.5702 28.7246C87.5702 28.3537 87.4921 28.0609 87.3359 27.8461C87.1797 27.6314 86.8771 27.4362 86.4281 27.2605C85.9791 27.0653 85.2665 26.831 84.2904 26.5577C82.7482 26.1087 81.5964 25.484 80.835 24.6836C80.0736 23.8832 79.693 22.8875 79.693 21.6967C79.693 20.7987 79.9467 19.9982 80.4543 19.2954C80.9814 18.5731 81.7233 18.007 82.6799 17.597C83.656 17.1675 84.7785 16.9528 86.0474 16.9528ZM99.3537 17.4506V33H94.7269V17.4506H99.3537ZM97.011 9.25129C97.8114 9.25129 98.4654 9.50508 98.973 10.0127C99.5001 10.5007 99.7636 11.1254 99.7636 11.8868C99.7636 12.6481 99.5001 13.2826 98.973 13.7902C98.4654 14.2782 97.8114 14.5223 97.011 14.5223C96.2106 14.5223 95.5566 14.2782 95.049 13.7902C94.5415 13.2826 94.2877 12.6481 94.2877 11.8868C94.2877 11.1254 94.5415 10.5007 95.049 10.0127C95.5566 9.50508 96.2106 9.25129 97.011 9.25129ZM117.311 18.3584C116.296 18.7683 114.802 18.9733 112.831 18.9733C113.846 19.4028 114.588 19.9299 115.056 20.5546C115.525 21.1793 115.759 21.9895 115.759 22.9851C115.759 23.9808 115.495 24.8788 114.968 25.6792C114.441 26.4601 113.68 27.075 112.684 27.524C111.708 27.973 110.556 28.1975 109.229 28.1975C108.604 28.1975 108.009 28.139 107.442 28.0218C107.286 28.0999 107.159 28.2268 107.062 28.4025C106.984 28.5587 106.945 28.7246 106.945 28.9003C106.945 29.1932 107.052 29.4274 107.267 29.6031C107.501 29.7593 107.96 29.8374 108.643 29.8374H110.986C112.177 29.8374 113.221 30.0326 114.119 30.4231C115.017 30.8135 115.71 31.3504 116.198 32.0337C116.686 32.7169 116.93 33.4881 116.93 34.347C116.93 35.9674 116.227 37.2265 114.822 38.1246C113.436 39.0421 111.425 39.5009 108.79 39.5009C106.896 39.5009 105.402 39.2959 104.309 38.8859C103.216 38.4955 102.445 37.9391 101.996 37.2168C101.566 36.4945 101.352 35.5867 101.352 34.4934H105.51C105.51 34.962 105.598 35.3329 105.773 35.6062C105.969 35.8795 106.31 36.0845 106.798 36.2212C107.286 36.3578 107.989 36.4261 108.907 36.4261C110.176 36.4261 111.054 36.27 111.542 35.9576C112.03 35.6648 112.274 35.2353 112.274 34.6691C112.274 34.2006 112.089 33.8297 111.718 33.5564C111.347 33.2831 110.791 33.1464 110.049 33.1464H107.794C106.193 33.1464 104.992 32.8633 104.192 32.2972C103.411 31.7115 103.021 30.9697 103.021 30.0717C103.021 29.5055 103.187 28.9589 103.519 28.4318C103.85 27.8852 104.299 27.4362 104.866 27.0848C103.889 26.5577 103.177 25.9427 102.728 25.2399C102.298 24.5176 102.084 23.6489 102.084 22.6337C102.084 20.8963 102.708 19.5199 103.958 18.5048C105.207 17.4701 106.857 16.9528 108.907 16.9528C110.468 16.9918 111.786 16.8357 112.86 16.4843C113.953 16.1329 115.076 15.6155 116.227 14.9322L117.311 18.3584ZM109.024 19.9982C108.301 19.9982 107.726 20.2325 107.296 20.701C106.886 21.15 106.681 21.7748 106.681 22.5752C106.681 23.4146 106.886 24.0686 107.296 24.5371C107.726 24.9862 108.301 25.2107 109.024 25.2107C109.785 25.2107 110.361 24.9862 110.751 24.5371C111.161 24.0881 111.366 23.4146 111.366 22.5166C111.366 20.8377 110.586 19.9982 109.024 19.9982ZM128.227 16.9528C129.574 16.9528 130.628 17.3628 131.39 18.1827C132.151 19.0026 132.532 20.1544 132.532 21.6381V33H127.905V22.4288C127.905 21.6479 127.778 21.111 127.524 20.8182C127.29 20.5058 126.929 20.3496 126.441 20.3496C125.504 20.3496 124.606 21.0232 123.747 22.3702V33H119.12V17.4506H123.161L123.483 19.2954C124.147 18.5146 124.86 17.9289 125.621 17.5385C126.402 17.148 127.271 16.9528 128.227 16.9528Z" fill="black"/>
</svg>
