<svg width="70" height="85" viewBox="0 0 70 85" fill="none" xmlns="http://www.w3.org/2000/svg">
<g clip-path="url(#clip0_136_2911)">
<path d="M7.08363 63.9155V65.9381H2.3029V68.1667H6.85598V70.1892H2.3029V74.2318H0V63.9275L7.08363 63.9155Z" fill="#606060"/>
<path d="M10.5056 74.2321V63.9277H12.8085V72.1904H17.2058V74.2417L10.5056 74.2321Z" fill="#606060"/>
<path d="M28.7611 72.8087C27.7181 73.7892 26.3404 74.335 24.9089 74.335C23.4774 74.335 22.0998 73.7892 21.0568 72.8087C20.0547 71.7976 19.4924 70.4316 19.4924 69.0081C19.4924 67.5845 20.0547 66.2185 21.0568 65.2074C22.0998 64.227 23.4774 63.6812 24.9089 63.6812C26.3404 63.6812 27.7181 64.227 28.7611 65.2074C29.7621 66.2191 30.3235 67.5849 30.3235 69.0081C30.3235 70.4313 29.7621 71.797 28.7611 72.8087ZM27.9775 69.0153C27.9966 68.1463 27.6799 67.3034 27.0932 66.662C26.8196 66.3551 26.4842 66.1095 26.109 65.9413C25.7338 65.7731 25.3273 65.6862 24.9161 65.6862C24.505 65.6862 24.0984 65.7731 23.7232 65.9413C23.348 66.1095 23.0126 66.3551 22.739 66.662C22.169 67.312 21.8546 68.1471 21.8546 69.0117C21.8546 69.8762 22.169 70.7113 22.739 71.3613C23.0144 71.6652 23.3504 71.9081 23.7254 72.0744C24.1004 72.2406 24.506 72.3265 24.9161 72.3265C25.3263 72.3265 25.7319 72.2406 26.1069 72.0744C26.4818 71.9081 26.8178 71.6652 27.0932 71.3613C27.6801 70.7229 27.997 69.8822 27.9775 69.0153Z" fill="#606060"/>
<path d="M36.5611 69.8489L38.392 63.9155H40.7883L42.6024 69.8489L44.6536 63.9155H47.1483L43.5537 74.2199H41.8427L39.5853 67.0476L37.3424 74.2199H35.629L32.0344 63.9155H34.5338L36.5611 69.8489Z" fill="#606060"/>
<path d="M57.2993 63.9155V65.9596H52.1591V68.0852H56.7793V70.0478H52.1591V72.1901H57.4575V74.2271H49.8706V63.9227L57.2993 63.9155Z" fill="#606060"/>
<path d="M69.3506 67.3402C69.3506 68.9936 68.6964 70.0608 67.388 70.5417L70 74.2321H67.1675L64.879 70.9419H63.2902V74.2321H60.9897V63.9277H64.8982C66.4958 63.9277 67.6396 64.1985 68.3298 64.7401C69.0199 65.2817 69.3602 66.1484 69.3506 67.3402ZM66.5757 68.5647C66.86 68.3075 67.003 67.9017 67.0046 67.3473C67.0062 66.793 66.8584 66.4104 66.5613 66.1995C66.2657 65.9934 65.7497 65.8904 65.0132 65.8904H63.2902V68.9433H64.9677C65.7561 68.9481 66.2905 68.8211 66.5757 68.5647Z" fill="#606060"/>
<path d="M11.2197 83.101V77.7979H11.7685V83.101H11.2197Z" fill="#606060"/>
<path d="M16.4389 83.1007H15.8806V82.2547C15.6409 82.8419 15.1305 83.1198 14.4428 83.127C13.5633 83.127 13.0337 82.5687 13.0337 81.6628V79.3384H13.592V81.5119C13.5769 81.6531 13.5933 81.796 13.6401 81.9301C13.6869 82.0643 13.7629 82.1863 13.8627 82.2874C13.9624 82.3886 14.0834 82.4663 14.2169 82.5149C14.3504 82.5636 14.493 82.5819 14.6345 82.5687C15.4133 82.5567 15.871 81.9911 15.871 81.1908V79.3384H16.4293L16.4389 83.1007Z" fill="#606060"/>
<path d="M20.0191 79.334H20.6349L19.3768 81.1648L20.7284 83.1011H20.0766L19.0054 81.565L17.8959 83.1011H17.28L18.6531 81.1648L17.3735 79.334H17.9989L19.0006 80.7718L20.0191 79.334Z" fill="#606060"/>
<path d="M24.8454 83.1007H24.2871V82.2547C24.0474 82.8419 23.537 83.1198 22.8492 83.127C21.9698 83.127 21.4402 82.5687 21.4402 81.6628V79.3384H21.9985V81.5119C21.9834 81.6531 21.9998 81.796 22.0466 81.9301C22.0934 82.0643 22.1694 82.1863 22.2692 82.2874C22.3689 82.3886 22.4899 82.4663 22.6234 82.5149C22.7569 82.5636 22.8995 82.5819 23.041 82.5687C23.8198 82.5567 24.2775 81.9911 24.2775 81.1908V79.3384H24.8358L24.8454 83.1007Z" fill="#606060"/>
<path d="M26.7601 80.17C26.8717 79.9067 27.0608 79.6837 27.3022 79.5305C27.5436 79.3772 27.8259 79.3011 28.1116 79.3121V79.8776C27.9415 79.8639 27.7703 79.8851 27.6087 79.9399C27.447 79.9948 27.2983 80.0821 27.1717 80.1966C27.0451 80.3111 26.9433 80.4503 26.8725 80.6056C26.8017 80.7609 26.7634 80.9291 26.7601 81.0998V83.1007H26.2041V79.3336H26.7601V80.17Z" fill="#606060"/>
<path d="M30.2637 83.6378C30.024 84.2178 29.6358 84.5173 29.135 84.5173C28.8457 84.5235 28.564 84.4247 28.3418 84.2393L28.5814 83.7744C28.7347 83.8881 28.9202 83.9502 29.111 83.9518C29.2658 83.9457 29.4149 83.8917 29.5377 83.7973C29.6604 83.7028 29.7508 83.5726 29.7964 83.4246L29.9545 83.0723L28.3969 79.334H28.9816L30.2325 82.4492L31.4307 79.334H32.0034L30.2637 83.6378Z" fill="#606060"/>
<path d="M36.8128 79.6548L36.5972 80.0981C36.291 79.9052 35.9381 79.7992 35.5763 79.7913C35.1546 79.7913 34.8311 79.9423 34.8311 80.2922C34.8311 81.1285 36.9327 80.6996 36.9327 82.0511C36.9327 82.794 36.2761 83.1223 35.5548 83.1223C35.0262 83.1313 34.5133 82.9424 34.1169 82.5927L34.3326 82.1709C34.6775 82.4774 35.1222 82.6478 35.5835 82.6502C36.0268 82.6502 36.3839 82.4873 36.3911 82.1158C36.4127 81.2076 34.3039 81.6725 34.311 80.3353C34.311 79.6164 34.9317 79.3121 35.6195 79.3121C36.042 79.3088 36.4564 79.4278 36.8128 79.6548Z" fill="#606060"/>
<path d="M39.0271 83.6378C38.7875 84.2178 38.3993 84.5173 37.8984 84.5173C37.6091 84.5235 37.3274 84.4247 37.1052 84.2393L37.3449 83.7744C37.4983 83.8878 37.6837 83.9499 37.8745 83.9518C38.0295 83.9455 38.1787 83.8915 38.3018 83.7971C38.425 83.7027 38.5159 83.5726 38.5622 83.4246L38.718 83.0723L37.1603 79.334H37.745L38.9983 82.4492L40.1965 79.334H40.7645L39.0271 83.6378Z" fill="#606060"/>
<path d="M47.6996 80.7787V83.1008H47.1412V80.9273C47.1412 80.2563 46.7482 79.8633 46.0988 79.8633C45.32 79.8848 44.8695 80.4432 44.8695 81.2508V83.1008H44.3039V80.9273C44.3039 80.2563 43.9181 79.8633 43.2591 79.8633C42.4875 79.8848 42.0226 80.4432 42.0226 81.2508V83.1008H41.4834V79.3337H42.0322V80.1844C42.2838 79.5997 42.7918 79.3193 43.47 79.3121C44.1482 79.3049 44.6682 79.6764 44.8215 80.2994C45.0612 79.6332 45.586 79.3193 46.3073 79.3121C47.1771 79.3121 47.6996 79.8705 47.6996 80.7787Z" fill="#606060"/>
<path d="M52.7893 81.2294C52.7893 82.3437 52.0704 83.1226 50.9945 83.1226C50.697 83.1367 50.4016 83.0664 50.1425 82.9196C49.8834 82.7729 49.6711 82.5558 49.5303 82.2934V83.101H48.9719V77.7979H49.5303V80.1487C49.6677 79.8861 49.877 79.6681 50.1337 79.52C50.3904 79.3719 50.684 79.2999 50.9801 79.3124C52.0465 79.3124 52.7893 80.0984 52.7893 81.2294ZM52.2238 81.2151C52.2134 80.9511 52.1257 80.696 51.9715 80.4815C51.8172 80.267 51.6033 80.1026 51.3564 80.0088C51.1094 79.915 50.8403 79.8959 50.5826 79.9538C50.3248 80.0118 50.0898 80.1443 49.9068 80.3348C49.7238 80.5253 49.6009 80.7654 49.5533 81.0253C49.5058 81.2852 49.5357 81.5533 49.6393 81.7963C49.743 82.0392 49.9158 82.2464 50.1363 82.3919C50.3568 82.5374 50.6152 82.6148 50.8794 82.6145C51.0615 82.6175 51.2422 82.5828 51.4103 82.5128C51.5784 82.4428 51.7302 82.3389 51.8564 82.2076C51.9825 82.0762 52.0802 81.9203 52.1435 81.7496C52.2067 81.5788 52.234 81.3969 52.2238 81.2151Z" fill="#606060"/>
<path d="M57.2083 81.2151C57.2126 81.5952 57.1038 81.9679 56.8958 82.286C56.6877 82.6041 56.3898 82.8532 56.0399 83.0016C55.69 83.15 55.3039 83.191 54.9306 83.1195C54.5573 83.048 54.2137 82.8671 53.9435 82.5999C53.6732 82.3327 53.4885 81.9911 53.4127 81.6187C53.337 81.2462 53.3737 80.8597 53.5181 80.5081C53.6625 80.1566 53.9082 79.8559 54.224 79.6442C54.5397 79.4326 54.9112 79.3196 55.2912 79.3196C55.5445 79.3071 55.7975 79.3474 56.0343 79.438C56.2711 79.5286 56.4865 79.6674 56.6668 79.8456C56.847 80.0239 56.9883 80.2377 57.0815 80.4734C57.1748 80.7092 57.2179 80.9618 57.2083 81.2151ZM53.9469 81.2151C53.9554 81.4804 54.0418 81.7374 54.1953 81.9539C54.3489 82.1704 54.5628 82.3369 54.8104 82.4326C55.058 82.5283 55.3283 82.549 55.5875 82.4921C55.8468 82.4352 56.0836 82.3032 56.2683 82.1125C56.453 81.9219 56.5775 81.6811 56.6263 81.4202C56.675 81.1593 56.6459 80.8898 56.5424 80.6453C56.439 80.4008 56.2659 80.1923 56.0446 80.0456C55.8234 79.8989 55.5639 79.8206 55.2984 79.8204C55.115 79.8151 54.9326 79.848 54.7627 79.9172C54.5928 79.9864 54.4392 80.0903 54.3117 80.2222C54.1843 80.3542 54.0858 80.5113 54.0226 80.6835C53.9593 80.8557 53.9327 81.0392 53.9445 81.2223L53.9469 81.2151Z" fill="#606060"/>
<path d="M58.2219 83.101V77.7979H58.7803V83.101H58.2219Z" fill="#606060"/>
<path d="M61.0809 11.438C57.2131 13.0747 53.9229 14.352 50.5369 16.4416C50.4434 17.992 50.4051 19.3172 50.3979 20.4723C51.856 19.4383 53.3873 18.5117 54.9797 17.6997C53.4317 22.224 53.5587 27.4097 53.6833 32.466C53.8175 37.9777 53.887 40.9252 52.0634 44.9918C48.2795 53.4413 41.0833 55.507 39.6287 56.178C52.3126 55.1715 57.7571 48.1861 56.9471 31.299C56.384 19.6719 58.0902 15.9791 61.0809 11.438Z" fill="#606060"/>
<path d="M47.9319 14.7232C48.4855 8.87371 49.4896 7.38318 51.1023 3.64965C48.2099 5.08747 44.4908 6.69303 40.9585 9.8011C39.19 7.96309 35.5667 3.79583 34.9988 0C34.4333 3.79583 30.8076 7.96309 29.0414 9.8011C25.5068 6.68584 21.7877 5.08986 18.8977 3.64965C20.7644 7.97508 21.8188 9.29307 22.3005 17.8672C22.3005 18.047 22.3221 18.2075 22.3293 18.392C17.86 15.0371 13.8581 13.5322 8.92163 11.4426C11.9123 15.9957 13.6185 19.6765 13.0625 31.3036C12.2478 48.186 17.6947 55.1761 30.3786 56.1778C28.924 55.5068 21.7278 53.4412 17.9439 44.9916C16.1203 40.9178 16.1898 37.9847 16.324 32.4659C16.4486 27.4095 16.5636 22.2238 15.0252 17.6995C17.71 19.0462 20.2074 20.738 22.4539 22.7318C22.4771 24.8557 22.3899 26.9794 22.1927 29.0942C20.9945 42.89 24.5507 46.2569 30.5943 49.6358C34.6178 41.2221 34.2487 33.7743 30.0311 26.7793C29.5322 25.9583 28.9882 25.1654 28.4016 24.4045C28.4265 26.2818 28.2983 28.158 28.0182 30.0144C31.3443 36.844 30.7788 44.3134 29.7604 47.2897C24.2248 43.0266 25.1138 35.2792 25.4469 29.3817C25.5595 27.3329 25.7632 22.7103 25.5667 17.7953C25.4498 15.386 25.1922 12.9856 24.7951 10.6063C31.0568 15.1114 32.8636 20.3019 35.0084 25.6602C37.0261 20.6278 38.8066 15.2145 45.2097 10.6063C44.6345 13.8198 44.3733 17.7954 44.3062 21.3132C42.642 22.9548 41.1868 24.7955 39.9736 26.7937C35.756 33.7886 35.387 41.2365 39.4081 49.6501C45.4541 46.2713 49.0079 42.9044 47.8121 29.1086C47.3712 24.0067 47.5893 18.313 47.9319 14.7232ZM36.4031 15.0156C35.9477 15.6985 35.0252 17.2634 34.9988 17.3065C34.9748 17.2634 34.0978 15.7728 33.6664 15.121C32.9481 14.0344 32.152 13.0013 31.2844 12.0297C32.6387 10.4706 33.8799 8.81696 34.9988 7.08124C36.209 8.8162 37.4575 10.6231 38.6892 12.0561C37.8601 12.989 37.0963 13.9778 36.4031 15.0156ZM40.2372 47.2777C39.0223 43.7287 38.4352 33.791 44.3374 26.1682C44.3877 27.4527 44.4452 28.1045 44.5531 29.3698C45.0419 34.9724 45.7752 43.0146 40.2396 47.2682L40.2372 47.2777Z" fill="#606060"/>
</g>
<defs>
<clipPath id="clip0_136_2911">
<rect width="70" height="84.5171" fill="white"/>
</clipPath>
</defs>
</svg>
