<svg width="69" height="70" viewBox="0 0 69 70" fill="none" xmlns="http://www.w3.org/2000/svg">
<g clip-path="url(#clip0_136_2805)">
<path d="M2.0711 52.8961V55.3604C2.3049 54.9597 2.64108 54.6302 3.04426 54.4067C3.45646 54.1904 3.91633 54.0841 4.38041 54.0978C4.83775 54.0915 5.28976 54.1976 5.69776 54.4069C6.10577 54.6162 6.45759 54.9225 6.72313 55.2995C7.33033 56.1007 7.63468 57.1386 7.63617 58.4132C7.63765 59.6878 7.3333 60.7249 6.72313 61.5246C6.40491 61.9247 5.97619 62.2199 5.49164 62.3723C4.99588 62.5425 4.47631 62.6308 3.95284 62.6339C2.99702 62.6384 2.05901 62.3721 1.2449 61.865C0.412036 61.351 -0.00439453 60.3642 -0.00439453 58.9047V51.8477H1.03112C1.30522 51.8494 1.56759 51.9605 1.76141 52.1567C1.95523 52.3529 2.06489 52.6186 2.06664 52.8961H2.0711ZM5.54063 58.3207C5.54063 57.5797 5.39217 57.004 5.09525 56.5937C4.9579 56.3884 4.77162 56.2214 4.55363 56.1083C4.33565 55.9952 4.09302 55.9396 3.84817 55.9466C3.59679 55.9326 3.34585 55.9814 3.11749 56.0887C2.88914 56.196 2.69038 56.3586 2.53875 56.5621C2.20868 57.0856 2.04901 57.7006 2.08223 58.3207C2.08223 59.182 2.22252 59.8088 2.50757 60.1989C2.64834 60.4075 2.83896 60.5766 3.06168 60.6906C3.28441 60.8045 3.53199 60.8595 3.78137 60.8505C4.03583 60.8632 4.28933 60.8106 4.51828 60.6974C4.74723 60.5843 4.94419 60.4143 5.0908 60.2034C5.39218 59.7705 5.54212 59.1429 5.54063 58.3207Z" fill="#606060"/>
<path d="M8.31747 62.4806V58.5056C8.29686 57.8122 8.41581 57.1218 8.6671 56.4765C8.87621 55.9668 9.20581 55.517 9.6269 55.1665C10.0285 54.8508 10.489 54.6207 10.9809 54.4901C11.5014 54.3425 12.0392 54.2667 12.5798 54.2646H12.8849V56.4517H12.1834C11.5896 56.4517 11.1531 56.596 10.874 56.8845C10.5912 57.1709 10.4486 57.6241 10.4486 58.2373V62.4603L8.31747 62.4806Z" fill="#606060"/>
<path d="M18.5836 62.1404C18.1627 62.3658 17.7031 62.5074 17.2296 62.5575C16.8096 62.6056 16.3874 62.6312 15.9647 62.6341C15.2786 62.6477 14.6063 62.4374 14.0473 62.0344C13.4995 61.6331 13.2256 60.9702 13.2256 60.0458C13.2256 59.183 13.4743 58.5667 13.9716 58.197C14.5385 57.803 15.1909 57.5532 15.8734 57.4687C15.9964 57.4662 16.1189 57.4503 16.2386 57.4214C16.3811 57.3921 16.5437 57.365 16.7263 57.3447C17.6171 57.2215 18.0625 56.9547 18.0625 56.5443C18.0686 56.4032 18.0242 56.2646 17.9375 56.154C17.8507 56.0434 17.7275 55.9683 17.5903 55.9423C17.3087 55.8554 17.0163 55.8091 16.7218 55.8048C16.4629 55.8007 16.2053 55.8419 15.9602 55.9265C15.8522 55.9655 15.7533 56.0266 15.6697 56.1062C15.5862 56.1857 15.5198 56.2819 15.4748 56.3887H13.4349C13.5035 55.7697 13.8098 55.2028 14.2878 54.8105C14.8356 54.34 15.6166 54.104 16.6305 54.1025C17.7663 54.1025 18.6184 54.2979 19.187 54.6887C19.4701 54.8737 19.701 55.1299 19.8571 55.4322C20.0133 55.7345 20.0893 56.0726 20.0778 56.4136V59.2183C20.0778 60.039 19.9294 60.6808 19.6324 61.1438C19.3783 61.5659 19.0158 61.9103 18.5836 62.1404ZM18.0959 58.3503C17.7159 58.5277 17.3179 58.6623 16.9089 58.7516L16.2097 58.9049C15.9166 58.9701 15.6442 59.108 15.4169 59.3063C15.2843 59.5068 15.2109 59.7414 15.2053 59.9827C15.199 60.1183 15.2201 60.2538 15.2672 60.3809C15.3143 60.5081 15.3864 60.6242 15.4792 60.7222C15.7036 60.9004 15.9853 60.988 16.2698 60.9679C16.5151 60.99 16.7621 60.9574 16.9936 60.8723C17.2251 60.7872 17.4353 60.6517 17.6094 60.4754C17.7835 60.2991 17.9173 60.0863 18.0014 59.8519C18.0854 59.6176 18.1177 59.3675 18.0959 59.1191V58.3503Z" fill="#606060"/>
<path d="M20.8728 51.8794H21.9707C22.2447 51.8794 22.5075 51.9896 22.7013 52.1858C22.8951 52.382 23.004 52.6481 23.004 52.9256V53.5726H20.8728V51.8794ZM20.8728 54.2828H21.9707C22.2447 54.284 22.5072 54.395 22.7008 54.5914C22.8944 54.7878 23.0034 55.0538 23.004 55.3313V62.4807H20.8728V54.2828Z" fill="#606060"/>
<path d="M30.9163 62.4805H29.8496C29.712 62.4869 29.5745 62.4642 29.446 62.4138C29.3175 62.3634 29.2008 62.2864 29.1033 62.1877C29.0059 62.089 28.9298 61.9709 28.88 61.8408C28.8302 61.7107 28.8078 61.5715 28.8141 61.4321V57.243C28.8309 57.0403 28.7992 56.8365 28.7217 56.6489C28.6442 56.4613 28.5231 56.2954 28.3687 56.1652C28.0882 55.9435 27.7426 55.8229 27.3867 55.8225C27.0332 55.819 26.6894 55.9392 26.4135 56.163C26.2628 56.2959 26.1453 56.4631 26.0706 56.6508C25.9959 56.8385 25.9661 57.0414 25.9837 57.243V62.4828H23.8525V57.6714C23.8525 56.2765 24.2133 55.3423 24.9348 54.8688C25.6477 54.3976 26.4736 54.1311 27.3243 54.0977C28.1957 54.0926 29.0506 54.3381 29.7895 54.8057C30.5407 55.2792 30.9163 56.2344 30.9163 57.6714V62.4805Z" fill="#606060"/>
<path d="M31.3794 59.7683H33.4482C33.4456 59.947 33.4846 60.1238 33.562 60.2843C33.6393 60.4449 33.7529 60.5848 33.8936 60.6927C34.2607 60.915 34.6845 61.0225 35.1117 61.0016C35.4401 61.0076 35.7648 60.9301 36.0559 60.7761C36.1648 60.7227 36.2567 60.6394 36.3213 60.5358C36.3858 60.4322 36.4204 60.3124 36.4212 60.1899C36.4212 59.8202 35.9951 59.5429 35.1429 59.358C34.8647 59.3176 34.59 59.2558 34.3212 59.1731C33.2463 58.907 32.5255 58.5891 32.1588 58.2194C31.9569 58.0324 31.7978 57.8028 31.6927 57.5469C31.5877 57.291 31.5393 57.0149 31.5509 56.7381C31.5452 56.3674 31.6223 56.0003 31.7766 55.6641C31.9308 55.3279 32.1582 55.0314 32.4417 54.7968C33.0518 54.3264 33.8439 54.0904 34.8178 54.0889C35.8719 54.0889 36.7136 54.3248 37.3431 54.7968C37.6308 55.0449 37.8636 55.3517 38.0263 55.6971C38.189 56.0424 38.278 56.4187 38.2873 56.8012H36.9779C36.7956 56.8077 36.6152 56.7618 36.4576 56.6688C36.2999 56.5759 36.1715 56.4396 36.0871 56.2759C36.0047 56.1947 35.9223 56.1135 35.8422 56.0301C35.5462 55.8293 35.1935 55.7319 34.8378 55.7528C34.5227 55.7325 34.2079 55.7962 33.9248 55.9377C33.8354 55.998 33.7631 56.0809 33.715 56.1781C33.667 56.2754 33.6449 56.3837 33.6509 56.4923C33.6509 56.8215 34.1787 57.0988 35.2342 57.3243C35.3567 57.3649 35.4569 57.3964 35.5527 57.4167C35.6374 57.4365 35.724 57.4471 35.811 57.4483C36.8502 57.7143 37.571 58.0225 37.9733 58.3727C38.1674 58.5639 38.3194 58.7946 38.4192 59.0495C38.519 59.3044 38.5643 59.5778 38.5523 59.8517C38.5721 60.2551 38.4934 60.6572 38.3233 61.0225C38.1532 61.3878 37.8969 61.7051 37.5769 61.9463C36.9682 62.3972 36.0552 62.6227 34.8378 62.6227C33.6828 62.6227 32.8202 62.3867 32.2501 61.9147C31.6801 61.4428 31.3831 60.7543 31.3594 59.8495L31.3794 59.7683Z" fill="#606060"/>
<path d="M42.5787 62.4807C41.8537 62.5214 41.1267 62.5108 40.4031 62.4492C39.6221 62.3891 39.2317 61.8855 39.2317 60.9386V51.8794H40.3273C40.4584 51.8796 40.588 51.9069 40.7082 51.9596C40.8285 52.0124 40.9368 52.0894 41.0266 52.186C41.1244 52.2819 41.2019 52.3969 41.2543 52.524C41.3068 52.6511 41.3331 52.7878 41.3317 52.9256V54.3122H42.5787V54.7451C42.5834 54.8856 42.5586 55.0256 42.5061 55.1558C42.4535 55.286 42.3743 55.4034 42.2737 55.5004C42.0782 55.6923 41.8155 55.7977 41.5432 55.7935H41.3317V60.3546C41.3317 60.7041 41.5343 60.8777 41.9396 60.8777H42.5787V62.4807Z" fill="#606060"/>
<path d="M44.0886 61.7523C43.6461 61.3554 43.3286 60.8356 43.1756 60.2575C42.9916 59.6219 42.8994 58.9627 42.9017 58.3004C42.9002 57.7381 42.9751 57.1782 43.1243 56.6365C43.2536 56.1246 43.4982 55.6499 43.8392 55.2499C44.358 54.6368 45.0868 54.2453 45.879 54.1541C46.6345 54.0348 47.4072 54.1036 48.1305 54.3548C48.8821 54.6462 49.4934 55.2206 49.8363 55.9579C50.1933 56.6961 50.3705 57.5102 50.3529 58.332C50.3612 58.9044 50.2861 59.4749 50.1302 60.0252C50.0114 60.4526 49.8265 60.8582 49.5824 61.227C49.1451 61.8718 48.4819 62.324 47.7274 62.4918C47.0668 62.6768 46.3711 62.6923 45.7031 62.5369C45.1073 62.4203 44.5512 62.15 44.0886 61.7523ZM45.5495 56.3276C45.1249 56.8011 44.9326 57.5045 44.9727 58.438C45.0128 59.3714 45.185 60.0237 45.4893 60.395C45.6591 60.5925 45.8807 60.7372 46.1285 60.8121C46.4263 60.925 46.7524 60.9361 47.0571 60.8437C47.4091 60.7209 47.7062 60.4745 47.8944 60.1492C48.1364 59.7795 48.2678 59.1835 48.2886 58.3613C48.2886 57.6218 48.172 57.0671 47.9389 56.6974C47.7609 56.3727 47.4754 56.122 47.1328 55.9894C46.8378 55.8863 46.5181 55.8808 46.2198 55.9736C45.9684 56.03 45.7345 56.1477 45.5383 56.3163L45.5495 56.3276Z" fill="#606060"/>
<path d="M50.9921 62.4806V58.5056C50.9711 57.812 51.0908 57.1214 51.344 56.4765C51.5515 55.9665 51.8805 55.5164 52.3015 55.1665C52.7031 54.8508 53.1637 54.6207 53.6555 54.4901C54.176 54.3425 54.7139 54.2667 55.2544 54.2646H55.5595V56.4517H54.858C54.2642 56.4517 53.8285 56.596 53.5508 56.8845C53.2658 57.1709 53.1233 57.6241 53.1233 58.2373V62.4603L50.9921 62.4806Z" fill="#606060"/>
<path d="M63.1488 62.4805H61.0466V57.243C61.0634 57.0403 61.0317 56.8366 60.9542 56.6489C60.8766 56.4613 60.7556 56.2954 60.6012 56.1653C60.3186 55.9429 59.9704 55.8231 59.6125 55.8248C59.259 55.8212 58.9152 55.9415 58.6393 56.1653C58.4893 56.2982 58.3725 56.4651 58.2982 56.6523C58.2239 56.8396 58.1943 57.042 58.2117 57.243V62.4828H56.0806V57.6714C56.0806 56.2765 56.4413 55.3423 57.1629 54.8688C57.8757 54.3976 58.7016 54.1311 59.5523 54.0978C60.013 54.0976 60.4724 54.149 60.9219 54.2511C61.3702 54.3554 61.7872 54.5673 62.1378 54.8688C62.4503 54.5967 62.8207 54.4015 63.2201 54.2984C63.6429 54.1841 64.0767 54.1168 64.5139 54.0978C65.3854 54.092 66.2404 54.3376 66.9791 54.8057C67.7303 55.2792 68.1059 56.2344 68.1059 57.6714V62.4805H67.0392C66.9017 62.487 66.7643 62.4643 66.6359 62.4138C66.5075 62.3634 66.3909 62.2863 66.2936 62.1876C66.1964 62.0889 66.1205 61.9707 66.071 61.8406C66.0214 61.7105 65.9993 61.5714 66.0059 61.4321V57.243C66.0228 57.0403 65.9911 56.8366 65.9135 56.6489C65.836 56.4613 65.7149 56.2954 65.5606 56.1653C65.2771 55.9444 64.9295 55.8247 64.5718 55.8247C64.2141 55.8247 63.8665 55.9444 63.5831 56.1653C63.4287 56.2954 63.3076 56.4613 63.2301 56.6489C63.1526 56.8366 63.1209 57.0403 63.1377 57.243V62.4828L63.1488 62.4805Z" fill="#606060"/>
<path d="M12.2702 66.7734L13.0652 69.4655H13.0764L13.8335 66.7734H14.2611L15.0182 69.4655H15.0316L15.8244 66.7734H16.2275L15.2298 69.9142H14.8156L14.0518 67.274H14.0384L13.2813 69.9142H12.867L11.8694 66.7734H12.2702Z" fill="#606060"/>
<path d="M17.0092 65.5698V67.3149H17.0225C17.0962 67.1251 17.2312 66.9661 17.4056 66.864C17.5874 66.7479 17.7986 66.6876 18.0135 66.6904C18.1983 66.6843 18.3826 66.7134 18.5569 66.7761C18.6924 66.824 18.8136 66.9062 18.9087 67.0151C19.001 67.1246 19.0652 67.2555 19.0958 67.3961C19.1331 67.5617 19.151 67.7312 19.1493 67.9011V69.9303H18.7707V67.971C18.7718 67.8453 18.7599 67.7199 18.7351 67.5968C18.7135 67.4883 18.6703 67.3855 18.6081 67.2946C18.5458 67.2076 18.4621 67.1384 18.3654 67.094C18.2443 67.0425 18.1137 67.0179 17.9824 67.0218C17.8431 67.0193 17.7049 67.0469 17.5771 67.103C17.4625 67.1563 17.3602 67.2331 17.2764 67.3285C17.192 67.4287 17.127 67.5442 17.0849 67.6689C17.0374 67.8075 17.0118 67.9528 17.0092 68.0995V69.9303H16.6306V65.5698H17.0092Z" fill="#606060"/>
<path d="M20.1448 68.877C20.1809 69.0203 20.2428 69.1556 20.3274 69.2761C20.4138 69.3946 20.5229 69.4942 20.6481 69.5692C20.7886 69.649 20.948 69.6888 21.1091 69.6842C21.3463 69.696 21.579 69.6153 21.7593 69.4587C21.9223 69.3 22.0354 69.096 22.0845 68.8725H22.463C22.4048 69.1897 22.2489 69.4802 22.0177 69.7022C21.7606 69.911 21.4357 70.0148 21.1068 69.9931C20.8924 69.9995 20.6794 69.9571 20.4833 69.8691C20.3078 69.7888 20.1548 69.6656 20.0379 69.5106C19.922 69.3518 19.8373 69.1719 19.7885 68.9807C19.7324 68.7736 19.7046 68.5597 19.7061 68.3449C19.7055 68.1391 19.7333 67.9342 19.7885 67.7362C19.8379 67.5445 19.9225 67.364 20.0379 67.2041C20.1538 67.043 20.3067 66.913 20.4833 66.8253C20.6794 66.7261 20.8966 66.6773 21.1157 66.6832C21.3256 66.6743 21.5342 66.7202 21.7214 66.8165C21.9086 66.9129 22.0682 67.0564 22.1847 67.2334C22.2975 67.4055 22.3776 67.5974 22.4207 67.7993C22.4696 68.012 22.4898 68.2304 22.4809 68.4486H20.0869C20.0883 68.5933 20.1077 68.7373 20.1448 68.877ZM22.0199 67.7046C21.9772 67.5749 21.9115 67.4542 21.8261 67.3484C21.7415 67.2453 21.6369 67.1609 21.5188 67.1003C21.3919 67.0356 21.2512 67.003 21.1091 67.0056C20.9655 67.0029 20.8234 67.0354 20.6949 67.1003C20.5768 67.1609 20.4722 67.2453 20.3875 67.3484C20.3014 67.4565 20.2336 67.5784 20.1871 67.7091C20.1373 67.8436 20.1036 67.9836 20.0869 68.1262H22.0911C22.089 67.9828 22.0649 67.8406 22.0199 67.7046Z" fill="#606060"/>
<path d="M23.3337 66.7738V67.511H23.3471C23.4283 67.2673 23.5877 67.058 23.8 66.9166C24.0123 66.7753 24.2652 66.7099 24.5184 66.7309V67.1142C24.3595 67.1051 24.2004 67.1289 24.0508 67.1841C23.9155 67.234 23.7914 67.3107 23.6856 67.4096C23.5828 67.5126 23.5024 67.6362 23.4495 67.7726C23.3934 67.9161 23.3647 68.0691 23.3649 68.2235V69.8964H22.9863V66.7738H23.3337Z" fill="#606060"/>
<path d="M25.0506 68.8774C25.0865 69.0212 25.1492 69.1566 25.2354 69.2765C25.3204 69.3954 25.4289 69.4952 25.5539 69.5696C25.6951 69.6498 25.8552 69.6896 26.0171 69.6846C26.2536 69.696 26.4855 69.6153 26.6651 69.4591C26.8281 69.3004 26.9412 69.0964 26.9903 68.8729H27.3688C27.3099 69.1899 27.1541 69.4801 26.9235 69.7026C26.6656 69.9099 26.3413 70.0134 26.0126 69.9935C25.796 70.0009 25.5805 69.9585 25.3824 69.8694C25.2073 69.7885 25.0544 69.6654 24.937 69.511C24.8219 69.3517 24.7373 69.172 24.6876 68.9811C24.6333 68.7737 24.6064 68.5599 24.6075 68.3453C24.6072 68.1397 24.6342 67.9349 24.6876 67.7366C24.7383 67.5454 24.8228 67.3651 24.937 67.2045C25.0534 67.0439 25.2062 66.914 25.3824 66.8257C25.5794 66.7266 25.7973 66.6778 26.0171 66.6836C26.2266 66.675 26.4347 66.7211 26.6215 66.8175C26.8083 66.9138 26.9675 67.0572 27.0838 67.2338C27.1965 67.4062 27.2772 67.598 27.3221 67.7997C27.3687 68.0128 27.3889 68.2309 27.3822 68.449H24.9949C24.9955 68.5936 25.0142 68.7376 25.0506 68.8774ZM26.9279 67.705C26.8837 67.5755 26.8173 67.455 26.7319 67.3488C26.6473 67.2457 26.5427 67.1613 26.4246 67.1007C26.2984 67.0362 26.1585 67.0037 26.0171 67.006C25.8728 67.003 25.7298 67.0355 25.6007 67.1007C25.4829 67.1608 25.379 67.2453 25.2956 67.3488C25.2087 67.4568 25.1402 67.5787 25.0929 67.7095C25.0438 67.844 25.0109 67.9841 24.9949 68.1266H26.9992C26.997 67.9832 26.973 67.841 26.9279 67.705Z" fill="#606060"/>
<path d="M29.9477 65.5698V66.1831H29.5691V65.5698H29.9477ZM29.9477 66.7738V69.9145H29.5691V66.7738H29.9477Z" fill="#606060"/>
<path d="M33.0565 69.9141V69.3189C33.0148 69.4225 32.9543 69.5173 32.8784 69.5985C32.8013 69.6871 32.7112 69.7632 32.6111 69.8239C32.51 69.8826 32.4024 69.9287 32.2904 69.9615C32.1795 69.9925 32.0649 70.0084 31.9497 70.0088C31.7369 70.0141 31.5257 69.9694 31.3329 69.878C31.1632 69.7934 31.0147 69.6708 30.8986 69.5196C30.7791 69.3614 30.6907 69.1816 30.6381 68.9897C30.5282 68.5731 30.5282 68.1347 30.6381 67.7181C30.6902 67.5261 30.7787 67.3461 30.8986 67.1882C31.0145 67.0356 31.1629 66.9115 31.3329 66.8252C31.5255 66.7332 31.7367 66.6876 31.9497 66.6922C32.0646 66.6917 32.1791 66.7061 32.2904 66.7351C32.3994 66.763 32.5037 66.807 32.6 66.8658C32.6947 66.924 32.7802 66.9962 32.8539 67.08C32.9301 67.1675 32.9884 67.2694 33.0253 67.3799H33.0387V65.5762H33.3995V69.9141H33.0565ZM30.9788 68.8274C31.0151 68.98 31.0761 69.1255 31.1592 69.258C31.241 69.3826 31.3489 69.4873 31.4754 69.5646C31.6159 69.6471 31.7762 69.6885 31.9386 69.6841C32.1152 69.6895 32.2902 69.6483 32.4463 69.5646C32.5805 69.4903 32.6956 69.3853 32.7826 69.258C32.8715 69.1278 32.935 68.9817 32.9697 68.8274C33.0467 68.5097 33.0467 68.1778 32.9697 67.8601C32.9345 67.7067 32.8711 67.5613 32.7826 67.4317C32.6899 67.2933 32.5635 67.1814 32.4157 67.1068C32.2679 67.0321 32.1036 66.9973 31.9386 67.0056C31.7765 67.0006 31.6161 67.0412 31.4754 67.1229C31.3493 67.2017 31.2415 67.307 31.1592 67.4317C31.0765 67.5637 31.0155 67.7084 30.9788 67.8601C30.9046 68.1782 30.9046 68.5093 30.9788 68.8274Z" fill="#606060"/>
<path d="M34.4059 68.8774C34.4427 69.0208 34.5054 69.1561 34.5907 69.2765C34.6763 69.3949 34.7846 69.4946 34.9092 69.5696C35.0504 69.6498 35.2105 69.6896 35.3723 69.6846C35.6089 69.696 35.8408 69.6153 36.0204 69.4591C36.1841 69.3009 36.2974 69.0968 36.3455 68.8729H36.7241C36.6651 69.1899 36.5093 69.4801 36.2787 69.7026C36.0215 69.911 35.6967 70.0147 35.3679 69.9935C35.1505 70.0012 34.9343 69.9588 34.7355 69.8694C34.5607 69.7879 34.4079 69.6649 34.2901 69.511C34.1749 69.3517 34.0903 69.172 34.0407 68.9811C33.9864 68.7737 33.9594 68.5599 33.9605 68.3453C33.9603 68.1397 33.9872 67.9349 34.0407 67.7366C34.0913 67.5454 34.1758 67.3651 34.2901 67.2045C34.407 67.0445 34.5596 66.9147 34.7355 66.8257C34.9324 66.7266 35.1503 66.6778 35.3701 66.6836C35.5796 66.675 35.7877 66.7211 35.9745 66.8175C36.1613 66.9138 36.3205 67.0572 36.4368 67.2338C36.5504 67.4057 36.6312 67.5977 36.6751 67.7997C36.7218 68.0128 36.742 68.2309 36.7352 68.449H34.3502C34.3508 68.5936 34.3695 68.7376 34.4059 68.8774ZM36.2832 67.705C36.2389 67.5755 36.1726 67.455 36.0872 67.3488C36.0025 67.2457 35.8979 67.1613 35.7799 67.1007C35.6536 67.0362 35.5138 67.0037 35.3723 67.006C35.2288 67.0033 35.0867 67.0358 34.9581 67.1007C34.8401 67.1613 34.7355 67.2457 34.6508 67.3488C34.564 67.4568 34.4955 67.5787 34.4482 67.7095C34.3991 67.844 34.3662 67.9841 34.3502 68.1266H36.3544C36.3558 67.9838 36.3356 67.8416 36.2943 67.705H36.2832Z" fill="#606060"/>
<path d="M37.3255 67.2604C37.3861 67.1311 37.4761 67.0183 37.5883 66.9312C37.7042 66.844 37.8358 66.7804 37.9758 66.7441C38.1364 66.7018 38.3019 66.6814 38.4679 66.6832C38.6054 66.6836 38.7425 66.6964 38.8777 66.7216C39.0085 66.7466 39.1333 66.7971 39.2451 66.8704C39.3572 66.9491 39.4476 67.0554 39.5079 67.1792C39.5828 67.3396 39.618 67.5161 39.6103 67.6933V69.3617C39.6068 69.3922 39.61 69.4231 39.62 69.4521C39.6299 69.4811 39.6462 69.5075 39.6676 69.5292C39.6891 69.5509 39.7151 69.5674 39.7437 69.5774C39.7724 69.5875 39.8029 69.5908 39.833 69.5872C39.8742 69.5882 39.9152 69.5806 39.9533 69.5647V69.8871L39.8375 69.9051C39.7945 69.9076 39.7513 69.9076 39.7083 69.9051C39.6323 69.9078 39.5565 69.8948 39.4856 69.8668C39.4301 69.844 39.3828 69.8047 39.3498 69.754C39.3158 69.7018 39.2937 69.6424 39.2852 69.5804C39.2758 69.5057 39.2713 69.4304 39.2718 69.355H39.2585C39.1958 69.4507 39.1266 69.5418 39.0514 69.6278C38.9875 69.7043 38.9124 69.7705 38.8287 69.8239C38.7376 69.8798 38.6384 69.9209 38.5347 69.9457C38.4056 69.9766 38.2732 69.991 38.1406 69.9885C38.0038 69.9893 37.8675 69.9719 37.7353 69.9367C37.6143 69.9064 37.5012 69.8503 37.4035 69.7721C37.3076 69.6961 37.2313 69.5979 37.1808 69.4857C37.1245 69.3566 37.0971 69.2165 37.1006 69.0754C37.0897 68.8927 37.1399 68.7116 37.2431 68.5613C37.3438 68.4346 37.476 68.3373 37.6262 68.2795C37.7975 68.2099 37.9772 68.1637 38.1606 68.142L38.7641 68.0653C38.8465 68.0653 38.9155 68.0473 38.9757 68.036C39.0297 68.0262 39.0808 68.0038 39.1249 67.9706C39.1665 67.9385 39.1988 67.8957 39.2184 67.8466C39.2429 67.7804 39.2542 67.7099 39.2518 67.6392C39.2563 67.529 39.2349 67.4193 39.1894 67.319C39.1501 67.239 39.0901 67.1712 39.0157 67.1229C38.9366 67.0715 38.8479 67.037 38.7552 67.0214C38.6515 67.0029 38.5465 66.9938 38.4412 66.9944C38.2309 66.9842 38.0232 67.0453 37.8511 67.168C37.7708 67.2354 37.7073 67.3208 37.6655 67.4175C37.6238 67.5142 37.605 67.6195 37.6106 67.7249H37.232C37.2339 67.5655 37.2657 67.4079 37.3255 67.2604ZM39.2206 68.1983C39.1889 68.2477 39.1393 68.2825 39.0826 68.2953C39.0232 68.3129 38.963 68.3272 38.9022 68.3381C38.7418 68.3674 38.5748 68.3922 38.4056 68.4148C38.248 68.4349 38.0923 68.4681 37.9401 68.514C37.8125 68.5528 37.6942 68.6181 37.5927 68.7056C37.5467 68.752 37.511 68.8077 37.488 68.8692C37.4649 68.9306 37.4551 68.9963 37.4591 69.0619C37.4568 69.1516 37.4759 69.2405 37.5148 69.3212C37.5524 69.3964 37.6047 69.4631 37.6685 69.5173C37.7346 69.5721 37.81 69.6141 37.8912 69.6413C37.9743 69.6699 38.0616 69.6844 38.1495 69.6842C38.291 69.6846 38.4316 69.6618 38.5659 69.6165C38.6923 69.5752 38.8096 69.5093 38.9111 69.4226C39.0142 69.3331 39.0964 69.2216 39.1518 69.096C39.2073 68.9705 39.2346 68.8341 39.2318 68.6966V68.1983H39.2206Z" fill="#606060"/>
<path d="M42.1534 67.3889C42.1138 67.3004 42.0534 67.223 41.9775 67.1634C41.9004 67.1059 41.8137 67.0631 41.7214 67.0372C41.5376 66.9902 41.3457 66.9864 41.1602 67.0259C41.0766 67.0433 40.9963 67.0737 40.9219 67.1161C40.8512 67.1572 40.7916 67.2153 40.7482 67.2852C40.7014 67.3615 40.6781 67.4502 40.6814 67.54C40.6765 67.6201 40.6985 67.6995 40.7438 67.7654C40.7872 67.8251 40.8417 67.8756 40.9041 67.9142C40.97 67.9556 41.0402 67.9897 41.1134 68.0157C41.1892 68.0405 41.2604 68.063 41.325 68.0788L41.8305 68.1938C41.9405 68.2112 42.0481 68.2415 42.1512 68.284C42.2542 68.3228 42.3498 68.3793 42.434 68.4508C42.5178 68.5205 42.5861 68.6073 42.6344 68.7056C42.6901 68.8165 42.7176 68.9397 42.7146 69.0641C42.7186 69.2175 42.6784 69.3687 42.5988 69.4992C42.525 69.6183 42.4252 69.7185 42.3071 69.7923C42.1841 69.8686 42.0493 69.9235 41.9084 69.9547C41.762 69.9861 41.6127 70.002 41.4631 70.002C41.1456 70.018 40.832 69.9259 40.5723 69.7405C40.4527 69.6364 40.3564 69.5079 40.2896 69.3633C40.2228 69.2187 40.1871 69.0614 40.1848 68.9018H40.5634C40.5635 69.0146 40.5888 69.1259 40.6374 69.2274C40.686 69.3289 40.7566 69.418 40.844 69.488C41.0272 69.6251 41.251 69.695 41.4787 69.6864C41.5745 69.6856 41.67 69.675 41.7637 69.6548C41.86 69.6356 41.9525 69.6005 42.0376 69.5511C42.1193 69.5057 42.19 69.4425 42.2447 69.3662C42.3008 69.2852 42.3289 69.1877 42.3249 69.0889C42.3261 69.0101 42.3069 68.9324 42.2692 68.8634C42.2305 68.7997 42.1779 68.7457 42.1156 68.7056C42.0464 68.6603 41.9715 68.6247 41.8929 68.5996C41.8111 68.5704 41.7278 68.5455 41.6434 68.5252L41.158 68.417C41.0414 68.3869 40.9269 68.3492 40.815 68.3043C40.7166 68.2655 40.6243 68.2123 40.5411 68.1464C40.464 68.0859 40.4009 68.0089 40.3563 67.921C40.3104 67.8145 40.2883 67.699 40.2917 67.5828C40.2884 67.4395 40.3246 67.2982 40.3964 67.1747C40.4648 67.0629 40.5588 66.9694 40.6703 66.9019C40.7869 66.8309 40.9139 66.7791 41.0466 66.7486C41.1818 66.7173 41.32 66.7014 41.4586 66.7012C41.6055 66.7 41.7518 66.7205 41.8929 66.7621C42.0227 66.8001 42.1437 66.8637 42.2492 66.9492C42.3521 67.036 42.4349 67.1445 42.4919 67.2671C42.5559 67.4089 42.5907 67.5623 42.5943 67.7181H42.2158C42.221 67.6049 42.1997 67.4921 42.1534 67.3889Z" fill="#606060"/>
<path d="M45.3111 65.5698V67.3735H45.3222C45.36 67.2635 45.4182 67.1617 45.4937 67.0737C45.5685 66.9903 45.6548 66.9182 45.7498 66.8595C45.8464 66.7999 45.9516 66.7558 46.0615 66.7287C46.3802 66.6492 46.7161 66.681 47.0147 66.8189C47.1889 66.9033 47.3414 67.0276 47.4601 67.1819C47.5793 67.3399 47.667 67.5198 47.7184 67.7117C47.8312 68.1279 47.8312 68.5672 47.7184 68.9834C47.6665 69.1751 47.5789 69.355 47.4601 69.5132C47.3412 69.6661 47.1887 69.7889 47.0147 69.8717C46.8227 69.9633 46.6122 70.0081 46.4 70.0025C46.1658 70.0052 45.9352 69.9445 45.732 69.8266C45.5361 69.7126 45.3846 69.5345 45.3022 69.3216H45.2888V69.9168H44.9414V65.5698H45.3111ZM47.3576 67.8605C47.3228 67.7081 47.2618 67.5631 47.1772 67.4322C47.0957 67.3075 46.9886 67.2022 46.8632 67.1233C46.7225 67.0416 46.5622 67.001 46.4 67.006C46.2347 66.9973 46.0699 67.032 45.9217 67.1066C45.7734 67.1813 45.6467 67.2934 45.5538 67.4322C45.4669 67.5624 45.4043 67.7075 45.369 67.8605C45.292 68.1782 45.292 68.5101 45.369 68.8278C45.4038 68.9816 45.4665 69.1276 45.5538 69.2584C45.6413 69.3853 45.7564 69.4901 45.8901 69.5651C46.0471 69.6485 46.2227 69.6897 46.4 69.6846C46.5624 69.6889 46.7227 69.6475 46.8632 69.5651C46.989 69.4876 47.0963 69.3829 47.1772 69.2584C47.2622 69.1269 47.3233 68.9811 47.3576 68.8278C47.4346 68.5101 47.4346 68.1782 47.3576 67.8605Z" fill="#606060"/>
<path d="M50.324 66.8163C50.5007 66.902 50.6578 67.0241 50.785 67.1748C50.9118 67.3308 51.0078 67.5099 51.0678 67.7024C51.1955 68.1211 51.1955 68.5689 51.0678 68.9876C51.0084 69.1797 50.9124 69.3582 50.785 69.5129C50.659 69.6644 50.5016 69.786 50.324 69.8691C50.1256 69.9554 49.912 69.9998 49.6961 69.9998C49.4801 69.9998 49.2665 69.9554 49.0681 69.8691C48.8905 69.786 48.7331 69.6644 48.6071 69.5129C48.4806 69.3577 48.3846 69.1793 48.3243 68.9876C48.1966 68.5689 48.1966 68.1211 48.3243 67.7024C48.3851 67.5102 48.481 67.3312 48.6071 67.1748C48.7343 67.0241 48.8914 66.902 49.0681 66.8163C49.266 66.7282 49.4798 66.6826 49.6961 66.6826C49.9123 66.6826 50.1261 66.7282 50.324 66.8163ZM49.2106 67.1207C49.0765 67.1958 48.9602 67.2997 48.8699 67.4251C48.7784 67.5553 48.7091 67.7001 48.665 67.8535C48.62 68.0134 48.5967 68.1787 48.596 68.345C48.5967 68.5105 48.6199 68.6752 48.665 68.8343C48.7091 68.9884 48.7783 69.1339 48.8699 69.2649C48.9616 69.389 49.0776 69.4926 49.2106 69.5693C49.3575 69.6449 49.5201 69.6843 49.6849 69.6843C49.8498 69.6843 50.0123 69.6449 50.1593 69.5693C50.2928 69.4934 50.409 69.3896 50.5 69.2649C50.5915 69.1339 50.6608 68.9884 50.7048 68.8343C50.7499 68.6752 50.7732 68.5105 50.7739 68.345C50.7731 68.1787 50.7499 68.0134 50.7048 67.8535C50.6607 67.7001 50.5915 67.5553 50.5 67.4251C50.4102 67.2992 50.2938 67.1952 50.1593 67.1207C50.0123 67.0451 49.8498 67.0057 49.6849 67.0057C49.5201 67.0057 49.3575 67.0451 49.2106 67.1207Z" fill="#606060"/>
<path d="M52.0742 66.7738V67.511H52.0876C52.1688 67.2673 52.3282 67.058 52.5405 66.9166C52.7528 66.7753 53.0057 66.7099 53.2589 66.7309V67.1142C53.1 67.1051 52.9409 67.1289 52.7913 67.1841C52.656 67.234 52.5318 67.3107 52.4261 67.4096C52.3232 67.5126 52.2428 67.6362 52.19 67.7726C52.1328 67.9158 52.1041 68.069 52.1054 68.2235V69.8964H51.7268V66.7738H52.0742Z" fill="#606060"/>
<path d="M54.1097 66.7737V67.3148C54.1846 67.1257 54.3193 66.9671 54.4927 66.8638C54.6746 66.7478 54.8857 66.6875 55.1007 66.6902C55.2855 66.6842 55.4698 66.7133 55.6441 66.7759C55.7796 66.8238 55.9007 66.9061 55.9959 67.0149C56.0881 67.1245 56.1524 67.2553 56.183 67.3959C56.2203 67.5616 56.2382 67.7311 56.2364 67.901V69.9302H55.8578V67.9709C55.859 67.8452 55.8471 67.7197 55.8222 67.5966C55.8007 67.4882 55.7575 67.3854 55.6953 67.2945C55.6329 67.2074 55.5493 67.1383 55.4526 67.0938C55.3322 67.0425 55.2023 67.0179 55.0717 67.0217C54.9317 67.0189 54.7927 67.0465 54.6642 67.1028C54.5497 67.1562 54.4474 67.2329 54.3636 67.3283C54.2792 67.4286 54.2142 67.5441 54.1721 67.6687C54.1246 67.8074 54.099 67.9527 54.0964 68.0994V69.9302H53.7178V66.7737H54.1097Z" fill="#606060"/>
<path d="M21.5721 22.1879C21.7358 21.3065 22.081 20.4699 22.5853 19.7326C22.7243 19.5604 22.9212 19.4463 23.1383 19.4122C23.3553 19.3781 23.5771 19.4263 23.7611 19.5477C23.8488 19.606 23.9237 19.6817 23.9814 19.7704C24.039 19.8591 24.0781 19.9588 24.0962 20.0633C24.1144 20.1679 24.1112 20.2751 24.0869 20.3783C24.0626 20.4816 24.0176 20.5787 23.9549 20.6638C23.534 21.2725 22.9839 22.9184 23.2423 24.3704C23.5006 25.8224 23.9326 26.9925 26.3132 27.4254C27.823 27.7005 27.9722 28.8729 28.0791 29.7297C28.1994 30.6721 28.3486 31.8445 29.7872 33.1274C30.3528 33.6347 31.0788 34.0113 31.8471 34.4103C32.2279 34.6087 32.6265 34.8162 33.0207 35.0507C33.6108 33.7768 34.1007 31.5965 34.0606 30.2933C34.0073 28.6771 33.4491 27.1196 32.4662 25.8449L32.2435 25.5654L32.3125 25.2249C32.4315 24.6239 32.4845 24.0114 32.4706 23.3986C32.125 23.5095 31.7642 23.5643 31.4017 23.561C29.7849 23.5452 28.5423 22.9139 27.7005 21.897C26.2464 20.1407 26.5871 18.1882 26.6494 17.1623C26.7118 16.1364 26.7808 15.327 26.9033 14.1726C27.0926 12.3824 27.3264 10.1571 27.1483 9.36572C26.6027 6.92845 25.3667 6.96903 24.8969 6.98481C24.7902 6.99285 24.6831 6.97898 24.5819 6.94402C24.4807 6.90906 24.3876 6.85374 24.3081 6.78139C24.2285 6.70904 24.1643 6.62115 24.1192 6.52302C24.0741 6.42488 24.0491 6.31852 24.0456 6.21033C24.0421 6.10214 24.0603 5.99436 24.0991 5.89348C24.1378 5.79259 24.1963 5.70069 24.2711 5.62328C24.3458 5.54588 24.4352 5.48458 24.534 5.44308C24.6327 5.40157 24.7387 5.38071 24.8456 5.38176C26.0081 5.34343 28.068 5.7673 28.7984 9.02527C29.0211 10.0602 28.7984 12.2291 28.5757 14.3259C28.4555 15.4758 28.353 16.31 28.3308 17.2389C28.3085 18.1679 28.1615 19.8791 29.0278 20.9027C29.5712 21.5476 30.3751 21.8948 31.4997 21.9557C31.9072 21.9805 32.8046 21.5724 33.2812 20.7449C33.5673 20.1039 33.7052 19.4053 33.6843 18.7022C33.6483 17.6576 33.2681 16.6552 32.6042 15.8546L32.1922 15.3496L32.6198 14.8535C33.4038 13.9597 33.8226 12.7973 33.7912 11.6023C33.7591 10.611 33.415 9.6559 32.8091 8.87646L32.4305 8.38495L32.8291 7.90471C33.5778 7.01409 33.9745 5.87444 33.9426 4.70537C33.8535 1.86451 31.9161 -0.0609558 29.2304 0.0247208C27.3754 0.0833416 25.988 0.86345 25.222 2.67844C23.3447 2.1734 21.1489 3.82606 20.659 5.46518C20.1513 7.16519 20.4608 9.20113 22.5853 11.7782C22.8884 12.147 23.223 12.488 23.5852 12.7973C23.6666 12.8643 23.7333 12.9477 23.7811 13.0421C23.829 13.1366 23.857 13.2401 23.8632 13.3461C23.8695 13.4521 23.854 13.5582 23.8176 13.6578C23.7813 13.7574 23.7249 13.8483 23.652 13.9246C23.4938 14.0917 23.277 14.1889 23.0485 14.1952C22.8357 14.2025 22.6275 14.1311 22.4628 13.9945C22.0263 13.6224 21.6232 13.212 21.2581 12.768C20.0319 11.2433 19.2513 9.40177 19.0044 7.45153C15.7954 9.67235 15.3835 13.7645 16.8443 16.0057C14.9804 18.8691 17.8932 22.3638 21.5721 22.1879Z" fill="#606060"/>
<path d="M31.0322 35.824C30.1553 35.4534 29.3438 34.9409 28.6294 34.3067C26.7476 32.6247 26.5427 31.0059 26.4024 29.9349C26.2933 29.0624 26.2577 29.0578 25.986 29.0082C24.6165 28.758 23.6722 28.3093 23.0153 27.7389C22.273 28.0713 21.4748 28.2572 20.6637 28.2868C19.286 28.3116 17.9278 27.9553 16.7354 27.2564C16.6453 27.2012 16.5676 27.1277 16.507 27.0405C16.4464 26.9534 16.4043 26.8545 16.3834 26.75C16.3625 26.6456 16.3631 26.5379 16.3854 26.4337C16.4077 26.3296 16.451 26.2312 16.5127 26.1448C16.6458 25.9679 16.8388 25.847 17.0546 25.8054C17.2704 25.7638 17.4938 25.8044 17.6818 25.9194C17.7731 25.978 19.8041 27.2158 22.0355 26.4019C21.6342 25.5977 21.4237 24.7099 21.4208 23.809C17.8778 23.9082 14.5998 21.7798 14.4572 18.2378C9.8787 25.0513 15.3347 31.4342 21.5567 33.2402C23.2313 33.725 24.4517 35.425 24.4517 37.1949C24.4522 37.6361 24.3769 38.074 24.229 38.489C24.9934 38.6356 25.7375 38.8756 26.4448 39.2037C26.3258 38.4433 26.316 37.6695 26.4158 36.9063C26.4586 36.6903 26.582 36.4994 26.7604 36.3734C26.9388 36.2473 27.1584 36.1959 27.3734 36.2299C27.4789 36.2408 27.5813 36.2729 27.6745 36.3244C27.7676 36.3758 27.8497 36.4456 27.9158 36.5296C27.982 36.6136 28.0309 36.7101 28.0598 36.8135C28.0886 36.9169 28.0968 37.0251 28.0838 37.1317C28.0838 37.1543 27.6985 39.7043 28.8097 40.897C29.5256 41.6946 29.9955 42.6868 30.1615 43.7514C30.1732 43.8587 30.1638 43.9672 30.1338 44.0708C30.1038 44.1744 30.0537 44.2709 29.9866 44.3548C29.9195 44.4386 29.8367 44.5082 29.7428 44.5594C29.649 44.6107 29.546 44.6426 29.44 44.6532C29.4096 44.6555 29.379 44.6555 29.3487 44.6532C29.1488 44.666 28.9512 44.6043 28.7933 44.4796C28.6353 44.355 28.5279 44.1762 28.4913 43.9768C27.9925 40.5565 24.5251 40.0808 23.3003 39.9568C22.5777 40.6611 21.6998 41.1812 20.7394 41.4742C20.5324 41.5442 20.3071 41.533 20.1079 41.4428C19.9087 41.3527 19.7502 41.19 19.6638 40.9872C19.6286 40.8857 19.6142 40.7781 19.6213 40.6709C19.6285 40.5636 19.6571 40.459 19.7054 40.3633C19.7537 40.2675 19.8208 40.1828 19.9024 40.1141C19.9841 40.0453 20.0786 39.9941 20.1804 39.9636C21.8595 39.3954 22.777 38.4169 22.7659 37.2106C22.7659 36.1419 21.9909 35.0642 21.0222 34.7621C17.5549 33.6754 15.0095 31.9009 13.4373 29.4817C11.4019 34.8658 15.8112 37.1475 18.6305 36.8161C18.8457 36.7866 19.0639 36.8427 19.2391 36.9726C19.4143 37.1025 19.533 37.2961 19.5703 37.5128C19.5816 37.6212 19.5714 37.7309 19.5403 37.8353C19.5092 37.9397 19.4578 38.0367 19.3892 38.1208C19.3205 38.2048 19.2359 38.2741 19.1405 38.3245C19.045 38.375 18.9405 38.4056 18.8331 38.4146C18.6104 38.4417 18.3878 38.4575 18.1651 38.4642C17.2889 38.4923 16.4149 38.3617 15.5841 38.0787C14.916 41.0548 17.9268 46.015 23.4184 43.9746C24.1065 47.8751 29.7851 49.6788 33.0587 45.9744C36.2744 42.3309 34.0408 37.0979 31.0322 35.824Z" fill="#606060"/>
<path d="M35.0895 11.1494C35.0968 11.349 35.1176 11.5479 35.1519 11.7446C35.6953 11.0071 36.319 10.334 37.0113 9.73797L37.5658 9.28704C39.3474 7.8621 40.2381 7.14738 40.0778 4.75069C40.0788 4.54073 40.1586 4.33902 40.301 4.18642C40.4435 4.03382 40.6379 3.94174 40.8449 3.92884C41.0518 3.91594 41.2559 3.98319 41.4158 4.11695C41.5756 4.25071 41.6792 4.44099 41.7057 4.64923C41.9106 7.82377 40.5276 8.93306 38.6169 10.4707L38.0758 10.9126C37.2016 11.6691 36.4567 12.5665 35.8712 13.5686V13.5866L35.7019 13.9361C35.386 14.5794 35.2281 15.2905 35.2417 16.0088C35.2553 16.7271 35.4399 17.4315 35.7798 18.0621L35.9424 18.371L35.8088 18.6934C35.4906 19.4508 35.3236 20.2646 35.3175 21.0876C35.3114 21.9107 35.4662 22.7269 35.7732 23.4891C36.4032 22.6886 37.1941 22.033 38.0936 21.5658C39.4298 20.8511 40.9886 20.5174 42.1444 20.664C42.9527 19.7363 43.9398 18.9856 45.0449 18.4579C46.1501 17.9302 47.3501 17.6367 48.5713 17.5954H48.6336C50.0767 17.5503 52.9115 17.9652 54.1675 19.6787C54.7153 16.5808 53.6219 14.0421 50.4352 13.3657C51.0543 10.8157 49.462 8.44154 47.9856 7.62762C47.5141 9.06238 46.589 10.3 45.3534 11.1494C45.7342 11.6725 46.645 13.0748 46.665 14.5719C46.661 14.7817 46.5759 14.9815 46.4282 15.1285C46.2804 15.2756 46.0817 15.3582 45.8745 15.3588H45.8589C45.6497 15.368 45.4454 15.293 45.2906 15.1502C45.1358 15.0075 45.0431 14.8085 45.0327 14.5967C45.0216 13.5416 44.3134 12.4548 44.0261 12.0557C42.7056 12.9373 41.483 13.8865 40.7036 16.2787C40.6475 16.4368 40.5453 16.5739 40.4105 16.6718C40.2756 16.7696 40.1145 16.8236 39.9486 16.8266C39.8591 16.8297 39.7696 16.8182 39.6836 16.7928C39.5842 16.7673 39.4909 16.7218 39.4093 16.6587C39.3278 16.5957 39.2598 16.5166 39.2094 16.4261C39.159 16.3356 39.1273 16.2358 39.1161 16.1325C39.105 16.0293 39.1148 15.9248 39.1447 15.8255C40.1557 12.7254 41.8905 11.58 43.4226 10.5677C44.7232 9.70865 45.8522 8.95786 46.478 7.02112L46.6027 6.37629C46.6784 5.995 46.7106 5.60614 46.6984 5.2174C46.6071 2.2345 43.9771 -0.110329 40.8394 -0.0111248C37.7017 0.0880796 35.2231 2.59975 35.3166 5.58265C35.3408 6.34025 35.5317 7.08283 35.8756 7.75613L36.0671 8.13717L35.8333 8.49791C35.3209 9.2828 35.0611 10.209 35.0895 11.1494Z" fill="#606060"/>
<path d="M54.6554 30.3002C54.1882 30.8654 53.6845 31.3986 53.1478 31.8965C52.9877 32.0393 52.7809 32.1166 52.5676 32.1133C52.3542 32.1099 52.1498 32.0262 51.9942 31.8784C51.921 31.8069 51.8632 31.7207 51.8246 31.6254C51.786 31.53 51.7673 31.4276 51.7698 31.3246C51.7723 31.2216 51.796 31.1202 51.8392 31.0269C51.8824 30.9336 51.9443 30.8505 52.021 30.7827C52.6381 30.2071 53.2051 29.5787 53.7156 28.9046L53.7023 28.8888L53.9962 28.4378C54.7815 27.2178 55.1071 25.7526 54.9138 24.3096C54.7204 22.8666 54.0209 21.5422 52.9429 20.5781C52.8872 20.5263 52.836 20.4722 52.7759 20.4226L52.7158 20.3662C51.7159 19.5568 50.2149 19.1104 48.6338 19.1577C47.5642 19.197 46.5159 19.4725 45.5623 19.9647C44.6088 20.457 43.773 21.1542 43.1133 22.0076L42.7525 22.4653L42.1802 22.2601C41.6702 22.0797 40.3118 22.1632 38.8933 22.9185C38.2465 23.254 37.6763 23.7229 37.2191 24.2948C36.762 24.8668 36.4281 25.5292 36.2388 26.2396C35.5061 28.9947 37.6017 30.6 38.3432 31.1321C38.704 31.3914 38.8732 31.8085 38.6528 32.1851C38.5803 32.3047 38.4793 32.4039 38.3591 32.4737C38.2388 32.5434 38.1032 32.5814 37.9646 32.5841C37.8199 32.5887 37.6764 32.5553 37.5482 32.4872C36.6953 32.0098 35.967 31.3335 35.4237 30.5144C35.2245 31.1202 35.1303 31.7564 35.1454 32.3947C35.1872 33.6336 35.6345 34.8233 36.4169 35.7767L36.6508 36.0698C37.386 36.8371 38.1846 37.5394 39.038 38.1689C39.3943 38.444 39.7061 38.692 39.9555 38.9039C42.2292 40.8722 41.7838 43.2757 41.2315 44.2722C41.1588 44.3966 41.0556 44.4999 40.932 44.5722C40.8083 44.6445 40.6684 44.6833 40.5256 44.6848C40.3852 44.6895 40.2458 44.6585 40.1203 44.5946C40.0278 44.5521 39.9451 44.4907 39.8772 44.4142C39.8092 44.3377 39.7577 44.2479 39.7257 44.1503C39.6937 44.0527 39.682 43.9495 39.6912 43.8471C39.7005 43.7447 39.7306 43.6453 39.7796 43.5552C39.882 43.3613 40.7038 41.6591 38.8443 40.0493C38.6216 39.8531 38.3232 39.6231 37.9958 39.3729C37.428 38.9219 36.7465 38.3966 36.1185 37.8104C36.0848 38.0342 36.0699 38.2605 36.074 38.4868C36.0921 39.0834 36.2444 39.6679 36.5194 40.1958L36.7109 40.5611L36.4882 40.9173C36.0438 41.6646 35.8212 42.5255 35.8468 43.3974C35.9292 46.0263 38.243 48.0916 41.0066 48.0014C41.9307 47.9876 42.8331 47.7154 43.614 47.2148C44.3949 46.7143 45.0239 46.0049 45.4315 45.1651L45.5718 44.8652L45.8969 44.7525C46.7845 44.4425 47.5503 43.8521 48.0815 43.0682C47.3923 42.996 46.7275 42.7696 46.1352 42.4054C45.6007 42.085 45.1471 41.6433 44.8101 41.1151C44.4731 40.5869 44.262 39.9866 44.1933 39.3616C44.0775 38.214 44.4272 36.9311 44.808 35.93C44.139 36.1517 43.4426 36.2777 42.7392 36.3043C42.1394 36.3383 41.5387 36.2572 40.9688 36.0653C40.8721 36.0312 40.7834 35.9774 40.7081 35.9073C40.6328 35.8372 40.5724 35.7522 40.5307 35.6576C40.4889 35.563 40.4668 35.4608 40.4655 35.3572C40.4643 35.2536 40.484 35.1508 40.5234 35.0552C40.6142 34.8612 40.7744 34.7093 40.9715 34.6302C41.1687 34.5511 41.3882 34.5507 41.5856 34.6291C42.4964 34.9786 45.3714 34.6629 46.3601 32.8975C47.3712 31.069 47.6384 30.1175 47.2509 29.1999C47.1155 28.8621 46.8978 28.5644 46.6183 28.3346C46.3387 28.1048 46.0063 27.9503 45.652 27.8855C45.135 27.8008 44.6058 27.8353 44.1038 27.9864C43.6018 28.1375 43.1399 28.4012 42.7525 28.758C42.5916 28.9001 42.384 28.9761 42.1706 28.9711C41.9571 28.9661 41.7532 28.8805 41.599 28.7309C41.5263 28.6588 41.4692 28.5721 41.4313 28.4764C41.3934 28.3808 41.3756 28.2782 41.3789 28.1751C41.3823 28.0721 41.4067 27.9709 41.4507 27.878C41.4948 27.785 41.5574 27.7023 41.6346 27.6352C42.6384 26.7314 43.9439 26.2478 45.2868 26.2824C45.5149 25.3487 45.5278 24.3744 45.3246 23.4348C45.3011 23.3333 45.2981 23.228 45.3158 23.1253C45.3334 23.0225 45.3713 22.9245 45.4272 22.8369C45.4832 22.7494 45.5559 22.6741 45.6412 22.6157C45.7265 22.5573 45.8226 22.5168 45.9236 22.4968C46.1282 22.4437 46.3451 22.473 46.5287 22.5786C46.7123 22.6842 46.8482 22.8577 46.908 23.0628C47.1694 24.2415 47.1572 25.4655 46.8723 26.6386C47.7412 27.0239 48.4297 27.7338 48.7942 28.6205C49.5803 30.5256 48.6383 32.2685 47.0393 34.9515C47.0393 34.9515 45.6542 37.4316 45.8346 39.197C45.8735 39.588 46.0037 39.964 46.2143 40.2941C46.4249 40.6241 46.71 40.8988 47.046 41.0954C51.5377 43.7289 56.8667 36.3471 54.6554 30.3002Z" fill="#606060"/>
</g>
<defs>
<clipPath id="clip0_136_2805">
<rect width="68.1081" height="70" fill="white"/>
</clipPath>
</defs>
</svg>
