<svg width="74" height="70" viewBox="0 0 74 70" fill="none" xmlns="http://www.w3.org/2000/svg">
<g clip-path="url(#clip0_136_2934)">
<path d="M31.9886 19.8393C31.9886 19.8393 18.7577 12.7502 15.9364 22.9548C13.1151 33.1594 23.9625 47.0963 23.9625 47.0963C23.9625 47.0963 18.1063 49.3754 13.0068 37.114C7.9074 24.8526 15.0522 6.47335 31.9886 19.8393Z" fill="#606060"/>
<path d="M28.0177 27.046C28.0177 27.046 25.0269 23.0607 22.881 24.4144C20.735 25.768 21.9009 36.0339 27.9976 41.0711L27.5838 41.3748C27.5838 41.3748 23.3178 38.5535 21.8875 34.4657C20.4572 30.3779 18.4157 23.1853 23.2709 22.6057C28.126 22.0261 28.0177 27.046 28.0177 27.046Z" fill="#606060"/>
<path d="M50.3218 42.8915C50.173 42.9518 50.0183 42.9961 49.8601 43.0237C48.6961 43.2613 47.5465 42.7181 46.8127 41.7974L46.6546 41.5972L46.5061 41.3874C45.9812 40.5683 45.1649 40.1928 44.2405 40.5913C43.3716 40.9592 42.6808 41.6116 41.9029 42.0992C41.3607 42.445 40.7409 42.7583 40.1057 42.6922C37.887 42.3847 38.7358 39.3756 37.0325 38.6686C35.7258 38.1896 33.7753 39.4982 32.6928 40.1593C32.3824 40.3576 32.0787 40.5635 31.7759 40.7705C31.0315 41.3172 30.1056 41.5572 29.1894 41.4411C30.8927 36.3637 30.6369 29.6289 28.5092 25.3639C27.4046 23.1442 25.3756 21.3758 22.7324 22.0263C20.0759 22.6547 19.4455 25.5249 19.6142 27.8768C19.96 32.1973 21.9699 36.7545 24.9387 39.9111C25.6946 40.7044 26.6468 41.4439 27.6882 41.8923C27.3734 42.6717 26.9795 43.4167 26.5127 44.1158C25.7176 45.2654 24.6456 46.3192 23.2756 46.6286C16.8772 48.0714 6.38899 24.7403 16.7354 17.3982C22.4834 13.3152 31.2922 19.2356 31.9915 19.8392C33.1545 18.8352 34.4823 17.9634 35.9049 17.3915C37.9914 16.5226 40.3778 16.3913 42.2153 17.7747C43.4066 18.6342 44.2921 19.852 44.7425 21.2503C45.9218 25.02 44.1293 29.0321 41.8503 32.0527C41.0383 33.1196 40.146 34.123 39.1813 35.0541C39.0093 35.2213 38.9107 35.4499 38.9073 35.6898C38.9039 35.9296 38.9959 36.161 39.1631 36.333C39.3303 36.505 39.5589 36.6036 39.7988 36.607C40.0386 36.6104 40.27 36.5184 40.442 36.3512C44.5039 32.3956 48.2449 26.5796 46.463 20.6937C45.8629 18.8366 44.6569 17.2345 43.0382 16.1442C39.5683 13.7654 35.1318 15.2331 32.0011 17.5227C28.0024 14.5433 22.8311 12.2317 17.7767 13.2903C16.0516 13.6748 14.4391 14.4543 13.0662 15.5674C8.78399 18.8907 8.4209 24.9558 9.41722 29.8771C10.5668 35.7553 14.1727 43.5544 19.2396 46.9869C20.2263 47.6259 21.4679 48.1471 22.7008 48.0656C24.7356 47.8951 26.4706 46.4696 27.5684 44.84C28.1026 44.03 28.5478 43.1647 28.8962 42.2592C29.6755 42.4057 30.4805 42.3242 31.2146 42.0245C31.9321 41.7515 32.5059 41.2581 33.143 40.8538C33.731 40.4604 34.3438 40.1056 34.9776 39.7914C35.5083 39.5538 36.2172 39.2271 36.7537 39.4082C37.2892 39.6391 37.4128 40.4256 37.6082 40.9592C37.718 41.3279 37.8607 41.6861 38.0346 42.0293C38.4005 42.7717 39.1841 43.358 40.031 43.4279C41.262 43.5372 42.2775 42.7344 43.1991 42.0638C43.7251 41.6959 44.3056 41.2016 44.9235 41.1288C45.3498 41.0741 45.7091 41.4162 45.9438 41.7725C46.0271 41.8932 46.1977 42.1174 46.2935 42.2305C47.3041 43.4893 49.0228 44.112 50.5748 43.4758C50.9694 43.2871 50.6916 42.7344 50.3218 42.8915ZM23.1147 35.8588C21.5359 32.936 20.1899 29.1068 20.7331 25.774C20.9534 24.5036 21.6739 23.332 22.9796 23.0542C25.093 22.5436 26.643 24.0869 27.5157 25.8678C29.471 29.8799 29.6482 36.3263 27.9947 41.0761C25.8574 40.1257 24.2221 37.8064 23.1166 35.8578L23.1147 35.8588Z" fill="#606060"/>
<path d="M32.1045 11.7192C40.0261 13.2386 41.4363 2.82131 40.5684 0C40.5684 0 33.0807 2.82131 32.1045 8.57217C32.1045 8.57217 30.1712 2.38733 23.2708 2.60384C23.2708 2.60384 24.1828 10.1998 32.1045 11.7192Z" fill="#606060"/>
<path d="M43.7154 25.6206C43.7154 25.6206 44.4722 21.8499 42.4106 19.8832C39.3747 16.9881 36.6626 19.3151 36.6626 19.3151C39.7847 19.2289 42.9672 21.1592 43.7154 25.6206Z" fill="#606060"/>
<path d="M2.18519 61.9412L1.2272 64.8373H0L3.1317 55.6328H4.5687L7.71093 64.8401H6.43392L5.45006 61.9412H2.18519ZM5.20481 61.012L4.30333 58.3621C4.09832 57.7605 3.96132 57.2126 3.82433 56.6818H3.8023C3.6653 57.2279 3.5149 57.7883 3.33767 58.3487L2.43619 61.012H5.20481Z" fill="#606060"/>
<path d="M10.4221 55.7395C11.1765 55.6172 11.9398 55.5579 12.7041 55.5622C13.8786 55.5622 14.7389 55.8353 15.2907 56.3286C15.7955 56.7664 16.0963 57.4351 16.0963 58.2552C16.0963 59.0752 15.8501 59.7439 15.3865 60.2219C14.758 60.8925 13.733 61.2326 12.5719 61.2326C12.2504 61.2431 11.9289 61.2158 11.6139 61.1512V64.8395H10.4221V55.7395ZM11.611 60.1788C11.9337 60.2518 12.2642 60.284 12.5949 60.2746C14.0319 60.2746 14.9027 59.5782 14.9027 58.3079C14.9027 57.0922 14.0405 56.5049 12.7309 56.5049C12.3552 56.4946 11.9795 56.5268 11.611 56.6007V60.1788Z" fill="#606060"/>
<path d="M19.0557 55.7394C19.8088 55.6173 20.5708 55.558 21.3338 55.5622C22.5093 55.5622 23.3695 55.8352 23.9204 56.3286C24.4262 56.7664 24.727 57.4351 24.727 58.2552C24.727 59.0752 24.4808 59.7439 24.0162 60.2219C23.3877 60.8925 22.3636 61.2326 21.2025 61.2326C20.8811 61.2431 20.5596 61.2158 20.2445 61.1512V64.8395H19.0557V55.7394ZM20.2445 60.1788C20.5669 60.2518 20.8971 60.284 21.2275 60.2746C22.6644 60.2746 23.5362 59.5781 23.5362 58.3078C23.5362 57.0921 22.674 56.5049 21.3644 56.5049C20.9887 56.4946 20.613 56.5267 20.2445 56.6007V60.1788Z" fill="#606060"/>
<path d="M27.689 55.6328H28.8769V63.8429H32.8114V64.8401H27.689V55.6328Z" fill="#606060"/>
<path d="M40.2694 60.5186H36.6903V63.8381H40.6794V64.8353H35.5015V55.6328H40.4744V56.6301H36.6903V59.5395H40.2694V60.5186Z" fill="#606060"/>
<path d="M47.6451 63.6073C48.1211 63.9055 48.6682 64.0709 49.2296 64.0863C50.1043 64.0863 50.5143 63.6485 50.5143 63.1025C50.5143 62.5277 50.1723 62.2144 49.2843 61.8868C48.0963 61.4633 47.5359 60.8071 47.5359 60.0148C47.5359 58.9495 48.3981 58.0749 49.8169 58.0749C50.386 58.0689 50.9471 58.2101 51.4455 58.4849L51.1456 59.3596C50.739 59.1088 50.2707 58.9762 49.7929 58.9764C49.0821 58.9764 48.6865 59.3854 48.6865 59.8778C48.6865 60.4239 49.0821 60.6701 49.9434 60.9977C51.093 61.4346 51.6783 62.0084 51.6783 62.9923C51.6783 64.1534 50.7768 64.9725 49.2057 64.9725C48.4814 64.9725 47.8118 64.7952 47.3481 64.5222L47.6451 63.6073Z" fill="#606060"/>
<path d="M55.9232 56.3675C55.9366 56.7776 55.6358 57.1052 55.1568 57.1052C55.0601 57.1065 54.9642 57.0883 54.8749 57.0515C54.7855 57.0147 54.7045 56.9602 54.6368 56.8913C54.5691 56.8223 54.5161 56.7404 54.481 56.6504C54.4459 56.5603 54.4294 56.4641 54.4325 56.3675C54.4299 56.2682 54.4475 56.1693 54.4843 56.077C54.5211 55.9847 54.5763 55.9009 54.6466 55.8306C54.7169 55.7603 54.8007 55.7051 54.8931 55.6683C54.9854 55.6315 55.0842 55.6138 55.1836 55.6165C55.6367 55.6165 55.9232 55.9441 55.9232 56.3675ZM54.582 64.8372V58.227H55.7842V64.8372H54.582Z" fill="#606060"/>
<path d="M64.8431 58.2251C64.8163 58.7041 64.7885 59.2358 64.7885 60.0453V63.8811C64.7885 65.3967 64.4877 66.3259 63.8458 66.8998C63.204 67.5005 62.2747 67.6921 61.4422 67.6921C60.6499 67.6921 59.7753 67.5005 59.2388 67.146L59.5396 66.2302C60.1263 66.5773 60.797 66.7569 61.4786 66.7494C62.7087 66.7494 63.6102 66.1075 63.6102 64.4406V63.7029H63.5824C63.2135 64.318 62.5037 64.8094 61.4748 64.8094C59.8356 64.8094 58.6611 63.4165 58.6611 61.5858C58.6611 59.346 60.123 58.0747 61.6395 58.0747C62.7891 58.0747 63.4147 58.6763 63.7021 59.2243H63.7289L63.7835 58.227L64.8431 58.2251ZM63.5977 60.8347C63.6043 60.6498 63.581 60.4651 63.5287 60.2877C63.3103 59.5912 62.723 59.0174 61.8484 59.0174C60.6988 59.0174 59.8816 59.9878 59.8816 61.5178C59.8816 62.8149 60.5379 63.8945 61.835 63.8945C62.2072 63.8925 62.5691 63.7724 62.8687 63.5515C63.1682 63.3306 63.3899 63.0204 63.5019 62.6654C63.5669 62.4574 63.5992 62.2406 63.5977 62.0226V60.8347Z" fill="#606060"/>
<path d="M68.0668 60.0146C68.0668 59.3316 68.0534 58.7692 68.0122 58.2251H69.0775L69.1465 59.3182H69.1733C69.5009 58.6897 70.2664 58.0728 71.3594 58.0728C72.2743 58.0728 73.695 58.6198 73.695 60.8874V64.8353H72.4909V61.0253C72.4909 59.96 72.0952 59.072 70.9581 59.072C70.1658 59.072 69.5508 59.6324 69.3457 60.302C69.288 60.4828 69.2605 60.6718 69.2643 60.8615V64.8372H68.062L68.0668 60.0146Z" fill="#606060"/>
<path d="M9.08463 68.0007H8.31152V67.6348H10.2907V68.0007H9.51764V69.9665H9.08463V68.0007Z" fill="#606060"/>
<path d="M13.6791 69.4282H12.5133L12.2833 69.9675H11.8369L12.8907 67.6357H13.317L14.3708 69.9675H13.9177L13.6791 69.4282ZM13.5354 69.0881L13.0948 68.0678L12.6589 69.0871L13.5354 69.0881Z" fill="#606060"/>
<path d="M17.8849 68.7737H18.2949V69.7029C18.0323 69.9011 17.7109 70.0056 17.3819 69.9999C16.6596 69.9999 16.126 69.497 16.126 68.8005C16.126 68.104 16.6596 67.6011 17.3886 67.6011C17.7785 67.6011 18.1052 67.7314 18.3246 67.9843L18.0516 68.2506C17.9688 68.164 17.8689 68.0956 17.7582 68.0497C17.6475 68.0039 17.5285 67.9816 17.4087 67.9843C16.9125 67.9843 16.5628 68.3205 16.5628 68.8034C16.5628 69.2862 16.9144 69.6196 17.4059 69.6196C17.5735 69.6229 17.7389 69.5812 17.8849 69.4989V68.7737Z" fill="#606060"/>
<path d="M20.5327 67.6348H20.9657V69.6006H22.1853V69.9665H20.5327V67.6348Z" fill="#606060"/>
<path d="M24.1943 67.6348H24.6274V69.9665H24.1943V67.6348Z" fill="#606060"/>
<path d="M28.9977 67.6348V69.9665H28.6413L27.3557 68.3878V69.9665H26.9255V67.6348H27.2819L28.5685 69.2135V67.6348H28.9977Z" fill="#606060"/>
<path d="M33.0367 69.6035V69.9665H31.2874V67.6348H32.9897V67.9978H31.7204V68.6043H32.847V68.9606H31.7204V69.6035H33.0367Z" fill="#606060"/>
<path d="M39.8431 67.6348V69.9665H39.4101V68.9673H38.204V69.9665H37.771V67.6348H38.204V68.5976H39.4101V67.6348H39.8431Z" fill="#606060"/>
<path d="M43.885 69.6035V69.9665H42.1357V67.6348H43.8381V67.9978H42.5688V68.6043H43.6954V68.9606H42.5688V69.6035H43.885Z" fill="#606060"/>
<path d="M47.5597 69.9665L47.0807 69.2835C47.0507 69.2854 47.0207 69.2854 46.9907 69.2835H46.4647V69.9627H46.0308V67.6348H46.9888C47.6019 67.6348 47.9812 67.948 47.9812 68.4644C47.9883 68.624 47.9439 68.7817 47.8546 68.9142C47.7652 69.0466 47.6357 69.1469 47.485 69.2001L48.0215 69.9665H47.5597ZM46.9734 68.0007H46.4676V68.9309H46.9734C47.3566 68.9309 47.5482 68.7575 47.5482 68.4644C47.5482 68.1712 47.3538 68.0007 46.9734 68.0007Z" fill="#606060"/>
<path d="M51.8843 69.6035V69.9665H50.136V67.6348H51.8384V67.9978H50.569V68.6043H51.6947V68.9606H50.569V69.6035H51.8843Z" fill="#606060"/>
</g>
<defs>
<clipPath id="clip0_136_2934">
<rect width="73.695" height="70" fill="white"/>
</clipPath>
</defs>
</svg>
