<svg width="55" height="70" viewBox="0 0 55 70" fill="none" xmlns="http://www.w3.org/2000/svg">
<g clip-path="url(#clip0_136_2836)">
<path d="M14.9854 62.5767C14.4482 62.8584 13.8626 63.0362 13.2595 63.1006C12.7251 63.1606 12.1879 63.1929 11.6502 63.1975C10.7761 63.2144 9.91988 62.9488 9.20878 62.4402C8.51165 61.9353 8.16236 61.1017 8.16089 59.9393C8.16089 58.8547 8.47789 58.0791 9.11192 57.6124C9.83274 57.1126 10.6634 56.7939 11.5335 56.6834C11.6908 56.6799 11.8472 56.66 12.0002 56.6239C12.1808 56.5865 12.3877 56.5535 12.6211 56.5271C13.757 56.3803 14.325 56.0442 14.325 55.5188C14.3332 55.3415 14.2768 55.1673 14.1663 55.0284C14.0557 54.8895 13.8986 54.7955 13.724 54.7637C13.3671 54.6542 12.9965 54.5956 12.6233 54.5898C12.2931 54.584 11.9645 54.6362 11.6524 54.7439C11.5144 54.7927 11.3881 54.8695 11.2812 54.9696C11.1744 55.0696 11.0894 55.1906 11.0316 55.3251H8.43387C8.52337 54.5478 8.91377 53.8366 9.52139 53.3437C10.2193 52.7493 11.2121 52.4521 12.5066 52.4521C13.9537 52.4521 15.039 52.698 15.7625 53.1896C16.1213 53.4254 16.4129 53.7501 16.6089 54.132C16.8049 54.514 16.8986 54.9402 16.8809 55.3691V58.8914C16.8809 59.9188 16.693 60.726 16.3173 61.313C15.997 61.848 15.5364 62.285 14.9854 62.5767ZM14.3646 57.8061C13.8808 58.03 13.3735 58.199 12.8522 58.3102L11.9606 58.5062C11.5881 58.5873 11.2416 58.7598 10.9523 59.0081C10.782 59.261 10.688 59.5575 10.6816 59.8623C10.6737 60.0329 10.7005 60.2034 10.7602 60.3635C10.82 60.5235 10.9116 60.6698 11.0294 60.7935C11.3172 61.014 11.6762 61.1206 12.0377 61.0929C12.3501 61.1208 12.6648 61.0799 12.9597 60.973C13.2545 60.8661 13.5223 60.6958 13.7442 60.4741C13.9661 60.2524 14.1367 59.9848 14.2439 59.69C14.351 59.3953 14.3923 59.0806 14.3646 58.7682V57.8061Z" fill="#606060"/>
<path d="M17.4377 59.5915H20.0795C20.0778 59.8174 20.1295 60.0404 20.2305 60.2425C20.3315 60.4445 20.479 60.6197 20.6607 60.7539C21.1287 61.0329 21.6685 61.1677 22.2127 61.1413C22.6297 61.1524 23.0428 61.0593 23.4147 60.8705C23.5534 60.8034 23.6705 60.6987 23.7526 60.5683C23.8347 60.4379 23.8786 60.2871 23.8792 60.1331C23.8792 59.6678 23.3369 59.3193 22.2523 59.0874C21.8981 59.034 21.5479 58.956 21.2045 58.854C19.8351 58.5194 18.9171 58.1165 18.4526 57.652C18.1948 57.4177 17.9916 57.1297 17.8573 56.8082C17.7231 56.4868 17.661 56.1398 17.6755 55.7918C17.6661 55.3259 17.7624 54.864 17.9573 54.4407C18.1521 54.0175 18.4404 53.6439 18.8005 53.3481C19.5754 52.7537 20.5836 52.4565 21.8253 52.4565C23.1682 52.4565 24.241 52.7537 25.0438 53.3481C25.4103 53.66 25.7068 54.0458 25.9139 54.4802C26.121 54.9145 26.2341 55.3877 26.2458 55.8688H24.5771C24.3469 55.8751 24.1195 55.8164 23.921 55.6997C23.7225 55.5829 23.5608 55.4126 23.4543 55.2084C23.3487 55.1071 23.2452 55.0036 23.1439 54.9002C22.7663 54.6472 22.3165 54.5243 21.8627 54.5501C21.4615 54.5244 21.0605 54.6049 20.7003 54.7835C20.5862 54.859 20.4939 54.9633 20.4328 55.0858C20.3718 55.2083 20.3441 55.3447 20.3525 55.4814C20.3525 55.8952 21.0239 56.2438 22.3668 56.5271C22.5002 56.5739 22.6362 56.6129 22.7741 56.6437C22.8824 56.6692 22.9931 56.6825 23.1043 56.6834C24.4252 57.018 25.3388 57.4076 25.8583 57.8457C26.105 58.0866 26.298 58.3768 26.4247 58.6973C26.5514 59.0179 26.609 59.3616 26.5936 59.706C26.5936 60.8449 26.1805 61.7255 25.3542 62.3477C24.5778 62.9157 23.414 63.2004 21.8627 63.2019C20.395 63.2019 19.2943 62.904 18.5605 62.3081C17.812 61.721 17.4377 60.8551 17.4377 59.7104V59.5915Z" fill="#606060"/>
<path d="M31.9852 63.0015C31.0601 63.0533 30.1325 63.0408 29.2091 62.9641C28.2141 62.8863 27.7166 62.253 27.7166 61.0642V49.665H29.1123C29.2794 49.6656 29.4447 49.7002 29.598 49.7668C29.7513 49.8334 29.8894 49.9307 30.0039 50.0525C30.1284 50.1732 30.227 50.318 30.2936 50.4782C30.3602 50.6383 30.3935 50.8103 30.3913 50.9837V52.7273H31.9808V53.271C31.9869 53.4476 31.9555 53.6234 31.8887 53.787C31.822 53.9505 31.7213 54.0981 31.5933 54.2199C31.4703 54.3401 31.3247 54.4347 31.1648 54.4982C31.005 54.5617 30.8341 54.5928 30.6621 54.5897H30.3913V60.3267C30.3913 60.767 30.6489 60.9872 31.1684 60.9872H31.9808L31.9852 63.0015Z" fill="#606060"/>
<path d="M32.6148 63.0016V58.0109C32.5872 57.1429 32.7371 56.2785 33.0551 55.4704C33.3201 54.8284 33.7399 54.262 34.2769 53.8215C34.788 53.424 35.3744 53.1342 36.0006 52.9695C36.6642 52.7885 37.3492 52.6975 38.037 52.6987H38.4244V55.4506H37.5329C36.7829 55.4506 36.2274 55.6318 35.8663 55.9943C35.5053 56.3568 35.3241 56.9256 35.3226 57.7005V63.0104L32.6148 63.0016Z" fill="#606060"/>
<path d="M45.6915 62.5767C45.1543 62.8584 44.5687 63.0362 43.9655 63.1006C43.4311 63.1605 42.894 63.1929 42.3563 63.1975C41.4822 63.2144 40.6259 62.9488 39.9148 62.4402C39.2177 61.9353 38.8684 61.1017 38.8669 59.9393C38.8669 58.8547 39.184 58.0791 39.818 57.6124C40.5388 57.1126 41.3695 56.7939 42.2396 56.6834C42.3968 56.6799 42.5532 56.66 42.7063 56.6239C42.8868 56.5865 43.0938 56.5535 43.3249 56.5271C44.4623 56.3803 45.031 56.0442 45.031 55.5188C45.0392 55.3415 44.9829 55.1673 44.8723 55.0284C44.7618 54.8895 44.6047 54.7955 44.4301 54.7637C44.0732 54.6542 43.7026 54.5956 43.3293 54.5898C42.9999 54.5842 42.6721 54.6364 42.3607 54.7439C42.2227 54.7927 42.0963 54.8695 41.9895 54.9696C41.8827 55.0696 41.7977 55.1906 41.7399 55.3251H39.1377C39.2272 54.5478 39.6176 53.8366 40.2253 53.3437C40.9231 52.7493 41.916 52.4521 43.2104 52.4521C44.6575 52.4521 45.7429 52.698 46.4664 53.1896C46.8261 53.4249 47.1187 53.7493 47.3158 54.1312C47.513 54.5132 47.6079 54.9396 47.5914 55.3691V58.8914C47.5914 59.9188 47.4035 60.726 47.0278 61.313C46.7063 61.8486 46.2441 62.2856 45.6915 62.5767ZM45.0707 57.8061C44.5869 58.03 44.0796 58.199 43.5583 58.3102L42.6667 58.5062C42.2942 58.5873 41.9477 58.7598 41.6584 59.0081C41.4881 59.261 41.3941 59.5575 41.3876 59.8623C41.3798 60.0329 41.4065 60.2034 41.4663 60.3635C41.5261 60.5235 41.6176 60.6698 41.7355 60.7935C42.022 61.0171 42.3811 61.1269 42.7437 61.1017C43.0561 61.1297 43.3709 61.0887 43.6657 60.9818C43.9606 60.8749 44.2284 60.7046 44.4503 60.4829C44.6722 60.2612 44.8427 59.9936 44.9499 59.6988C45.0571 59.4041 45.0983 59.0894 45.0707 58.777V57.8061Z" fill="#606060"/>
<path d="M11.9739 66.7483C11.7814 66.5825 11.5317 66.4987 11.2782 66.515C11.0833 66.5105 10.8906 66.5568 10.719 66.6492C10.5608 66.7362 10.424 66.8573 10.3184 67.0037C10.2094 67.1547 10.1281 67.3239 10.0784 67.5034C9.96979 67.8758 9.96979 68.2714 10.0784 68.6438C10.1281 68.8233 10.2094 68.9925 10.3184 69.1435C10.424 69.2899 10.5608 69.411 10.719 69.4979C10.8906 69.5904 11.0833 69.6367 11.2782 69.6322C11.4119 69.6329 11.5444 69.6067 11.6679 69.5552C11.7892 69.5026 11.8997 69.428 11.9937 69.335C12.0909 69.2396 12.1706 69.1278 12.2292 69.0048C12.2919 68.8734 12.33 68.7317 12.3415 68.5865H12.7818C12.7449 68.9793 12.5721 69.3468 12.2931 69.6256C12.0143 69.8784 11.6476 70.0119 11.2716 69.9977C11.0166 70.0028 10.7637 69.9501 10.5319 69.8436C10.3231 69.7473 10.1381 69.6059 9.99034 69.4297C9.84021 69.2493 9.72656 69.0414 9.65571 68.8177C9.50604 68.3299 9.50604 67.8085 9.65571 67.3207C9.72656 67.0969 9.84021 66.8891 9.99034 66.7087C10.1385 66.5318 10.3233 66.3891 10.5319 66.2904C10.7635 66.1831 11.0164 66.1297 11.2716 66.1341C11.6298 66.1227 11.9813 66.2329 12.2689 66.4467C12.4096 66.5624 12.5253 66.7056 12.6086 66.8677C12.6918 67.0297 12.7411 67.2071 12.7532 67.3889H12.3129C12.2664 67.1463 12.1483 66.9232 11.9739 66.7483Z" fill="#606060"/>
<path d="M13.823 66.2465V67.1028H13.8363C13.9362 66.8243 14.121 66.5841 14.3646 66.416C14.6179 66.2519 14.9177 66.1746 15.2188 66.1958V66.6361C15.0309 66.6236 14.8425 66.6513 14.6662 66.7176C14.5061 66.7772 14.3604 66.8697 14.2383 66.9892C14.1162 67.1086 14.0205 67.2523 13.9573 67.411C13.8899 67.5812 13.8563 67.7629 13.8583 67.946V69.8987H13.418V66.2465H13.823Z" fill="#606060"/>
<path d="M15.8463 68.6948C15.89 68.862 15.9646 69.0196 16.0664 69.1593C16.1672 69.297 16.2954 69.4124 16.4429 69.4983C16.6092 69.5921 16.798 69.6385 16.9888 69.6326C17.267 69.65 17.541 69.5584 17.7527 69.3772C17.946 69.1942 18.0796 68.9571 18.1358 68.697H18.5761C18.5077 69.0652 18.3252 69.4026 18.0543 69.6612C17.7527 69.906 17.3698 70.0279 16.9822 70.0024C16.7242 70.0092 16.4681 69.9565 16.2337 69.8483C16.0311 69.753 15.8549 69.6094 15.7208 69.4301C15.584 69.2453 15.4839 69.0361 15.4258 68.8136C15.3613 68.5724 15.3294 68.3236 15.3311 68.074C15.3306 67.8345 15.3624 67.596 15.4258 67.3651C15.4861 67.1421 15.586 66.9318 15.7208 66.7443C15.8556 66.56 16.0311 66.4093 16.2337 66.304C16.4656 66.1873 16.7227 66.1298 16.9822 66.1367C17.2289 66.1279 17.4738 66.1821 17.6937 66.2942C17.9137 66.4062 18.1014 66.5725 18.2393 66.7773C18.3733 66.9778 18.4681 67.2019 18.5188 67.4377C18.5763 67.6851 18.6 67.9391 18.5893 68.1928H15.7802C15.7812 68.3622 15.8034 68.5309 15.8463 68.6948ZM18.0477 67.3299C18.0004 67.1796 17.9257 67.0393 17.8276 66.916C17.7286 66.7952 17.6056 66.6963 17.4665 66.6254C17.315 66.5529 17.1491 66.5153 16.9811 66.5153C16.8131 66.5153 16.6472 66.5529 16.4957 66.6254C16.3555 66.6957 16.2318 66.7947 16.1325 66.916C16.0302 67.0406 15.9505 67.1822 15.8969 67.3343C15.8374 67.49 15.7982 67.6528 15.7802 67.8186H18.1468C18.1415 67.6521 18.111 67.4873 18.0565 67.3299H18.0477Z" fill="#606060"/>
<path d="M19.2871 66.8168C19.3576 66.6663 19.4633 66.5349 19.5953 66.4338C19.7322 66.3314 19.8877 66.2567 20.0532 66.2136C20.243 66.165 20.4384 66.1414 20.6344 66.1432C20.7962 66.1434 20.9576 66.1588 21.1165 66.1894C21.2736 66.2166 21.4235 66.2758 21.5568 66.3633C21.6889 66.4545 21.7963 66.5771 21.8694 66.7199C21.9552 66.9075 21.9959 67.1126 21.9883 67.3187V69.2626C21.9829 69.2986 21.9859 69.3353 21.9971 69.3698C22.0082 69.4044 22.0272 69.4359 22.0526 69.4619C22.078 69.4879 22.109 69.5077 22.1433 69.5197C22.1776 69.5318 22.2142 69.5357 22.2502 69.5312C22.2994 69.5322 22.3483 69.5224 22.3933 69.5026V69.879L22.2546 69.8989C22.204 69.9017 22.1533 69.9017 22.1027 69.8989C22.0095 69.9029 21.9165 69.8872 21.8298 69.8526C21.7646 69.825 21.7088 69.7791 21.669 69.7205C21.6299 69.6594 21.6051 69.5901 21.5964 69.518C21.5833 69.4328 21.5774 69.3466 21.5788 69.2604H21.5634C21.4898 69.3713 21.4081 69.4765 21.319 69.5752C21.239 69.6653 21.1463 69.7431 21.0438 69.8064C20.9353 69.87 20.8182 69.9175 20.696 69.9473C20.5438 69.9831 20.3878 70.0001 20.2315 69.9979C20.0702 69.9984 19.9096 69.9777 19.7538 69.9363C19.6119 69.9005 19.4791 69.8353 19.3641 69.7448C19.2507 69.6567 19.1601 69.5427 19.0999 69.4123C19.0331 69.2622 19.0008 69.0989 19.0053 68.9346C18.9929 68.7216 19.0526 68.5107 19.1748 68.3358C19.2931 68.1875 19.4489 68.0734 19.6261 68.0056C19.8285 67.9265 20.04 67.8732 20.2557 67.8471L20.969 67.7568C21.0518 67.7501 21.1341 67.7383 21.2155 67.7216C21.2802 67.7117 21.3415 67.686 21.3939 67.6468C21.4426 67.6088 21.4805 67.5587 21.5039 67.5015C21.5324 67.4248 21.5451 67.3432 21.5414 67.2615C21.5462 67.1335 21.5213 67.0062 21.4687 66.8895C21.4212 66.7956 21.3498 66.7159 21.2618 66.6583C21.1688 66.6005 21.0657 66.561 20.958 66.5416C20.835 66.5209 20.7106 66.5106 20.5859 66.5108C20.3384 66.4998 20.094 66.5701 19.8903 66.7111C19.7964 66.7904 19.7222 66.8902 19.6733 67.0028C19.6244 67.1155 19.6022 67.2379 19.6085 67.3606H19.1682C19.1733 67.1735 19.2136 66.989 19.2871 66.8168ZM21.5193 67.9175C21.5009 67.9461 21.4771 67.9707 21.4491 67.9899C21.4211 68.0092 21.3897 68.0228 21.3564 68.0298C21.2841 68.051 21.2106 68.0679 21.1363 68.0804C20.947 68.1135 20.7532 68.1421 20.5529 68.1685C20.3665 68.1922 20.1825 68.2312 20.0025 68.2852C19.8527 68.3289 19.7139 68.4039 19.5953 68.5053C19.5406 68.5588 19.4981 68.6235 19.4707 68.6949C19.4434 68.7664 19.4318 68.8429 19.4368 68.9192C19.4346 69.0235 19.4573 69.1269 19.5028 69.2208C19.549 69.3046 19.6102 69.3792 19.6833 69.441C19.7612 69.5059 19.8509 69.5552 19.9475 69.5863C20.0455 69.6187 20.1481 69.6351 20.2513 69.6347C20.4173 69.6349 20.5822 69.6089 20.74 69.5576C20.8887 69.5113 21.0271 69.4365 21.1473 69.3375C21.2639 69.2378 21.3584 69.1148 21.4247 68.9764C21.4944 68.8255 21.5291 68.6606 21.526 68.4943V67.9131L21.5193 67.9175Z" fill="#606060"/>
<path d="M24.3262 66.2467V66.621H23.5821V69.0866C23.5765 69.2041 23.5968 69.3213 23.6416 69.43C23.6812 69.5137 23.7825 69.5599 23.9432 69.5687C24.0711 69.5687 24.199 69.5621 24.3262 69.5489V69.9232H24.1281C24.0614 69.9265 23.9945 69.9265 23.9278 69.9232C23.8161 69.9503 23.6992 69.9477 23.5888 69.9158C23.4784 69.8839 23.3782 69.8238 23.2981 69.7413C23.2181 69.6588 23.161 69.5568 23.1324 69.4455C23.1038 69.3341 23.1048 69.2173 23.1352 69.1064V66.621H22.4968V66.2467H23.1352V65.146H23.5755V66.2467H24.3262Z" fill="#606060"/>
<path d="M25.4247 64.8354V65.5509H24.9844V64.8354H25.4247ZM25.4247 66.24V69.8988H24.9844V66.2466L25.4247 66.24Z" fill="#606060"/>
<path d="M26.3669 66.2466L27.5139 69.4585H27.5293L28.663 66.2488H29.1231L27.756 69.8988H27.2805L25.8716 66.2422L26.3669 66.2466Z" fill="#606060"/>
<path d="M29.8916 68.6945C29.9354 68.8617 30.0101 69.0192 30.1118 69.159C30.2118 69.2966 30.3392 69.412 30.486 69.498C30.6523 69.5918 30.8411 69.6382 31.032 69.6323C31.3107 69.6494 31.5853 69.5578 31.7981 69.3769C31.9894 69.1924 32.1225 68.9559 32.1811 68.6967H32.6214C32.5538 69.0647 32.3721 69.4021 32.1019 69.6609C31.799 69.9049 31.4157 70.0266 31.0276 70.0022C30.7696 70.0089 30.5134 69.9562 30.2791 69.8481C30.0764 69.7527 29.9003 69.6091 29.7661 69.4298C29.6302 69.2445 29.5301 69.0355 29.4711 68.8134C29.4077 68.5719 29.3759 68.3233 29.3765 68.0737C29.377 67.8343 29.4089 67.596 29.4711 67.3648C29.5325 67.1423 29.6324 66.9322 29.7661 66.744C29.901 66.5597 30.0765 66.409 30.2791 66.3037C30.5109 66.187 30.7681 66.1295 31.0276 66.1364C31.2891 66.1287 31.5481 66.1902 31.7783 66.3147C31.9811 66.4277 32.1551 66.5859 32.2868 66.777C32.4199 66.978 32.5147 67.2019 32.5664 67.4375C32.6217 67.6852 32.6454 67.9389 32.6368 68.1926H29.8256C29.8265 68.362 29.8487 68.5306 29.8916 68.6945ZM32.0931 67.3296C32.045 67.1796 31.9704 67.0394 31.8729 66.9157C31.7739 66.795 31.651 66.696 31.5119 66.6251C31.3628 66.5491 31.1971 66.5112 31.0298 66.515C30.8603 66.5108 30.6924 66.5486 30.541 66.6251C30.4019 66.696 30.279 66.795 30.18 66.9157C30.0778 67.0408 29.9974 67.1822 29.9422 67.334C29.8827 67.4898 29.8435 67.6525 29.8256 67.8183H32.1921C32.1876 67.6519 32.1579 67.4871 32.1041 67.3296H32.0931Z" fill="#606060"/>
<path d="M37.315 66.9577C37.266 66.8593 37.1952 66.7735 37.108 66.7067C37.0176 66.6397 36.9152 66.5904 36.8064 66.5614C36.6879 66.5301 36.5658 66.5145 36.4432 66.5152C36.3426 66.5159 36.2424 66.5262 36.1438 66.546C36.045 66.5665 35.9499 66.6022 35.862 66.6517C35.7801 66.701 35.7101 66.7679 35.6573 66.8476C35.603 66.937 35.5762 67.0403 35.5802 67.1448C35.577 67.2344 35.6033 67.3226 35.6551 67.3958C35.704 67.4667 35.7679 67.526 35.8422 67.5697C35.9199 67.6193 36.0035 67.6593 36.0909 67.6886C36.179 67.7172 36.2627 67.7436 36.3375 67.7612L36.9341 67.8977C37.0638 67.9167 37.1909 67.9507 37.3128 67.999C37.4333 68.0462 37.5455 68.1123 37.6452 68.1949C37.744 68.2766 37.8249 68.3778 37.8829 68.4921C37.9472 68.622 37.9789 68.7655 37.9754 68.9104C37.9801 69.0886 37.9335 69.2643 37.8411 69.4167C37.7526 69.554 37.6355 69.6704 37.4977 69.7579C37.3517 69.8468 37.1916 69.9101 37.0244 69.9451C36.8544 69.9825 36.681 70.0017 36.507 70.0023C36.1349 70.0188 35.7678 69.9112 35.4635 69.6963C35.321 69.5762 35.2063 69.4266 35.1272 69.2579C35.0482 69.0891 35.0067 68.9052 35.0056 68.7189H35.4459C35.4463 68.8504 35.4762 68.9802 35.5333 69.0986C35.5905 69.2171 35.6734 69.3213 35.7761 69.4035C35.9935 69.5578 36.2561 69.6352 36.5224 69.6237C36.6356 69.6236 36.7485 69.6118 36.8593 69.5884C36.9727 69.565 37.0819 69.5241 37.1829 69.4674C37.2797 69.4131 37.3632 69.3379 37.4272 69.2472C37.4931 69.1533 37.5264 69.0404 37.5219 68.9258C37.5259 68.8301 37.5022 68.7353 37.4537 68.6528C37.4082 68.5783 37.3465 68.5151 37.2731 68.4679C37.1927 68.4164 37.1061 68.375 37.0156 68.3446C36.9187 68.3116 36.8196 68.283 36.7206 68.2587L36.146 68.1311C36.0092 68.096 35.8746 68.0526 35.7431 68.0012C35.6272 67.9548 35.5183 67.8925 35.4195 67.8163C35.3274 67.7438 35.2523 67.6522 35.1993 67.5477C35.1449 67.4236 35.1186 67.289 35.1223 67.1536C35.1174 66.9866 35.1602 66.8217 35.2456 66.6781C35.3268 66.5477 35.4377 66.4383 35.5692 66.3589C35.7058 66.2774 35.8544 66.218 36.0095 66.1828C36.1682 66.1454 36.3307 66.1262 36.4938 66.1255C36.668 66.1244 36.8415 66.1481 37.009 66.196C37.1615 66.2411 37.3036 66.3159 37.4272 66.4161C37.5484 66.5171 37.646 66.6434 37.7134 66.786C37.7885 66.9476 37.8297 67.1229 37.8345 67.3011H37.3942C37.393 67.1822 37.366 67.0651 37.315 66.9577Z" fill="#606060"/>
<path d="M40.0733 66.2467V66.621H39.3358V69.0866C39.3302 69.2041 39.3505 69.3213 39.3953 69.43C39.4349 69.5137 39.5362 69.5599 39.6969 69.5687C39.8248 69.5687 39.9527 69.5621 40.0799 69.5489V69.9232H39.8818C39.8158 69.9232 39.7475 69.9232 39.6815 69.9232C39.4593 69.9463 39.2365 69.8842 39.0585 69.7493C38.9201 69.5654 38.8593 69.3346 38.8889 69.1064V66.621H38.2351V66.2467H38.8735V65.146H39.3138V66.2467H40.0733Z" fill="#606060"/>
<path d="M40.8086 66.8168C40.8798 66.6667 40.9854 66.5355 41.1168 66.4338C41.254 66.3319 41.4094 66.2571 41.5747 66.2136C41.7645 66.165 41.9599 66.1414 42.1559 66.1432C42.3177 66.1433 42.4791 66.1587 42.638 66.1894C42.7952 66.2162 42.9452 66.2754 43.0783 66.3633C43.2109 66.4539 43.3185 66.5766 43.3909 66.7199C43.4775 66.9073 43.519 67.1124 43.512 67.3187V69.2626C43.5061 69.2986 43.5088 69.3355 43.5198 69.3703C43.5308 69.4051 43.5498 69.4368 43.5753 69.463C43.6007 69.4891 43.632 69.5089 43.6665 69.5207C43.701 69.5326 43.7378 69.5362 43.7739 69.5312C43.8224 69.5321 43.8705 69.5224 43.9148 69.5026V69.879L43.7761 69.8989C43.7256 69.9017 43.6748 69.9017 43.6242 69.8989C43.531 69.9024 43.4381 69.8867 43.3513 69.8526C43.2867 69.825 43.2316 69.7791 43.1928 69.7205C43.1529 69.6595 43.1273 69.5903 43.1179 69.518C43.1059 69.4327 43.1001 69.3466 43.1003 69.2604H43.0783C43.0033 69.3708 42.9209 69.476 42.8317 69.5752C42.7522 69.6658 42.6594 69.7437 42.5565 69.8064C42.4482 69.8704 42.331 69.9179 42.2087 69.9473C42.0565 69.9833 41.9005 70.0003 41.7442 69.9979C41.583 69.9982 41.4224 69.9775 41.2665 69.9363C41.1246 69.9005 40.9918 69.8353 40.8768 69.7448C40.7647 69.656 40.6749 69.5421 40.6148 69.4123C40.548 69.2622 40.5157 69.0989 40.5202 68.9346C40.5067 68.7215 40.5665 68.5102 40.6897 68.3358C40.8043 68.1883 40.9563 68.0743 41.13 68.0056C41.3331 67.9265 41.5454 67.8733 41.7618 67.8471L42.4729 67.7568C42.5564 67.7499 42.6395 67.7381 42.7216 67.7216C42.7857 67.7117 42.8462 67.686 42.8978 67.6468C42.9471 67.6094 42.9852 67.5591 43.0078 67.5015C43.0371 67.425 43.0506 67.3433 43.0475 67.2615C43.0527 67.1333 43.0271 67.0057 42.9726 66.8895C42.9258 66.7958 42.8552 66.7161 42.7679 66.6583C42.6741 66.6006 42.5703 66.561 42.4619 66.5416C42.339 66.5208 42.2145 66.5105 42.0898 66.5108C41.8429 66.4994 41.5992 66.5698 41.3964 66.7111C41.3019 66.7899 41.227 66.8896 41.1777 67.0023C41.1284 67.1151 41.1061 67.2377 41.1124 67.3606H40.6721C40.6839 67.1725 40.7302 66.9882 40.8086 66.8168ZM43.0409 67.9175C43.0229 67.9465 42.9992 67.9714 42.9712 67.9907C42.9431 68.0101 42.9114 68.0234 42.8779 68.0298C42.8057 68.0513 42.7322 68.0682 42.6578 68.0804C42.4685 68.1135 42.2725 68.1421 42.0722 68.1685C41.8866 68.1922 41.7032 68.2312 41.524 68.2852C41.374 68.3283 41.235 68.4034 41.1168 68.5053C41.0613 68.5584 41.0182 68.6229 40.9904 68.6944C40.9626 68.7659 40.9509 68.8427 40.9561 68.9192C40.9538 69.0238 40.9773 69.1274 41.0243 69.2208C41.0698 69.3051 41.1311 69.3798 41.2048 69.441C41.2819 69.5059 41.3709 69.5552 41.4668 69.5863C41.5648 69.6187 41.6674 69.6351 41.7706 69.6347C41.9373 69.635 42.103 69.609 42.2615 69.5576C42.4099 69.5103 42.548 69.4357 42.6688 69.3375C42.7901 69.2335 42.8869 69.104 42.9524 68.9582C43.0178 68.8125 43.0503 68.6541 43.0475 68.4943V67.9131L43.0409 67.9175Z" fill="#606060"/>
<path d="M44.8064 66.2467V67.1031H44.8218C44.9173 66.8193 45.1052 66.5757 45.3554 66.4113C45.6057 66.2469 45.9038 66.1711 46.2022 66.1961V66.6364C46.0143 66.6238 45.8259 66.6516 45.6496 66.7178C45.4895 66.7774 45.3437 66.87 45.2216 66.9894C45.0995 67.1089 45.0038 67.2526 44.9407 67.4113C44.8733 67.5815 44.8397 67.7632 44.8417 67.9462V69.8989H44.4014V66.2467H44.8064Z" fill="#606060"/>
<path d="M24.8655 6.13325C29.7527 7.54879 38.847 26.5474 40.5553 39.2741C41.7133 47.8906 42.4288 46.8251 44.8922 45.6694C47.9743 44.2252 49.7905 40.7161 48.3749 34.4551C46.2219 24.9206 40.115 10.917 33.8695 4.7155C30.7236 1.59162 25.9596 2.72538 24.8655 6.13325Z" fill="#606060"/>
<path d="M14.8644 34.4991C12.8831 33.0945 10.981 31.6658 9.24847 30.2568C8.53097 32.9999 8.00793 35.7903 7.68323 38.607C7.16589 43.5405 8.17416 44.9098 10.3404 45.5834C11.7009 46.0061 17.0703 43.9544 18.8293 40.2251C15.2761 41.088 14.3273 38.9042 14.8644 34.4991Z" fill="#606060"/>
<path d="M53.7465 13.6911C60.2981 21.4424 17.779 50.2838 9.89552 47.8336C7.617 47.1247 7.07985 43.9612 7.69405 38.6073C7.69405 42.8649 10.2169 42.8737 17.1604 40.4301C24.1038 37.9865 41.6495 26.2262 43.7056 15.7428C44.0975 13.7461 42.9395 12.6828 41.9819 11.723C41.5416 11.2717 41.7045 10.4439 42.3429 10.4637C47.1641 10.5936 51.9611 11.5777 53.7465 13.6911Z" fill="#606060"/>
<path d="M48.3749 34.4554C49.5703 43.2062 29.1583 36.626 21.1362 31.9435C12.7376 27.043 3.77544 20.6258 4.41826 17.2817C2.39292 21.0771 3.33954 25.8917 7.52893 28.8218C18.9986 38.6822 39.6967 50.3962 46.4178 47.2547C49.4624 45.8281 49.731 40.1065 48.3749 34.4554Z" fill="#606060"/>
<path d="M7.52905 28.8214C1.40458 24.8587 -1.00603 19.8702 0.380896 16.7133C3.43873 9.75007 20.4142 13.2636 27.3246 16.2092C28.6455 16.7727 30.0919 17.8515 30.2196 18.7519C30.3472 19.6523 29.427 19.1261 27.6505 18.5053C24.4429 17.3804 14.6178 14.5052 8.58356 17.8933C3.6963 20.6341 4.24667 25.812 7.52905 28.8214Z" fill="#606060"/>
<path d="M16.0003 28.7864C16.478 26.8777 17.0658 24.7709 17.7263 22.4902C21.198 10.5318 27.5008 0.915838 33.8674 4.71557C30.7215 1.59169 28.5134 -0.629593 24.8106 0.162935C20.0224 1.18882 14.2435 14.0498 10.7212 25.0923C12.3261 26.3097 14.1247 27.5668 16.0003 28.7864Z" fill="#606060"/>
</g>
<defs>
<clipPath id="clip0_136_2836">
<rect width="54.4312" height="70" fill="white"/>
</clipPath>
</defs>
</svg>
