<svg width="60" height="58" viewBox="0 0 60 58" fill="none" xmlns="http://www.w3.org/2000/svg">
<rect width="60" height="58" rx="6" fill="#FFDFCA" fill-opacity="0.3"/>
<path d="M46.5956 36.3797C47.4999 34.268 48 31.9427 48 29.5C48 19.8349 40.1651 12 30.5 12C20.8349 12 13 19.8349 13 29.5C13 39.1651 20.8349 47 30.5 47C32.9427 47 35.2681 46.4998 37.3797 45.5956" stroke="#FF6B00" stroke-width="1.63" stroke-miterlimit="10"/>
<path d="M42.825 34.022C43.3428 32.6118 43.625 31.0886 43.625 29.4998C43.625 22.2511 37.7486 16.3748 30.5 16.3748C23.2514 16.3748 17.375 22.2511 17.375 29.4998C17.375 36.7484 23.2514 42.6248 30.5 42.6248C32.0889 42.6248 33.6121 42.3426 35.0223 41.8249" stroke="#FF6B00" stroke-width="1.63" stroke-miterlimit="10"/>
<path d="M30.5 16.3748V19.656" stroke="#FF6B00" stroke-width="1.63" stroke-miterlimit="10"/>
<path d="M23.9373 18.1331L25.5779 20.9747" stroke="#FF6B00" stroke-width="1.63" stroke-miterlimit="10"/>
<path d="M19.1333 22.9373L21.9749 24.5779" stroke="#FF6B00" stroke-width="1.63" stroke-miterlimit="10"/>
<path d="M17.375 29.4998H20.6562" stroke="#FF6B00" stroke-width="1.63" stroke-miterlimit="10"/>
<path d="M19.1333 36.0623L21.9749 34.4216" stroke="#FF6B00" stroke-width="1.63" stroke-miterlimit="10"/>
<path d="M23.9373 40.8666L25.5779 38.0249" stroke="#FF6B00" stroke-width="1.63" stroke-miterlimit="10"/>
<path d="M30.5 42.6248V39.3435" stroke="#FF6B00" stroke-width="1.63" stroke-miterlimit="10"/>
<path d="M43.625 29.4998H40.3438" stroke="#FF6B00" stroke-width="1.63" stroke-miterlimit="10"/>
<path d="M41.8665 22.9373L39.0249 24.5779" stroke="#FF6B00" stroke-width="1.63" stroke-miterlimit="10"/>
<path d="M37.0623 18.1331L35.4216 20.9747" stroke="#FF6B00" stroke-width="1.63" stroke-miterlimit="10"/>
<path d="M41.4375 46.9998C45.0619 46.9998 48 44.0616 48 40.4373C48 36.8129 45.0619 33.8748 41.4375 33.8748C37.8131 33.8748 34.875 36.8129 34.875 40.4373C34.875 44.0616 37.8131 46.9998 41.4375 46.9998Z" stroke="#FF6B00" stroke-width="1.63" stroke-miterlimit="10"/>
<path d="M41.4377 37.156V43.7185" stroke="#FF6B00" stroke-width="1.63" stroke-miterlimit="10"/>
<path d="M44.7187 40.4373H38.1562" stroke="#FF6B00" stroke-width="1.63" stroke-miterlimit="10"/>
<path d="M30.5 21.8435V29.4998L27.2188 34.9685" stroke="#FF6B00" stroke-width="1.63" stroke-miterlimit="10"/>
</svg>
