<svg width="63" height="70" viewBox="0 0 63 70" fill="none" xmlns="http://www.w3.org/2000/svg">
<g clip-path="url(#clip0_136_2893)">
<path d="M32.8967 55.8212V65.3607C33.6999 65.5187 34.5171 65.5936 35.3356 65.5843C36.2478 65.4911 38.817 65.0998 39.3569 63.2739C39.953 61.942 40.1221 60.4579 39.8409 59.0258C39.7115 58.3935 39.4328 57.8014 39.0279 57.299C38.623 56.7965 38.1039 56.3984 37.5138 56.1379C36.6225 55.8679 35.7051 55.693 34.7771 55.6162C34.2744 55.6162 32.9153 55.8212 32.9153 55.8212H32.8967Z" fill="#606060"/>
<path d="M20.8141 56.7529V57.5541H19.8274V56.7529V58.6161V57.7032H20.8141V58.6161V56.7529ZM23.1226 56.7529L22.4897 58.6161H22.5827L22.8061 57.964H23.495L23.737 58.6161L23.1226 56.7529ZM22.7689 57.8149L23.0109 57.1815C23.0109 57.1815 23.0109 57.1815 23.0109 57.0697C23.0109 56.9579 23.0109 57.0697 23.0109 56.9765C23.0109 56.8834 23.0109 56.9765 23.0109 56.8647V56.9765C23.0029 57.0133 23.0029 57.0515 23.0109 57.0883L23.2343 57.7218L22.7689 57.8149ZM25.3567 58.5416V57.7591H25.7663H25.9338C25.9842 57.739 26.0289 57.707 26.0642 57.6659C26.0698 57.6164 26.0698 57.5664 26.0642 57.5168C26.0729 57.4488 26.0729 57.3799 26.0642 57.3119C26.0746 57.2502 26.0746 57.1872 26.0642 57.1256C26.0733 57.0763 26.0733 57.0258 26.0642 56.9765C26.0139 56.9224 25.9493 56.8836 25.878 56.8647C25.7925 56.8426 25.7028 56.8426 25.6173 56.8647H25.2822L25.3567 58.5416ZM25.3567 56.8461H25.8035H25.9525C26.0044 56.8744 26.0441 56.9208 26.0642 56.9765C26.084 57.037 26.084 57.1023 26.0642 57.1628C26.0854 57.2485 26.0854 57.338 26.0642 57.4237C26.0211 57.4977 25.956 57.5563 25.878 57.5914H25.6173H25.3753L25.3567 56.8461ZM27.8328 58.5416V57.7591H28.2424H28.4099C28.4603 57.739 28.505 57.707 28.5402 57.6659C28.5779 57.6206 28.6092 57.5705 28.6333 57.5168C28.6421 57.4488 28.6421 57.3799 28.6333 57.3119C28.6437 57.2502 28.6437 57.1872 28.6333 57.1256C28.6134 57.0697 28.5817 57.0189 28.5402 56.9765C28.49 56.9224 28.4254 56.8836 28.3541 56.8647C28.2684 56.8442 28.1791 56.8442 28.0934 56.8647H27.7583L27.8328 58.5416ZM27.8328 56.8461H28.2796H28.4285C28.4804 56.8744 28.5202 56.9208 28.5402 56.9765C28.5507 57.0382 28.5507 57.1012 28.5402 57.1628C28.5615 57.2485 28.5615 57.338 28.5402 57.4237C28.4972 57.4977 28.4321 57.5563 28.3541 57.5914H28.0748H27.8514L27.8328 56.8461ZM31.2397 56.8461L30.9232 57.3864V57.5914L30.8116 57.7777V57.6473V57.5355V57.4051L30.5137 56.8461H30.402L30.9605 57.8522L31.5376 56.8461H31.2397Z" fill="#606060"/>
<path d="M20.7395 56.6597H20.907V58.6347H20.6464V57.7217H19.8272V58.6347H19.5852V56.6597H19.8272V57.4608H20.6464V56.6597H20.7395ZM23.0666 56.6597H23.2156L23.8299 58.4297V58.5601H23.5693L23.3645 57.9825H22.7874L22.5826 58.5601H22.3033V58.4297L22.9363 56.6597H23.0666ZM23.0666 57.2186L22.8805 57.7217H23.2156L23.0294 57.2186H23.0666ZM25.4124 58.6347H25.2635V56.7715H25.8592H25.9895H26.1012H26.1943V56.8646C26.1943 56.8646 26.1943 56.8646 26.1943 56.9764V57.2186C26.1943 57.2186 26.1943 57.2186 26.1943 57.3118V57.4236H26.0826H25.7475V58.1875L25.4124 58.6347ZM25.5241 56.9205V57.6099H25.8034H25.8964C25.8964 57.6099 25.8964 57.6099 25.8964 57.4795H25.5799L25.5241 56.9205ZM27.963 58.6347H27.7954V56.7715H28.3725H28.5215H28.6332C28.6431 56.8017 28.6431 56.8344 28.6332 56.8646C28.6332 56.8646 28.6332 56.8646 28.6332 56.9764V57.2186C28.6332 57.2186 28.6332 57.2186 28.6332 57.3118C28.6412 57.3486 28.6412 57.3867 28.6332 57.4236H28.5401H28.205V58.1875L27.963 58.6347ZM28.0747 56.9205V57.6099H28.3353H28.447V57.4795H28.1305L28.0747 56.9205ZM30.9789 57.2559L31.2954 56.7156H31.6119L31.5188 56.8646L30.9603 57.8521V58.6905H30.6624V57.8335L30.1225 56.8646V56.7156H30.4204L30.7183 57.2559V57.3863V57.4981L30.83 57.2932L30.9789 57.2559Z" fill="#606060"/>
<path d="M21.6146 53.1006C30.0668 50.3804 40.5483 53.5851 46.1893 58.6902C44.3276 56.827 42.6893 54.9638 41.2744 53.287C40.7159 52.6907 39.1707 50.1941 41.2744 50.2313C42.1261 50.3569 42.9397 50.6686 43.6574 51.1443C44.6255 51.6846 41.7957 49.2811 40.3994 50.1941C39.0031 51.107 39.8781 52.4485 40.1946 53.0261C40.6666 53.736 41.1762 54.4202 41.7212 55.0756C35.9313 52.4672 27.8886 50.2872 21.5774 53.082L21.6146 53.1006Z" fill="#606060"/>
<path d="M32.6545 65.6775H33.6971H34.7397C35.0124 65.6949 35.2861 65.6949 35.5588 65.6775L36.5269 65.5099C36.8777 65.4135 37.2202 65.2889 37.5509 65.1372C37.9016 64.9725 38.2275 64.7593 38.519 64.5037C38.8398 64.2245 39.116 63.8977 39.3381 63.5349C39.594 63.1134 39.7824 62.6545 39.8966 62.1747C40.058 61.5672 40.1332 60.94 40.12 60.3116C40.1337 59.568 40.0074 58.8284 39.7477 58.1316C39.5366 57.5514 39.1847 57.0328 38.7238 56.6224C38.2714 56.2074 37.7301 55.9015 37.1413 55.7281C36.4662 55.5197 35.7625 55.4191 35.0562 55.43C34.6094 55.43 34.1998 55.43 33.7902 55.43L32.6545 55.5791V65.6775ZM50.8994 63.9448L53.0032 58.4856H52.5005L50.7505 63.3299C50.6202 63.628 50.5271 63.9075 50.434 64.1684L50.1547 64.9509C50.1547 64.7646 50.0244 64.5783 49.9872 64.4292C49.9499 64.2802 49.8568 64.0938 49.801 63.9261C49.7451 63.7585 49.6893 63.6094 49.6148 63.4417L47.7531 58.4856H47.2504L49.8196 65.1558V65.3235V65.4353C49.8234 65.5036 49.8234 65.572 49.8196 65.6403C49.6989 66.1721 49.4743 66.6747 49.1588 67.1193C48.8432 67.5639 48.4429 67.9417 47.9809 68.2308C47.519 68.52 47.0044 68.7149 46.4669 68.8043C45.9293 68.8937 45.3794 68.8759 44.8488 68.7518C43.8249 68.491 44.6254 69.9256 45.277 69.9815C47.9579 70.261 50.1175 65.9943 50.8622 63.9448H50.8994ZM33.1014 56.0635C33.3652 56.0035 33.6326 55.9599 33.9019 55.9331C34.2615 55.9122 34.6221 55.9122 34.9817 55.9331C35.6839 55.9143 36.3838 56.0216 37.0482 56.2498C37.5932 56.4351 38.0895 56.7407 38.5003 57.1441C38.8834 57.5496 39.1754 58.0324 39.3567 58.5602C39.5479 59.1625 39.6422 59.7914 39.636 60.4233C39.6393 61.1176 39.5389 61.8083 39.3381 62.4729C39.1464 63.0525 38.8357 63.5856 38.4259 64.0379C37.9899 64.4816 37.4626 64.8249 36.8806 65.0441C36.1955 65.2956 35.4692 65.4157 34.7397 65.3981H33.8274H33.1014V56.0635ZM45.91 61.1314C45.91 60.8891 45.91 60.6283 45.91 60.3675C45.8656 60.1149 45.8034 59.8659 45.7238 59.6222C45.6278 59.3818 45.489 59.1609 45.3142 58.9701C45.1417 58.7602 44.917 58.5995 44.6626 58.5043C44.3541 58.3852 44.0251 58.3282 43.6945 58.3366H43.0988C42.8683 58.3791 42.6434 58.4478 42.4286 58.5415C42.1908 58.6256 41.9701 58.7519 41.777 58.9142L41.9445 59.2495C42.1993 59.0742 42.4744 58.9303 42.7637 58.821C43.0463 58.7279 43.3412 58.6776 43.6387 58.672C43.9518 58.6758 44.2614 58.739 44.5509 58.8583C44.7672 58.974 44.9524 59.1402 45.0908 59.3427C45.2237 59.5431 45.3242 59.7631 45.3887 59.9948C45.4068 60.218 45.4068 60.4423 45.3887 60.6656C45.3887 60.8891 45.3887 61.0755 45.3887 61.2431C44.5899 61.2192 43.7922 61.3198 43.0243 61.5413C42.4815 61.6963 41.996 62.0072 41.628 62.4356C41.3233 62.8445 41.1599 63.3415 41.1626 63.8516C41.162 64.0876 41.2063 64.3215 41.2929 64.541C41.3711 64.7759 41.4976 64.9919 41.6644 65.1748C41.8311 65.3577 42.0344 65.5036 42.261 65.603C42.5444 65.7191 42.8485 65.7762 43.1546 65.7707C43.4194 65.7728 43.683 65.7352 43.9366 65.6589C44.162 65.5937 44.3757 65.4931 44.5696 65.3608C44.7466 65.244 44.9091 65.1063 45.0536 64.9509C45.1879 64.8273 45.3011 64.6825 45.3887 64.5224L45.5563 65.6775H45.9845C45.9672 65.3921 45.9672 65.1059 45.9845 64.8205C45.9845 64.5224 45.9845 64.2429 45.9845 63.9634L45.91 61.1314ZM45.4446 63.4417C45.4685 63.5898 45.4685 63.7408 45.4446 63.8889C45.3801 64.0698 45.299 64.2445 45.2025 64.4106C44.9568 64.8132 44.5831 65.1216 44.1414 65.2863C43.8697 65.3962 43.5778 65.447 43.285 65.4353C43.1005 65.471 42.9109 65.471 42.7265 65.4353C42.5454 65.3723 42.3802 65.2705 42.2424 65.1372C42.0894 65.0011 41.974 64.8279 41.9073 64.6342C41.8232 64.4075 41.7791 64.1679 41.777 63.9261C41.7729 63.636 41.8367 63.3489 41.9631 63.0877C42.0835 62.8642 42.2482 62.6676 42.4472 62.5101C42.6642 62.353 42.9024 62.2276 43.1546 62.1375C43.4135 62.0409 43.6818 61.9722 43.9552 61.9325C44.2317 61.877 44.5116 61.8397 44.793 61.8207C45.0536 61.8207 45.2956 61.8207 45.519 61.8207L45.4446 63.4417Z" fill="#606060"/>
<path d="M26.939 63.9445C28.6821 64.9543 30.6465 65.5199 32.6592 65.5913C34.672 65.6628 36.6715 65.238 38.4817 64.3544C38.1652 64.5221 37.9604 64.8388 37.6625 65.0251C36.9737 65.4537 36.3407 65.9195 35.8008 66.2921C35.2609 66.6648 34.4976 67.41 35.4657 67.6709C35.8615 67.7104 36.2611 67.6659 36.6386 67.5404C37.1413 67.4287 35.6146 68.118 35.0747 67.5404C34.5348 66.9629 35.0747 66.4598 35.2982 66.2362C35.5958 65.9782 35.9065 65.7357 36.229 65.5096C33.3247 65.9754 29.471 65.9567 26.9204 63.9072L26.939 63.9445Z" fill="#606060"/>
<path d="M42.4101 69.7764C42.3374 69.7608 42.2719 69.7215 42.2239 69.6646C41.9839 69.4924 41.7651 69.2923 41.5723 69.0684C41.5333 68.9803 41.5132 68.8851 41.5132 68.7889C41.5132 68.6926 41.5333 68.5974 41.5723 68.5094C41.5983 68.4394 41.6381 68.3752 41.6892 68.3208C41.7404 68.2664 41.8019 68.2228 41.8702 68.1927C41.945 68.1888 42.0198 68.1999 42.0901 68.2256C42.1605 68.2512 42.225 68.2907 42.2798 68.3417H42.4287H42.5777C42.6325 68.2907 42.697 68.2512 42.7673 68.2256C42.8377 68.1999 42.9125 68.1888 42.9872 68.1927C43.0584 68.2217 43.1231 68.2647 43.1774 68.3191C43.2318 68.3735 43.2747 68.4382 43.3037 68.5094C43.3248 68.6052 43.3258 68.7044 43.3066 68.8006C43.2873 68.8968 43.2483 68.988 43.192 69.0684C43.0012 69.2875 42.7891 69.4872 42.559 69.6646C42.559 69.6646 42.4846 69.7764 42.4101 69.7764Z" fill="#606060"/>
<path d="M45.0537 52.5233C44.982 52.5523 44.9019 52.5523 44.8303 52.5233C44.5516 52.5486 44.2712 52.5486 43.9925 52.5233C43.8982 52.4963 43.811 52.4489 43.737 52.3845C43.663 52.3201 43.6041 52.2403 43.5643 52.1506C43.5351 52.083 43.52 52.01 43.52 51.9363C43.52 51.8627 43.5351 51.7897 43.5643 51.7221C43.6723 51.6267 43.8112 51.5738 43.9552 51.573C44.009 51.5948 44.0691 51.5948 44.1228 51.573C44.1334 51.5239 44.1334 51.4731 44.1228 51.424C44.1412 51.2782 44.2145 51.145 44.3276 51.0513C44.3946 51.0198 44.4677 51.0034 44.5417 51.0034C44.6157 51.0034 44.6888 51.0198 44.7558 51.0513C44.8364 51.1081 44.9021 51.1835 44.9475 51.271C44.9928 51.3586 45.0165 51.4558 45.0164 51.5544C45.0048 51.849 44.9674 52.142 44.9047 52.4301C44.9047 52.4301 44.9047 52.5978 44.8116 52.635L45.0537 52.5233Z" fill="#606060"/>
<path d="M39.3195 68.882C39.2769 68.8939 39.2318 68.8939 39.1892 68.882C39.0321 68.7683 38.8884 68.637 38.761 68.4907C38.7354 68.4319 38.7222 68.3685 38.7222 68.3044C38.7222 68.2403 38.7354 68.1768 38.761 68.1181C38.7733 68.0692 38.7964 68.0237 38.8286 67.985C38.8608 67.9463 38.9014 67.9154 38.9472 67.8945C39.0489 67.8879 39.149 67.9214 39.2265 67.9876H39.3382C39.3717 67.9534 39.4126 67.9272 39.4578 67.911C39.5029 67.8949 39.5511 67.8892 39.5988 67.8945C39.6501 67.9131 39.6968 67.9427 39.7354 67.9814C39.774 68.02 39.8036 68.0667 39.8222 68.1181C39.8648 68.2386 39.8648 68.3701 39.8222 68.4907C39.6993 68.6413 39.555 68.7731 39.394 68.882C39.3514 68.8939 39.3063 68.8939 39.2637 68.882H39.3195Z" fill="#606060"/>
<path d="M20.1624 53.846C20.1353 53.717 20.1353 53.5838 20.1624 53.4548C20.2472 52.9551 20.391 52.4673 20.5906 52.0015C20.6584 51.85 20.7613 51.7169 20.8909 51.6132C21.0204 51.5095 21.1727 51.4382 21.3353 51.4053C21.465 51.3958 21.5952 51.4141 21.7172 51.4591C21.8392 51.5041 21.9502 51.5747 22.0428 51.6661V51.7779C22.1357 52.024 22.1357 52.2957 22.0428 52.5418C22.0241 52.6403 22.0241 52.7414 22.0428 52.8399C22.1049 52.9155 22.1807 52.9787 22.2662 53.0262C22.5043 53.1306 22.6916 53.3248 22.7875 53.5666C22.7955 53.6097 22.7955 53.6539 22.7875 53.697C22.7975 53.8281 22.7813 53.96 22.7397 54.0847C22.6982 54.2095 22.6321 54.3247 22.5454 54.4236C22.4188 54.532 22.2692 54.6102 22.1079 54.6521C21.9466 54.6941 21.7779 54.6988 21.6146 54.6658C21.1493 54.5193 20.7002 54.3258 20.2741 54.0883C20.3486 54.0137 20.2183 53.9578 20.1624 53.846Z" fill="#606060"/>
<path d="M35.3914 65.3978C35.0868 65.319 34.8099 65.1579 34.5908 64.932C33.6267 64.2129 32.7462 63.388 31.9658 62.4726C31.7138 62.1359 31.5439 61.7449 31.4696 61.3309C31.3952 60.9168 31.4185 60.4911 31.5376 60.0877C31.6453 59.7942 31.8113 59.5256 32.0257 59.2982C32.2401 59.0709 32.4984 58.8894 32.785 58.7648H33.1201C33.7279 58.7465 34.32 58.9595 34.777 59.3611C34.9566 59.5096 35.1662 59.6177 35.3914 59.6778C35.6225 59.6185 35.8383 59.5105 36.0244 59.3611C36.4773 58.9528 37.0723 58.7387 37.6813 58.7648H38.0164C38.3047 58.8865 38.5645 59.067 38.7793 59.2948C38.994 59.5225 39.159 59.7926 39.2637 60.0877C39.3708 60.4802 39.3879 60.8919 39.3138 61.2919C39.2396 61.692 39.0762 62.0701 38.8355 62.3981C38.071 63.3375 37.2029 64.1875 36.2478 64.932C36.0191 65.155 35.737 65.3154 35.4286 65.3978H35.3914Z" fill="#606060"/>
<path d="M14.3539 58.877L13.4416 61.4482C13.3113 61.8022 13.1996 62.1003 13.1065 62.3984C13.0134 62.6965 12.9204 62.976 12.8459 63.2368C12.8459 62.976 12.7156 62.7151 12.6225 62.417C12.5294 62.1189 12.4363 61.8022 12.306 61.4482L11.4868 58.877H11.2634L12.7528 63.5349H12.939L14.6145 58.877H14.3539ZM16.8486 61.4482C16.8579 61.3304 16.8579 61.212 16.8486 61.0942C16.8677 60.9832 16.8677 60.8698 16.8486 60.7588C16.8157 60.6426 16.7586 60.5346 16.681 60.4421C16.5927 60.359 16.4923 60.2899 16.3832 60.2371C16.1962 60.1312 15.9835 60.0796 15.7688 60.0881H15.5082L15.2103 60.1812C15.0976 60.2223 14.9911 60.2787 14.8938 60.3489L14.9869 60.5166C15.2066 60.3363 15.485 60.2434 15.7688 60.2557C15.9035 60.224 16.0437 60.224 16.1784 60.2557C16.2797 60.3042 16.364 60.3821 16.4204 60.4793C16.4898 60.5652 16.5348 60.6681 16.5507 60.7774C16.5597 60.8828 16.5597 60.9888 16.5507 61.0942V61.355C16.1862 61.3431 15.8221 61.3871 15.4709 61.4854C15.2219 61.5634 14.9974 61.7046 14.8193 61.8953C14.6858 62.0865 14.6143 62.3142 14.6145 62.5475C14.5953 62.6522 14.5953 62.7595 14.6145 62.8642C14.6479 62.9691 14.7053 63.0648 14.7821 63.1437C14.8536 63.2374 14.9505 63.3085 15.0613 63.3486C15.1962 63.3785 15.336 63.3785 15.4709 63.3486C15.5948 63.359 15.7194 63.359 15.8433 63.3486L16.1225 63.2182C16.2053 63.1595 16.2803 63.0907 16.3459 63.0133L16.4949 62.8269V63.33H16.6997C16.6905 63.1997 16.6905 63.069 16.6997 62.9387C16.6908 62.8085 16.6908 62.6777 16.6997 62.5475L16.8486 61.4482ZM16.6438 62.5102C16.6496 62.5784 16.6496 62.647 16.6438 62.7151C16.6186 62.8009 16.581 62.8825 16.5321 62.9574C16.4743 63.0409 16.4054 63.1161 16.3273 63.1809C16.2485 63.2578 16.1529 63.3152 16.0481 63.3486C15.9195 63.3788 15.7857 63.3788 15.6571 63.3486H15.3964C15.3139 63.3122 15.2384 63.2618 15.173 63.1996C15.1088 63.1359 15.0582 63.0598 15.0241 62.976C15.003 62.8652 15.003 62.7514 15.0241 62.6406C15.0212 62.5103 15.0533 62.3816 15.1172 62.268C15.1702 62.1595 15.2465 62.0641 15.3406 61.9885C15.4399 61.9216 15.546 61.8654 15.6571 61.8208L16.0294 61.7277H16.4018H16.7555L16.6438 62.5102ZM18.1332 58.6348H17.9284V63.5349H18.1332V58.6348ZM21.354 63.1996C21.2864 63.2131 21.2168 63.2131 21.1492 63.1996L20.8699 63.2927H20.4789C20.2334 63.2995 19.9921 63.2277 19.7901 63.0878C19.5913 62.9604 19.4406 62.7702 19.3619 62.5475C19.2596 62.267 19.2091 61.9703 19.213 61.6718H21.596V61.56C21.6137 61.4177 21.6137 61.2737 21.596 61.1314C21.5763 60.9906 21.5387 60.8529 21.4843 60.7215C21.4277 60.5931 21.3525 60.4738 21.2609 60.3675C21.1706 60.2606 21.0556 60.1775 20.9258 60.1253C20.7717 60.0642 20.6075 60.0326 20.4417 60.0322C20.2497 60.0295 20.0594 60.0676 19.8832 60.1439C19.7106 60.2285 19.5582 60.3493 19.4364 60.498C19.3116 60.6627 19.2112 60.8447 19.1385 61.0383C19.0766 61.2882 19.0453 61.5447 19.0454 61.8022C19.0352 62.0296 19.0668 62.2569 19.1385 62.4729C19.2036 62.6643 19.3047 62.8413 19.4364 62.9946C19.5594 63.1421 19.7115 63.2626 19.8832 63.3486C20.0719 63.4269 20.2748 63.465 20.4789 63.4604H20.963H21.2981L21.4657 63.3673V63.1996H21.354ZM19.2316 61.5972C19.2229 61.4856 19.2229 61.3735 19.2316 61.2619C19.2654 61.1437 19.3156 61.0308 19.3805 60.9265C19.5013 60.7066 19.6821 60.5257 19.9018 60.4048C20.0304 60.3746 20.1642 60.3746 20.2928 60.4048C20.4151 60.3748 20.5428 60.3748 20.6651 60.4048C20.77 60.4382 20.8656 60.4956 20.9444 60.5725C21.0108 60.6521 21.0671 60.7397 21.1119 60.8333C21.165 60.9193 21.2028 61.0139 21.2236 61.1128C21.2394 61.199 21.2394 61.2874 21.2236 61.3736C21.2315 61.448 21.2315 61.5229 21.2236 61.5972H19.2316ZM24.8168 61.5972C24.838 61.4178 24.838 61.2364 24.8168 61.0569C24.7875 60.9224 24.7304 60.7954 24.6492 60.6843C24.5842 60.5896 24.5093 60.5022 24.4258 60.4234L24.1838 60.293H23.9604H23.7928C23.639 60.2646 23.4812 60.2646 23.3274 60.293C23.189 60.3493 23.0626 60.4315 22.955 60.5352C22.8376 60.6392 22.7426 60.766 22.6758 60.9079V60.293H22.471C22.4712 60.5352 22.4712 60.5352 22.4712 60.7774L22.471 63.5908H22.6758V61.4668C22.6879 61.2499 22.7517 61.0391 22.862 60.852C22.9263 60.7568 23.0012 60.6693 23.0854 60.5911L23.3832 60.4048C23.5003 60.3853 23.6199 60.3853 23.737 60.4048C23.8834 60.3661 24.0373 60.3661 24.1838 60.4048C24.2944 60.4786 24.3893 60.5735 24.463 60.6843C24.5409 60.8041 24.5975 60.9365 24.6306 61.0755C24.6499 61.224 24.6499 61.3743 24.6306 61.5227V63.4977H24.8354V61.5413L24.8168 61.5972ZM26.0269 60.293H25.487V60.4793H26.0269V62.9201V63.1809C26.0528 63.2665 26.0904 63.348 26.1386 63.4232C26.1982 63.4889 26.2672 63.5454 26.3434 63.5908C26.4478 63.6119 26.5554 63.6119 26.6599 63.5908H26.9391H27.1067V63.4232H26.9577H26.753C26.6621 63.4518 26.5646 63.4518 26.4737 63.4232C26.401 63.3483 26.344 63.2596 26.3061 63.1623C26.2866 63.0389 26.2866 62.9131 26.3061 62.7897V60.4234H27.237V60.2371H26.3061V59.5291H26.1013V60.1439L26.0269 60.293ZM28.2051 59.3428C28.2154 59.2999 28.2154 59.2552 28.2051 59.2123C28.2051 59.2123 28.2051 59.2123 28.0934 59.2123H28.0003C27.99 59.2552 27.99 59.2999 28.0003 59.3428C27.9916 59.3795 27.9916 59.4178 28.0003 59.4546H28.112C28.1352 59.4661 28.1606 59.472 28.1865 59.472C28.2123 59.472 28.2378 59.4661 28.2609 59.4546C28.2635 59.4243 28.2599 59.3938 28.2503 59.365C28.2407 59.3361 28.2253 59.3096 28.2051 59.2869V59.3428ZM28.2051 60.293H28.0003V63.5908H28.2051V60.293ZM31.7237 61.5972C31.745 61.4178 31.745 61.2364 31.7237 61.0569C31.6864 60.9252 31.63 60.7996 31.5562 60.6843C31.4912 60.5896 31.4163 60.5022 31.3328 60.4234L31.0908 60.293L30.6626 60.0881H30.495C30.3474 60.0599 30.1958 60.0599 30.0482 60.0881C29.9073 60.1394 29.78 60.2223 29.6759 60.3303C29.5585 60.4342 29.4634 60.561 29.3966 60.7029V60.0881H29.1918C29.1918 60.0881 29.1918 60.2371 29.1918 60.3303V60.5725C29.1918 60.5725 29.1918 60.7402 29.1918 60.8333V63.3859H29.3966V61.4668C29.3885 61.3614 29.3885 61.2555 29.3966 61.1501L29.5455 60.852C29.6042 60.7526 29.6798 60.6643 29.7689 60.5911L30.0668 60.4048C30.1839 60.3853 30.3034 60.3853 30.4205 60.4048C30.5603 60.3639 30.7089 60.3639 30.8487 60.4048C30.9691 60.4726 31.0713 60.5684 31.1466 60.6843C31.2259 60.8014 31.2769 60.9353 31.2955 61.0755C31.3148 61.224 31.3148 61.3743 31.2955 61.5227V63.4977H31.5003V61.5413L31.7237 61.5972ZM34.8887 63.2555H34.6839L34.4046 63.3486H34.0137C33.7681 63.3554 33.5268 63.2836 33.3248 63.1437C33.126 63.0163 32.9753 62.8261 32.8966 62.6034C32.7853 62.3254 32.7345 62.0268 32.7477 61.7277H35.1307V61.6159C35.1484 61.4736 35.1484 61.3296 35.1307 61.1873C35.111 61.0465 35.0734 60.9088 35.019 60.7774C34.9625 60.649 34.8872 60.5297 34.7956 60.4234C34.7019 60.312 34.5796 60.2283 34.4419 60.1812C34.2492 60.0954 34.0369 60.0633 33.8275 60.0881C33.6381 60.083 33.4501 60.1225 33.2787 60.2034C33.1073 60.2843 32.9573 60.4043 32.8408 60.5538C32.7089 60.714 32.6079 60.8972 32.5429 61.0942C32.4866 61.3766 32.4803 61.6667 32.5243 61.9512C32.4837 62.173 32.4837 62.4002 32.5243 62.622C32.5823 62.8165 32.6842 62.9949 32.8222 63.1437C32.9408 63.2956 33.094 63.417 33.269 63.4977C33.4576 63.5759 33.6605 63.614 33.8647 63.6095H34.3488H34.6839L34.8514 63.5163V63.3486L34.8887 63.2555ZM32.7663 61.6531C32.7576 61.5415 32.7576 61.4294 32.7663 61.3178C32.8001 61.1996 32.8503 61.0867 32.9152 60.9824C33.0361 60.7625 33.2169 60.5816 33.4365 60.4607C33.5651 60.4305 33.6989 60.4305 33.8275 60.4607C33.9498 60.4307 34.0775 60.4307 34.1998 60.4607C34.3047 60.4941 34.4003 60.5515 34.4791 60.6284C34.5456 60.708 34.6018 60.7956 34.6466 60.8892C34.6997 60.9752 34.7375 61.0698 34.7584 61.1687C34.7741 61.2549 34.7741 61.3433 34.7584 61.4295C34.7662 61.5039 34.7662 61.5788 34.7584 61.6531H32.7663ZM35.5403 60.4793V60.3303C35.5403 60.3303 35.5403 60.1626 35.5403 60.0508L35.652 59.7154L35.7637 59.3614C35.7703 59.2559 35.7703 59.1501 35.7637 59.0447H35.4658V59.3055V59.6223C35.4571 59.7339 35.4571 59.846 35.4658 59.9576C35.4574 60.0506 35.4574 60.1441 35.4658 60.2371V60.4234L35.5403 60.4793ZM37.7185 60.4793L37.4392 60.3303C37.3097 60.3094 37.1778 60.3094 37.0483 60.3303C36.9195 60.302 36.7861 60.302 36.6573 60.3303C36.5478 60.3633 36.4506 60.4282 36.378 60.5166C36.294 60.5855 36.2298 60.6755 36.1919 60.7774C36.1741 60.8885 36.1741 61.0017 36.1919 61.1128C36.1879 61.2065 36.2041 61.2999 36.2394 61.3867C36.2748 61.4735 36.3284 61.5517 36.3967 61.6159C36.5534 61.7881 36.7523 61.9166 36.9738 61.9885L37.3648 62.1935C37.4539 62.2667 37.5295 62.355 37.5882 62.4543C37.6159 62.5707 37.6159 62.6919 37.5882 62.8083C37.6077 62.9067 37.6077 63.008 37.5882 63.1064C37.5365 63.189 37.4738 63.2642 37.402 63.33C37.3211 63.3845 37.2335 63.4283 37.1414 63.4604C37.043 63.48 36.9418 63.48 36.8435 63.4604H36.6201L36.2477 63.2927C36.1739 63.2668 36.1047 63.229 36.0429 63.1809L35.9312 63.3673C36.0415 63.4381 36.1604 63.4945 36.285 63.5349C36.427 63.5544 36.5711 63.5544 36.7132 63.5349C36.849 63.5543 36.9869 63.5543 37.1227 63.5349C37.2379 63.4911 37.3449 63.4281 37.4392 63.3486C37.5338 63.2661 37.6099 63.1645 37.6626 63.0505C37.6818 62.9271 37.6818 62.8014 37.6626 62.6779C37.6946 62.5368 37.6946 62.3904 37.6626 62.2493C37.5828 62.1323 37.4818 62.0311 37.3648 61.9512L36.9179 61.7277C36.7864 61.6738 36.6615 61.605 36.5456 61.5227C36.4534 61.4683 36.3766 61.3914 36.3222 61.2991C36.2927 61.1956 36.2927 61.0859 36.3222 60.9824C36.3071 60.9024 36.3071 60.8202 36.3222 60.7402C36.3481 60.6674 36.3931 60.6031 36.4525 60.5538C36.5162 60.4896 36.5922 60.4389 36.6759 60.4048C36.7678 60.3833 36.8633 60.3833 36.9552 60.4048C37.0599 60.3871 37.1669 60.3871 37.2717 60.4048L37.5509 60.5538L37.7185 60.4793Z" fill="#606060"/>
<path d="M14.4282 58.9701L13.516 61.4854C13.516 61.6717 13.3857 61.8394 13.3484 61.9698L13.1809 62.4356C13.1809 62.5847 13.0878 62.7151 13.0506 62.8642C13.0426 62.9385 13.0426 63.0135 13.0506 63.0878L14.5399 58.9701H14.4282ZM13.3484 61.4295L14.2793 58.8397H14.7075V58.9701L13.0319 63.6095H12.7155L11.2261 58.9701V58.8397H11.6543L12.4734 61.4295L12.641 61.9326L12.7713 62.3797C12.7713 62.5847 12.883 62.7524 12.9389 62.9201V62.8083C12.9389 62.6779 12.9389 62.5288 13.0692 62.3797L13.2367 61.914L13.4043 61.4295H13.3484ZM12.9016 63.2927H12.7713C12.7713 63.0319 12.6224 62.7524 12.5293 62.4729L12.3617 61.9512L12.2128 61.4482L11.4122 58.9329L12.8458 63.4045L12.9016 63.2927ZM16.7554 61.4295V61.2618C16.7644 61.2063 16.7644 61.1497 16.7554 61.0942C16.7554 61.0942 16.7554 60.9824 16.7554 60.9265V60.7588C16.7588 60.7091 16.7588 60.6593 16.7554 60.6097V60.4979L16.6437 60.3861C16.5945 60.3761 16.5439 60.3761 16.4947 60.3861C16.4338 60.3695 16.3695 60.3695 16.3086 60.3861H16.5134H16.6809L16.7926 60.5166C16.8306 60.5683 16.8618 60.6247 16.8857 60.6842V60.8519C16.8857 60.8519 16.8857 60.9637 16.8857 61.0196C16.8751 61.0687 16.8751 61.1196 16.8857 61.1687V61.5413H16.7926C16.6008 61.5215 16.4074 61.5215 16.2155 61.5413H15.7314L15.3777 61.709C15.2842 61.7682 15.2021 61.844 15.1357 61.9326C15.0753 62.0129 15.0252 62.1005 14.9868 62.1934C14.9765 62.2988 14.9765 62.4048 14.9868 62.5102V62.6592C14.9948 62.7023 14.9948 62.7466 14.9868 62.7897C14.9801 62.8391 14.9801 62.8892 14.9868 62.9387V63.0505H15.0985H15.2474H15.3405H15.2102L15.0985 62.9573L14.9868 62.8455C14.9868 62.8455 14.9868 62.7524 14.9868 62.6965C14.9763 62.6348 14.9763 62.5718 14.9868 62.5102C14.9767 62.4485 14.9767 62.3856 14.9868 62.3239C14.9497 62.1834 14.9497 62.0358 14.9868 61.8953C15.0131 61.8383 15.0512 61.7875 15.0985 61.7463L15.2288 61.6158C15.2801 61.5722 15.3364 61.5347 15.3963 61.504H15.5825H15.7687H15.9735H16.7926V62.3984C16.7926 62.3984 16.7926 62.3984 16.7926 62.5102C16.7926 62.622 16.7926 62.5102 16.7926 62.622V62.7524H16.9229V63.1809C16.9146 63.1129 16.9146 63.044 16.9229 62.976V62.771C16.9138 62.7093 16.9138 62.6465 16.9229 62.5847V61.2805L16.7554 61.4295ZM16.9416 61.2432V61.4295V62.7338V63.1064C16.9508 63.1744 16.9508 63.2433 16.9416 63.3113C16.9416 63.3113 16.9416 63.4231 16.9416 63.4977V63.6095H16.5506V63.33L16.4389 63.4418H16.3086H16.1596H15.9921H15.8059H15.6011H15.3591C15.2911 63.4501 15.2223 63.4501 15.1543 63.4418H14.9868L14.8378 63.3113V63.1623C14.7999 63.1105 14.7686 63.0542 14.7447 62.9946C14.7447 62.9946 14.7447 62.8828 14.7447 62.8083C14.7447 62.7338 14.7447 62.6965 14.7447 62.6406C14.7252 62.5171 14.7252 62.3914 14.7447 62.268C14.7807 62.1435 14.8443 62.0289 14.9309 61.9326C15.0108 61.8378 15.1051 61.7561 15.2102 61.6904C15.3279 61.6003 15.4601 61.531 15.6011 61.4854H16.1224H16.6251V61.3364C16.6342 61.2871 16.6342 61.2366 16.6251 61.1873C16.6251 61.1873 16.6251 61.1873 16.6251 61.0383V60.9078C16.6347 60.8649 16.6347 60.8203 16.6251 60.7774V60.6656H16.5134H16.3458H15.9362H15.7501H15.5639L15.3963 60.7774V60.6842V60.5166H15.5639H15.7314C15.7861 60.5005 15.8443 60.5005 15.899 60.5166H16.0479H16.6065H16.8112C16.8784 60.5361 16.9415 60.5676 16.9974 60.6097C17.0552 60.6429 17.1058 60.6872 17.1464 60.7401C17.195 60.7801 17.2334 60.8312 17.2581 60.8892C17.2681 60.9509 17.2681 61.0138 17.2581 61.0755V61.2432C17.2581 61.2432 17.2581 61.3736 17.2581 61.4295C17.2581 61.4854 17.2581 61.5599 17.2581 61.6158L16.9416 61.2432ZM16.5506 62.5661V61.7835H16.3086H16.1224H15.9362L15.7687 61.9512H15.6011H15.4522L15.3032 62.0444H15.1915V62.1748V62.3239C15.1915 62.3239 15.1915 62.4543 15.1915 62.5102C15.1915 62.5102 15.1915 62.622 15.1915 62.6779C15.1915 62.7338 15.1915 62.771 15.1915 62.8083V62.9201H15.2846C15.2846 62.9201 15.2846 62.9201 15.3963 62.9201H15.4894H15.7687H15.9362H16.0852C16.0852 62.9201 16.1783 62.9201 16.1969 62.8269H16.3086V62.7151V62.6033C16.3166 62.5665 16.3166 62.5284 16.3086 62.4915L16.5506 62.5661ZM17.9283 58.5229H18.2261V63.6281H17.8352V58.5416L17.9283 58.5229ZM21.1863 63.1437H21.2794V63.3113H21.1304H20.9256H20.7022H20.423C20.312 63.3298 20.1988 63.3298 20.0879 63.3113C19.9895 63.33 19.8884 63.33 19.79 63.3113L19.4921 63.4045C19.4094 63.3458 19.3343 63.277 19.2687 63.1995L19.0825 62.9387C19.0369 62.8427 18.9995 62.743 18.9708 62.6406C18.9625 62.529 18.9625 62.4169 18.9708 62.3052C18.9616 62.1812 18.9616 62.0566 18.9708 61.9326C18.9616 61.7961 18.9616 61.6592 18.9708 61.5227C18.9602 61.3987 18.9602 61.274 18.9708 61.15C19.003 61.0402 19.0467 60.934 19.1012 60.8333C19.1477 60.7307 19.2106 60.6363 19.2873 60.5538C19.3481 60.4719 19.4239 60.4023 19.5107 60.3489C19.5825 60.286 19.6644 60.2357 19.7528 60.1998L20.0506 60.088H20.6464H20.8884L21.0932 60.1998L21.2608 60.3675C21.3085 60.4264 21.3521 60.4887 21.3911 60.5538L21.5028 60.7401V60.9637C21.5193 61.031 21.5193 61.1014 21.5028 61.1687C21.5028 61.1687 21.5028 61.3364 21.5028 61.3923V61.6158H19.2687C19.2586 61.7336 19.2586 61.8521 19.2687 61.9698C19.2866 62.1031 19.3178 62.2341 19.3618 62.3611L19.5294 62.6592C19.6013 62.7373 19.6826 62.8061 19.7714 62.8642C19.8527 62.9294 19.9485 62.9741 20.0506 62.9946C20.1677 63.0141 20.2873 63.0141 20.4044 62.9946H20.7767H20.9256H21.0374L21.1863 63.1437ZM19.9948 63.4231C19.8893 63.3955 19.7888 63.3515 19.6969 63.2927L19.4921 63.0505C19.4083 62.9522 19.345 62.8382 19.3059 62.7151C19.2515 62.5759 19.2079 62.4326 19.1756 62.2866C19.1657 62.1253 19.1657 61.9635 19.1756 61.8022V61.709H21.5772C21.5772 61.709 21.5772 61.5786 21.5772 61.504C21.5772 61.4295 21.5772 61.3736 21.5772 61.2991V61.1128V60.9078L21.4842 60.7401L21.3725 60.5911L21.2235 60.4607L21.056 60.3489H20.9256L21.0746 60.442C21.1315 60.4684 21.1823 60.5065 21.2235 60.5538L21.3352 60.6656C21.3317 60.7152 21.3317 60.765 21.3352 60.8147V60.9637V61.1128C21.3352 61.1128 21.3352 61.2246 21.3352 61.2618C21.3352 61.2991 21.3352 61.2618 21.3352 61.4109C21.3352 61.5599 21.3352 61.4109 21.3352 61.5413V61.7276H19.1012C19.1012 61.7276 19.1012 61.5972 19.1012 61.5413C19.1116 61.4796 19.1116 61.4167 19.1012 61.355C19.1082 61.2993 19.1082 61.243 19.1012 61.1873C19.1206 61.1201 19.1522 61.0569 19.1942 61.001C19.1881 60.9453 19.1881 60.889 19.1942 60.8333L19.3246 60.6842H19.4363C19.3594 60.7362 19.2905 60.799 19.2315 60.8706C19.1712 60.9443 19.1211 61.0257 19.0825 61.1128C19.0315 61.2022 18.9879 61.2957 18.9522 61.3923C18.9435 61.5039 18.9435 61.616 18.9522 61.7276C18.943 61.8579 18.943 61.9886 18.9522 62.1189C18.941 62.2304 18.941 62.3428 18.9522 62.4543C18.9432 62.5597 18.9432 62.6656 18.9522 62.771C18.9733 62.8641 19.0111 62.9525 19.0639 63.0319C19.107 63.1106 19.1568 63.1854 19.2129 63.2555C19.2719 63.3271 19.3408 63.3898 19.4176 63.4418C19.4827 63.4997 19.5586 63.5441 19.6411 63.5722H19.79L19.9948 63.4231ZM19.3246 61.4295H21.1863C21.195 61.3928 21.195 61.3545 21.1863 61.3177C21.1953 61.2747 21.1953 61.2303 21.1863 61.1873C21.1939 61.1442 21.1939 61.1 21.1863 61.0569V60.9265V60.796C21.1863 60.796 21.1863 60.7029 21.1863 60.6842L21.0932 60.5725C21.0568 60.561 21.0179 60.561 20.9815 60.5725H20.8512C20.7405 60.5513 20.6268 60.5513 20.5161 60.5725H20.3299H20.1623H20.0134L19.8831 60.6842L19.7714 60.8147C19.7657 60.8642 19.7657 60.9142 19.7714 60.9637C19.768 61.0134 19.768 61.0632 19.7714 61.1128C19.758 61.1679 19.758 61.2254 19.7714 61.2805C19.689 61.2723 19.6059 61.2831 19.5285 61.3122C19.451 61.3413 19.3812 61.3878 19.3246 61.4482V61.4295ZM24.7236 61.5227V61.2432V61.0196V60.8147V60.647L24.6305 60.5352L24.5188 60.4234H24.4071H24.2954H24.1837H24.4071L24.5932 60.5538L24.7236 60.7215L24.8353 60.9265V61.15C24.8442 61.2243 24.8442 61.2994 24.8353 61.3736C24.8437 61.4541 24.8437 61.5353 24.8353 61.6158L24.7236 61.5227ZM24.8911 61.2246C24.9009 61.3237 24.9009 61.4236 24.8911 61.5227V63.6281H24.5188V61.5599C24.5188 61.5599 24.5188 61.4109 24.5188 61.3364C24.5188 61.3364 24.5188 61.1873 24.5188 61.1314V60.9451V60.7588L24.4071 60.6284L24.2581 60.5166H24.0906H23.6996H23.5507H23.4017L23.2714 60.6097L23.1597 60.7215V60.8519C23.1562 60.8953 23.1562 60.939 23.1597 60.9824V61.1314C23.1597 61.1314 23.1597 61.1314 23.1597 61.2618V63.6281H22.7687V60.9824V60.088H23.1597V60.5166L23.3086 60.3489L23.4948 60.1998L23.2156 60.088H23.4576H24.0161H24.1278H24.2767H24.4071C24.4551 60.1267 24.4988 60.1704 24.5374 60.2185L24.6491 60.3675C24.6592 60.4292 24.6592 60.4921 24.6491 60.5538L24.7422 60.7774C24.7525 60.864 24.7525 60.9516 24.7422 61.0383L24.8911 61.2246ZM22.657 60.9265H22.5267V60.3116V60.442V60.5538V60.6656V60.796V60.9451V63.4418V61.4668C22.5177 61.4113 22.5177 61.3546 22.5267 61.2991C22.518 61.2435 22.518 61.187 22.5267 61.1314V60.9637L22.657 60.9265ZM26.0268 60.3116H26.1198V62.6033V62.7151V62.8455C26.1198 62.8455 26.1198 62.8455 26.1198 62.9573C26.1198 63.0691 26.1198 63.0505 26.1198 63.0878C26.1118 63.1246 26.1118 63.1627 26.1198 63.1995H26.2502H26.1012L25.9895 63.0691V62.8828C25.9895 62.8828 25.9895 62.771 25.9895 62.6965C25.9895 62.622 25.9895 62.5661 25.9895 62.4915V60.3302V59.6781V60.3116H26.0268ZM25.4869 60.1253H25.9337V59.5477L26.1385 59.4545H26.2688V60.088H27.1996V60.4607H26.2688V62.6965C26.2596 62.7583 26.2596 62.821 26.2688 62.8828C26.2605 62.9321 26.2605 62.9825 26.2688 63.0319C26.2601 63.0525 26.2556 63.0747 26.2556 63.0971C26.2556 63.1195 26.2601 63.1417 26.2688 63.1623V63.2555H26.7156V63.3486V63.4977H26.2688H26.1012H25.9709L25.8592 63.3859V63.2555C25.8511 63.2124 25.8511 63.1681 25.8592 63.125C25.8509 63.0757 25.8509 63.0253 25.8592 62.976C25.8502 62.933 25.8502 62.8886 25.8592 62.8455C25.8592 62.8455 25.8592 62.8455 25.8592 62.7151V62.5847V60.5166H25.3193V60.088L25.4869 60.1253ZM28.1305 59.2682H27.9443H28.0747H28.1305ZM28.2981 59.2682C28.3083 59.3111 28.3083 59.3558 28.2981 59.3987V59.5104H28.0933H28.2608L28.2981 59.2682ZM27.9071 60.2185H28.205V63.6281H27.814V60.088L27.9071 60.2185ZM31.5375 61.6158C31.5467 61.5229 31.5467 61.4293 31.5375 61.3364C31.5496 61.2623 31.5496 61.1868 31.5375 61.1128C31.5479 61.0449 31.5479 60.9757 31.5375 60.9078V60.7401L31.4258 60.6284V60.5166H31.314H31.2023H31.0906H31.314C31.3775 60.5493 31.4343 60.5935 31.4816 60.647C31.5408 60.6936 31.5913 60.7504 31.6305 60.8147C31.6407 60.8826 31.6407 60.9517 31.6305 61.0196C31.6385 61.0939 31.6385 61.1689 31.6305 61.2432C31.6395 61.3175 31.6395 61.3925 31.6305 61.4668C31.639 61.5473 31.639 61.6285 31.6305 61.709L31.5375 61.6158ZM31.705 61.3177C31.7148 61.4169 31.7148 61.5167 31.705 61.6158V63.6281H31.314V61.5599C31.3232 61.4857 31.3232 61.4106 31.314 61.3364C31.3242 61.2684 31.3242 61.1994 31.314 61.1314C31.3245 61.0697 31.3245 61.0068 31.314 60.9451C31.3275 60.89 31.3275 60.8325 31.314 60.7774L31.2023 60.6284L31.0534 60.5166H30.8859H30.4949H30.346H30.197C30.1467 60.5366 30.102 60.5686 30.0667 60.6097L29.955 60.7215C29.9139 60.7568 29.8819 60.8016 29.8619 60.8519C29.8523 60.8949 29.8523 60.9394 29.8619 60.9824V61.1314C29.8538 61.1745 29.8538 61.2187 29.8619 61.2618C29.8619 61.2618 29.8619 61.355 29.8619 61.4109V63.6281H29.4896V60.9824V60.6842V60.4793V60.088H29.8805V60.5166L30.0295 60.3489L30.2156 60.1998L30.4204 60.1067H30.6624H31.2023H31.3327H31.463H31.5933C31.6457 60.1401 31.6902 60.1847 31.7236 60.2371C31.7765 60.2776 31.8208 60.3283 31.8539 60.3861C31.8887 60.4463 31.9198 60.5085 31.947 60.5725C31.9577 60.6466 31.9577 60.7219 31.947 60.796V61.0569L31.705 61.3177ZM29.4709 61.0196H29.322V60.4048V60.7588V61.0383V63.4418V61.2991V61.1314V60.9637L29.4709 61.0196ZM34.6651 63.2368H34.7582V63.4045H34.6651H34.4976H34.3114H34.088H33.8088C33.6978 63.4229 33.5846 63.4229 33.4736 63.4045C33.375 63.4208 33.2744 63.4208 33.1758 63.4045L32.9151 63.2555C32.8324 63.1968 32.7573 63.1279 32.6917 63.0505L32.5056 62.7897C32.4521 62.6971 32.4144 62.5964 32.3938 62.4915C32.3938 62.3798 32.3938 62.268 32.3938 62.1562C32.3938 62.0257 32.3938 61.914 32.3938 61.7835C32.3938 61.6531 32.3938 61.504 32.3938 61.3736C32.3832 61.2496 32.3832 61.125 32.3938 61.001C32.4336 60.9423 32.4771 60.8863 32.5242 60.8333C32.5707 60.7307 32.6336 60.6363 32.7103 60.5538C32.7711 60.4719 32.8469 60.4023 32.9337 60.3489C33.0025 60.282 33.0851 60.2311 33.1758 60.1998L33.455 60.088H34.0322H34.3859L34.5721 60.1998L34.7582 60.3675C34.806 60.4264 34.8496 60.4887 34.8886 60.5538C34.9269 60.612 34.9581 60.6745 34.9816 60.7401C34.9896 60.8145 34.9896 60.8894 34.9816 60.9637V61.1687C34.9816 61.1687 34.9816 61.3177 34.9816 61.3923V61.6158H32.7476C32.7375 61.7336 32.7375 61.8521 32.7476 61.9698C32.7349 62.1 32.7349 62.231 32.7476 62.3611L32.9151 62.6592C32.987 62.7373 33.0683 62.8061 33.1572 62.8642C33.2385 62.9294 33.3342 62.9741 33.4364 62.9946C33.5535 63.0141 33.673 63.0141 33.7901 62.9946H34.3859H34.5348H34.6465H34.7582L34.6651 63.2368ZM33.4736 63.5163C33.3669 63.4923 33.2658 63.448 33.1758 63.3859C33.0799 63.3085 32.9925 63.221 32.9151 63.125C32.832 63.023 32.7631 62.9102 32.7103 62.7897C32.6622 62.6499 32.6249 62.5066 32.5986 62.3611C32.5887 62.1998 32.5887 62.038 32.5986 61.8767V61.7835H35.0003C35.0003 61.7835 35.0003 61.6531 35.0003 61.5786C35.0003 61.5786 35.0003 61.4482 35.0003 61.3736V61.1873V60.9824V60.8147C34.9671 60.7568 34.9228 60.7062 34.8699 60.6656C34.8365 60.6132 34.792 60.5687 34.7396 60.5352L34.3859 60.3302H34.2556L34.4231 60.4234L34.5534 60.5352L34.6651 60.647C34.6618 60.6966 34.6618 60.7464 34.6651 60.796V60.9451V61.1128C34.6651 61.1128 34.6651 61.2059 34.6651 61.2432C34.6651 61.2432 34.6651 61.2432 34.6651 61.3923C34.6575 61.4354 34.6575 61.4795 34.6651 61.5227V61.709H32.5242C32.5242 61.709 32.5242 61.5786 32.5242 61.5227C32.5163 61.4671 32.5163 61.4106 32.5242 61.355C32.5134 61.2934 32.5134 61.2303 32.5242 61.1687C32.5141 61.107 32.5141 61.0441 32.5242 60.9824C32.548 60.9228 32.5793 60.8664 32.6173 60.8147L32.7476 60.6656H32.8593L32.6731 60.8519C32.6128 60.9256 32.5627 61.0071 32.5242 61.0942C32.4731 61.1835 32.4295 61.277 32.3938 61.3736C32.3852 61.4852 32.3852 61.5974 32.3938 61.709C32.4333 61.7918 32.4768 61.8727 32.5242 61.9512C32.513 62.0627 32.513 62.1751 32.5242 62.2866C32.5152 62.392 32.5152 62.4979 32.5242 62.6033L32.6545 62.8642C32.6976 62.9429 32.7474 63.0177 32.8034 63.0878C32.8607 63.1545 32.923 63.2167 32.9896 63.2741L33.2316 63.4045H33.3806L33.4736 63.5163ZM32.7848 61.5227H34.6465C34.6552 61.4859 34.6552 61.4476 34.6465 61.4109C34.6556 61.3679 34.6556 61.3235 34.6465 61.2805C34.6465 61.2805 34.6465 61.2805 34.6465 61.15V61.0196V60.8892C34.6465 60.8892 34.6465 60.796 34.6465 60.7774V60.6656H34.5348H34.4045H34.2556H33.8832H33.7157H33.5667L33.4364 60.7774L33.3247 60.9078C33.319 60.9574 33.319 61.0074 33.3247 61.0569C33.3213 61.1065 33.3213 61.1563 33.3247 61.2059C33.3168 61.2616 33.3168 61.318 33.3247 61.3736V61.5413L32.7848 61.5227ZM35.5588 60.4793H35.354H35.205V60.3116V60.1998V60.0694V59.9203V59.7713V59.6036V59.4545V59.2869V59.1564C35.205 59.1564 35.205 59.1564 35.205 59.026H35.5029H35.6519V59.1751C35.6519 59.1751 35.6519 59.2869 35.6519 59.3241V59.5104V59.6781V59.8644V60.0321V60.1998V60.3302V60.4607L35.5588 60.4793ZM35.5588 60.1626V60.0321V59.8831V59.6968V59.5291V59.3614V59.1937H35.4471V59.3427V59.5104V59.6595V59.8085V59.9762L35.5588 60.1626ZM37.5881 60.4793H37.4391H37.2716M37.6811 60.4793H37.8301L37.737 60.647H37.6067H37.4763H37.346H36.8061H36.6944C36.6583 60.6342 36.6189 60.6342 36.5827 60.647C36.5827 60.647 36.5827 60.647 36.5827 60.7401C36.5722 60.7893 36.5722 60.8401 36.5827 60.8892C36.5746 60.926 36.5746 60.9642 36.5827 61.001L36.6758 61.1128H36.7875L36.9551 61.2059H37.1412L37.3833 61.3177L37.5881 61.4482L37.7742 61.5972C37.8113 61.6635 37.855 61.7259 37.9045 61.7835C37.9125 61.8578 37.9125 61.9328 37.9045 62.0071C37.9145 62.0938 37.9145 62.1813 37.9045 62.268C37.9137 62.3422 37.9137 62.4173 37.9045 62.4915C37.9107 62.5597 37.9107 62.6283 37.9045 62.6965C37.8984 62.7522 37.8984 62.8085 37.9045 62.8642C37.8597 62.9185 37.8098 62.9684 37.7556 63.0132L37.5881 63.125H37.4019H37.1971H36.7503H36.5269H36.3407L36.1359 63.0132L36.2476 62.8455H36.3407H36.4524H36.5641H36.6758H37.0295H37.1599H37.2716H37.3833V62.7338V62.622C37.3833 62.622 37.3833 62.622 37.3833 62.4915C37.3833 62.4915 37.3833 62.3798 37.3833 62.3239V62.1934C37.3868 62.15 37.3868 62.1064 37.3833 62.063L37.2529 61.9512H37.0854H36.8806L36.5269 61.7649L36.2476 61.5972C36.1784 61.5127 36.122 61.4186 36.0801 61.3177C36.0605 61.2193 36.0605 61.118 36.0801 61.0196C36.0709 60.9579 36.0709 60.8951 36.0801 60.8333C36.064 60.7786 36.064 60.7204 36.0801 60.6656C36.0666 60.6105 36.0666 60.553 36.0801 60.4979L36.1918 60.3489L36.3407 60.2371H36.5083C36.5763 60.2287 36.645 60.2287 36.713 60.2371H37.1599C37.2208 60.2204 37.2851 60.2204 37.346 60.2371C37.4053 60.2143 37.4696 60.2078 37.5322 60.2185L37.6811 60.4793ZM36.6572 60.6097L36.5455 60.7029V60.8147V60.9451C36.5455 60.9451 36.5455 60.9451 36.5455 61.0942C36.5455 61.0942 36.5455 61.0941 36.5455 61.2432C36.5266 61.3165 36.5266 61.3935 36.5455 61.4668C36.5702 61.5508 36.6149 61.6275 36.6758 61.6904C36.7423 61.7615 36.8173 61.8241 36.8992 61.8767C37.0039 61.9409 37.1166 61.991 37.2343 62.0257L37.4391 62.1375L37.6253 62.2493C37.6882 62.2836 37.7399 62.3354 37.7742 62.3984C37.8264 62.4349 37.8656 62.4871 37.8859 62.5474C37.8963 62.6091 37.8963 62.6721 37.8859 62.7338C37.8961 62.8017 37.8961 62.8708 37.8859 62.9387C37.895 62.9942 37.895 63.0509 37.8859 63.1064C37.8886 63.1623 37.8886 63.2182 37.8859 63.2741V63.4231L37.7742 63.5349L37.6439 63.6281H37.495H37.6625H37.7928L37.9045 63.5163C37.9079 63.4667 37.9079 63.4169 37.9045 63.3672V63.2182C37.9137 63.1564 37.9137 63.0936 37.9045 63.0319C37.9147 62.9639 37.9147 62.8949 37.9045 62.8269C37.915 62.7652 37.915 62.7023 37.9045 62.6406C37.8846 62.5848 37.8529 62.5339 37.8115 62.4915L37.3088 61.9512L37.1226 61.8394H36.8806L36.6944 61.7463L36.5083 61.6345C36.4505 61.6013 36.3998 61.557 36.3593 61.504L36.2476 61.3177C36.2411 61.262 36.2411 61.2058 36.2476 61.15C36.2476 61.15 36.2476 61.0383 36.2476 60.9637C36.2476 60.8892 36.2476 60.9637 36.2476 60.8333C36.2452 60.7899 36.2452 60.7463 36.2476 60.7029C36.238 60.6599 36.238 60.6154 36.2476 60.5725V60.4607C36.2476 60.4607 36.2476 60.4607 36.3593 60.3675L36.6572 60.6097ZM36.6572 63.7399H36.5269H36.3966H36.2848H36.3779H36.5455H36.7317M37.4391 60.5538H37.6067H37.4391Z" fill="#606060"/>
<path d="M37.4578 67.9875C37.4578 67.9875 37.2902 67.8385 37.253 67.7639C37.2366 67.7356 37.228 67.7035 37.228 67.6708C37.228 67.6381 37.2366 67.6059 37.253 67.5776C37.2602 67.5537 37.2722 67.5315 37.2882 67.5122C37.3041 67.493 37.3238 67.4773 37.3461 67.4658C37.3461 67.4658 37.4391 67.4658 37.4764 67.4658C37.4764 67.4658 37.4764 67.4658 37.6067 67.4658C37.6563 67.4882 37.696 67.528 37.7184 67.5776C37.7318 67.6068 37.7387 67.6386 37.7387 67.6708C37.7387 67.7029 37.7318 67.7347 37.7184 67.7639L37.495 67.9875H37.4578Z" fill="#606060"/>
<path fill-rule="evenodd" clip-rule="evenodd" d="M60.748 20.5507C61.6745 19.1113 62.2976 17.4977 62.5791 15.8088C62.8605 14.1199 62.7944 12.3913 62.3848 10.7288C61.9752 9.0664 61.2307 7.50519 60.1969 6.14086C59.1632 4.77653 57.8619 3.63782 56.373 2.79452C54.871 1.87073 53.2018 1.2521 51.4609 0.973972C49.72 0.695843 47.9413 0.763655 46.2266 1.17354C39.6175 2.68272 37.1414 8.25366 32.6546 8.47724C27.5908 8.83125 24.6306 2.88768 19.9205 0.931327C8.58258 -3.48443 -5.6782 8.47724 2.3272 20.7929C16.8486 43.1512 16.0295 25.5441 19.7901 14.1786C20.2742 12.539 18.1518 8.94304 19.6784 8.94304C27.8142 11.3838 21.9125 21.8363 19.7901 26.9414C19.7198 27.1567 19.6954 27.3842 19.7183 27.6095C19.7413 27.8348 19.8111 28.0527 19.9234 28.2493C20.0356 28.4459 20.1878 28.6168 20.3701 28.751C20.5523 28.8851 20.7607 28.9796 20.9816 29.0282C21.4014 29.1272 21.8425 29.0773 22.2296 28.887C22.6167 28.6967 22.9258 28.3778 23.104 27.9848L25.3381 22.8238C25.3381 22.9356 25.2264 23.1778 25.3381 23.4014L21.6146 32.9223C21.5346 33.1445 21.5019 33.381 21.5185 33.6166C21.5351 33.8522 21.6007 34.0817 21.7112 34.2904C21.8216 34.4992 21.9744 34.6825 22.1597 34.8287C22.3451 34.9749 22.5589 35.0808 22.7875 35.1395C23.242 35.2783 23.7324 35.2379 24.1582 35.0266C24.5839 34.8153 24.9128 34.4491 25.0774 34.0029L28.8009 24.482V24.9478L25.4684 35.8661C25.3529 36.3155 25.4092 36.7918 25.6261 37.2019C25.843 37.6119 26.205 37.9263 26.6413 38.0833C26.8735 38.1622 27.119 38.1945 27.3637 38.1781C27.6084 38.1618 27.8475 38.0972 28.0672 37.9882C28.2869 37.8791 28.4829 37.7277 28.644 37.5425C28.805 37.3574 28.9279 37.1423 29.0057 36.9095L32.3009 25.8794C32.3009 25.7676 32.4312 25.6558 32.4312 25.5254L32.785 24.482L30.5323 34.0029C30.2903 35.1581 30.7743 36.4437 31.7238 36.6673C32.0039 36.76 32.3007 36.7911 32.5938 36.7584C32.887 36.7257 33.1697 36.6301 33.4225 36.4779C33.6754 36.3257 33.8923 36.1207 34.0586 35.8768C34.2249 35.633 34.3366 35.356 34.386 35.0649L36.7877 24.687C36.9411 25.2189 37.0593 25.7604 37.1414 26.308C37.4211 26.9741 37.856 27.5635 38.4099 28.027C38.9637 28.4905 39.6204 28.8147 40.3249 28.9723C40.665 29.0589 41.0193 29.0738 41.3655 29.0161C41.7116 28.9583 42.042 28.8292 42.3356 28.6369C43.8622 27.5936 42.1122 26.7738 41.1627 25.954L45.8915 21.7804C48.833 19.2278 52.0165 23.2896 49.7639 25.2646C47.9952 26.8855 35.7265 46.8589 26.2876 43.617C22.1545 42.1078 30.1785 49.2065 38.7983 42.5736C46.9048 36.0661 54.2663 28.6801 60.748 20.5507ZM39.3941 18.8179L47.7532 9.40884C47.9977 9.1299 48.1849 8.80551 48.3041 8.45418C48.4233 8.10284 48.4722 7.73145 48.448 7.3612C48.4238 6.99095 48.327 6.6291 48.163 6.29631C47.9991 5.96351 47.7713 5.66629 47.4926 5.42161C47.2138 5.17693 46.8897 4.98959 46.5387 4.87028C46.1876 4.75097 45.8165 4.70203 45.4465 4.72625C45.0766 4.75047 44.715 4.84739 44.3825 5.01145C44.0499 5.17552 43.753 5.40352 43.5085 5.68246C40.5143 9.33976 39.041 14.0099 39.3941 18.7248V18.8179ZM39.3941 19.5073C39.5303 21.5838 40.0084 23.6235 40.809 25.5441C40.809 25.6745 40.9207 25.6745 40.9207 25.7863L51.1415 15.7996C53.6176 13.3588 49.8383 9.29704 47.0085 12.0732L39.3941 19.5073Z" fill="#606060"/>
</g>
<defs>
<clipPath id="clip0_136_2893">
<rect width="62.7586" height="70" fill="white"/>
</clipPath>
</defs>
</svg>
