<svg width="68" height="56" viewBox="0 0 68 56" fill="none" xmlns="http://www.w3.org/2000/svg">
<path d="M63.8537 7.31733H34.8289V1.51246C34.8289 1.05219 34.4599 0.683105 33.9996 0.683105H4.14574C1.8569 0.683105 -0.000732422 2.54074 -0.000732422 4.82957V44.6349C-0.000732422 46.9237 1.8569 48.7814 4.14574 48.7814H33.1704V54.5864C33.1704 55.0467 33.5395 55.4158 33.9997 55.4158H63.8537C66.1426 55.4158 68.0002 53.5581 68.0002 51.2693V11.4638C68.0002 9.17909 66.1426 7.31733 63.8537 7.31733ZM4.14574 47.1228C2.77332 47.1228 1.65782 46.0075 1.65782 44.6349V4.82957C1.65782 3.45716 2.77317 2.34166 4.14574 2.34166H33.1704V8.14669V47.1228H4.14574ZM66.3417 51.2691C66.3417 52.6415 65.2263 53.757 63.8537 53.757H34.8289V47.952V8.97588H63.8537C65.2262 8.97588 66.3417 10.0912 66.3417 11.4638V51.2691Z" fill="#FF6B00"/>
<path d="M27.3659 7.31689H20.7317C20.2714 7.31689 19.9023 7.68597 19.9023 8.14625C19.9023 8.60653 20.2714 8.97561 20.7317 8.97561H27.3659C27.8262 8.97561 28.1953 8.60653 28.1953 8.14625C28.1951 7.68597 27.8262 7.31689 27.3659 7.31689Z" fill="#FF6B00"/>
<path d="M27.3665 15.6097C27.8268 15.6097 28.1959 15.2406 28.1959 14.7803C28.1959 14.32 27.8268 13.951 27.3665 13.951H14.9273V8.14625C14.9273 7.68597 14.5582 7.31689 14.0979 7.31689H7.46388C7.0036 7.31689 6.63452 7.68597 6.63452 8.14625V28.0489C6.63452 28.5092 7.0036 28.8783 7.46388 28.8783H14.0981H27.3665C27.8268 28.8783 28.1959 28.5092 28.1959 28.0489C28.1959 27.5886 27.8268 27.2196 27.3665 27.2196H14.9273V22.2439H20.7323C21.1926 22.2439 21.5617 21.8748 21.5617 21.4145C21.5617 20.9543 21.1926 20.5852 20.7323 20.5852H14.9273V15.6095H27.3665V15.6097ZM8.29308 8.97545H13.2687V27.2196H8.29308V8.97545Z" fill="#FF6B00"/>
<path d="M27.3665 40.4885H7.46388C7.0036 40.4885 6.63452 40.8576 6.63452 41.3179C6.63452 41.7782 7.0036 42.1472 7.46388 42.1472H27.3665C27.8268 42.1472 28.1959 41.7782 28.1959 41.3179C28.1957 40.8616 27.8268 40.4885 27.3665 40.4885Z" fill="#FF6B00"/>
<path d="M60.538 13.9512H47.2696H40.6353C40.1751 13.9512 39.8062 14.3203 39.8062 14.7805V41.3174C39.8062 41.7777 40.1752 42.1468 40.6353 42.1468H47.2696H60.538C60.9983 42.1468 61.3674 41.7777 61.3674 41.3174C61.3674 40.8571 60.9983 40.4881 60.538 40.4881H48.0988V28.8782H53.9038C54.3641 28.8782 54.7332 28.5091 54.7332 28.0488C54.7332 27.5885 54.3641 27.2195 53.9038 27.2195H48.0988V22.2438H53.9038C54.3641 22.2438 54.7332 21.8747 54.7332 21.4144C54.7332 20.9542 54.3641 20.5851 53.9038 20.5851H48.0988V15.6094H60.538C60.9983 15.6094 61.3674 15.2403 61.3674 14.7801C61.3674 14.3244 60.9983 13.9512 60.538 13.9512ZM41.4647 15.6097H46.4404V40.4881H41.4647V15.6097Z" fill="#FF6B00"/>
<path d="M60.538 47.1223H40.6353C40.1751 47.1223 39.8062 47.4914 39.8062 47.9517C39.8062 48.4119 40.1752 48.781 40.6353 48.781H60.538C60.9983 48.781 61.3674 48.4119 61.3674 47.9517C61.3674 47.4914 60.9983 47.1223 60.538 47.1223Z" fill="#FF6B00"/>
<path d="M60.5376 33.854H53.9033C53.4431 33.854 53.074 34.2231 53.074 34.6832C53.074 35.1435 53.4431 35.5126 53.9033 35.5126H60.5376C60.9978 35.5126 61.3669 35.1435 61.3669 34.6832C61.3669 34.2229 60.9978 33.854 60.5376 33.854Z" fill="#FF6B00"/>
</svg>
